<svg width="22" height="22" viewBox="0 0 22 22" fill="none" xmlns="http://www.w3.org/2000/svg">
<path d="M11.3333 17.5347V18.6902C11.3333 18.7567 11.1364 19.1 10.2264 19.4461C9.30054 19.7981 8.00308 20 6.66667 20C5.3303 20 4.03284 19.7981 3.10697 19.4461C2.19704 19.1 2.00005 18.7567 2.00005 18.6902V17.5347C2.17848 17.6261 2.37766 17.7146 2.5999 17.7991C3.69756 18.2164 5.14185 18.4463 6.66667 18.4463C8.19153 18.4463 9.63582 18.2164 10.7335 17.799C10.9558 17.7145 11.1549 17.6261 11.3333 17.5347ZM16.9846 5C18.0977 5 19 5.90233 19 7.01541V15.7338C19 16.8469 18.0977 17.7492 16.9846 17.7492L12.3761 17.7496C12.3899 17.6528 12.3981 17.5541 12.4005 17.454C12.4102 17.0447 12.3196 16.6392 12.1365 16.273L11 14L11.1049 11.5333C11.2041 9.20026 9.39317 7.22853 7.06012 7.12934C7.00029 7.1268 6.9404 7.12552 6.88051 7.12552H6.46875C5.09597 7.12552 3.88471 7.81706 3.16433 8.87078L3.16589 5H16.9846ZM9.66918 15.2872C10.9151 15.6354 11.3333 16.094 11.3333 16.225C11.3333 16.2914 11.1364 16.6347 10.2264 16.9808C9.30054 17.3328 8.00308 17.5347 6.66667 17.5347C5.3303 17.5347 4.03284 17.3328 3.10697 16.9808C2.19699 16.6347 2 16.2914 2 16.225C2 16.094 2.41833 15.6354 3.6642 15.2872C4.52966 15.9478 5.58172 16.3075 6.66662 16.3075C7.75157 16.3075 8.80377 15.9477 9.66918 15.2872ZM6.66671 8C8.63497 8 10.2362 9.63447 10.2362 11.6436C10.2362 13.6527 8.63497 15.2872 6.66671 15.2872C4.69846 15.2872 3.09719 13.6527 3.09719 11.6436C3.09719 9.63447 4.69846 8 6.66671 8ZM7.197 13.8241H6.195C6.10277 13.8241 6.028 13.9082 6.028 14.012C6.028 14.1158 6.10277 14.2 6.195 14.2H7.197C7.28923 14.2 7.364 14.1158 7.364 14.012C7.364 13.9082 7.28923 13.8241 7.197 13.8241ZM7.14 13.0722H6.26C6.16777 13.0722 6.028 13.19 6.028 13.3353C6.028 13.4807 6.16777 13.5985 6.26 13.5985H7.14C7.23223 13.5985 7.364 13.4807 7.364 13.3353C7.364 13.19 7.23223 13.0722 7.14 13.0722ZM15.8572 10.6617C15.2633 10.6617 14.7776 11.1711 14.7776 11.7939C14.7776 12.4167 15.2633 12.9262 15.8572 12.9262C16.451 12.9262 16.9368 12.4167 16.9368 11.7939C16.9368 11.1711 16.451 10.6617 15.8572 10.6617ZM6.62167 9.2C6.52249 9.20223 6.42956 9.24418 6.36808 9.31447L4.77649 11.1219C4.69526 11.2106 4.67713 11.3333 4.72977 11.4382C4.78496 11.5428 4.90173 11.6095 5.03008 11.6099H6.03108V12.516C6.03108 12.6824 6.18047 12.8172 6.36474 12.8172H7.03208C7.21636 12.8172 7.36575 12.6824 7.36575 12.516V11.6099H8.36675C8.49772 11.6097 8.61648 11.5404 8.6704 11.4327C8.72432 11.3249 8.70344 11.1987 8.617 11.1098L6.87192 9.30242C6.80867 9.23742 6.71751 9.20011 6.62167 9.2Z" fill="#0A79B8"/>
</svg>
