<svg width="22" height="22" viewBox="0 0 22 22" fill="none" xmlns="http://www.w3.org/2000/svg">
<path d="M11.3333 17.5347V18.6902C11.3333 18.7567 11.1364 19.1 10.2264 19.4461C9.30054 19.7981 8.00308 20 6.66667 20C5.3303 20 4.03284 19.7981 3.10697 19.4461C2.19704 19.1 2.00005 18.7567 2.00005 18.6902V17.5347C2.17848 17.6261 2.37766 17.7146 2.5999 17.7991C3.69756 18.2164 5.14185 18.4463 6.66667 18.4463C8.19153 18.4463 9.63582 18.2164 10.7335 17.799C10.9558 17.7145 11.1549 17.6261 11.3333 17.5347ZM16.9846 5C18.0977 5 19 5.90233 19 7.01541V15.7338C19 16.8469 18.0977 17.7492 16.9846 17.7492L12.3761 17.7496C12.3899 17.6528 12.3981 17.5541 12.4005 17.454C12.4102 17.0447 12.3196 16.6392 12.1365 16.273L11 14L11.1049 11.5333C11.2041 9.20026 9.39317 7.22853 7.06012 7.12934C7.00029 7.1268 6.9404 7.12552 6.88051 7.12552H6.46875C5.09597 7.12552 3.88471 7.81706 3.16433 8.87078L3.16589 5H16.9846ZM9.66918 15.2872C10.9151 15.6354 11.3333 16.094 11.3333 16.225C11.3333 16.2914 11.1364 16.6347 10.2264 16.9808C9.30054 17.3328 8.00308 17.5347 6.66667 17.5347C5.3303 17.5347 4.03284 17.3328 3.10697 16.9808C2.19699 16.6347 2 16.2914 2 16.225C2 16.094 2.41833 15.6354 3.6642 15.2872C4.52966 15.9478 5.58172 16.3075 6.66662 16.3075C7.75157 16.3075 8.80377 15.9477 9.66918 15.2872ZM6.66671 8C8.63497 8 10.2362 9.63447 10.2362 11.6436C10.2362 13.6527 8.63497 15.2872 6.66671 15.2872C4.69846 15.2872 3.09719 13.6527 3.09719 11.6436C3.09719 9.63447 4.69846 8 6.66671 8ZM6.66667 9.66667C6.48257 9.66667 6.33333 9.81591 6.33333 10L6.33267 11.3327L5 11.3333C4.81591 11.3333 4.66667 11.4826 4.66667 11.6667C4.66667 11.8508 4.81591 12 5 12L6.33267 11.9997L6.33333 13.3333C6.33333 13.5174 6.48257 13.6667 6.66667 13.6667C6.85076 13.6667 7 13.5174 7 13.3333L6.99967 11.9997L8.33333 12C8.51743 12 8.66667 11.8508 8.66667 11.6667C8.66667 11.4826 8.51743 11.3333 8.33333 11.3333L6.99967 11.3327L7 10C7 9.81591 6.85076 9.66667 6.66667 9.66667ZM15.8572 10.6617C15.2633 10.6617 14.7776 11.1711 14.7776 11.7939C14.7776 12.4167 15.2633 12.9262 15.8572 12.9262C16.451 12.9262 16.9368 12.4167 16.9368 11.7939C16.9368 11.1711 16.451 10.6617 15.8572 10.6617Z" fill="#0A79B8"/>
</svg>
