<svg width="22" height="22" viewBox="0 0 22 22" fill="none" xmlns="http://www.w3.org/2000/svg">
<g clip-path="url(#clip0_5167_12753)">
<path d="M19.1385 15.7435C19.138 17.4909 17.6691 18.9073 15.8575 18.9073C14.9532 18.9073 14.1346 18.5541 13.5409 17.9835L15.8634 15.7435H19.1385ZM15.5811 12.2L15.5815 15.3659L13.2644 17.6059C12.6685 17.0332 12.3 16.2403 12.3 15.3647C12.3 13.6168 13.7688 12.2 15.5811 12.2ZM16.6286 7.85362C17.6385 7.85362 18.4571 8.6723 18.4571 9.68219L18.4581 12.2804C17.7252 11.6685 16.7855 11.3008 15.7609 11.3008C14.2853 11.3008 12.9858 12.0633 12.2266 13.2199C12.2659 13.0171 12.2857 12.8045 12.2857 12.5858C12.2857 11.0925 11.3643 9.88173 10.2286 9.88173C9.09283 9.88173 8.17142 11.0927 8.17142 12.586C8.17142 14.0779 9.09283 15.2901 10.2286 15.2901C10.7804 15.2901 11.2816 15.0039 11.6512 14.5385C11.5663 14.8732 11.5218 15.2253 11.5218 15.5879C11.5218 16.2036 11.6501 16.7889 11.8812 17.3181L3.82858 17.3182C2.81868 17.3182 2 16.4995 2 15.4896V9.68219C2 8.6723 2.81868 7.85362 3.82858 7.85362H16.6286ZM3.3715 13.9377V15.0516C3.3715 15.5565 3.78083 15.9658 4.28578 15.9658H5.42864C5.42864 14.8463 4.50725 13.9377 3.3715 13.9377ZM16.0195 12.2C17.8309 12.2007 19.3 13.6173 19.3 15.3647L16.0195 15.3657V12.2ZM5.42864 9.20556H4.28578C3.78083 9.20556 3.3715 9.6149 3.3715 10.1198V11.2337C4.50725 11.2337 5.42864 10.3253 5.42864 9.20556ZM16.1714 9.20556H15.0285C15.0285 10.3253 15.9499 11.2337 17.0856 11.2337V10.1198C17.0856 9.6149 16.6763 9.20556 16.1714 9.20556ZM17.0164 5.42681C17.3758 5.42681 17.6672 5.71821 17.6672 6.07766V6.23205C17.6672 6.5915 17.3758 6.8829 17.0164 6.8829H3.50661C3.14716 6.8829 2.85578 6.5915 2.85578 6.23205V6.07766C2.85578 5.71821 3.14716 5.42681 3.50661 5.42681H17.0164ZM16.0289 3C16.3884 3 16.6798 3.29139 16.6798 3.65085V3.80524C16.6798 4.16469 16.3884 4.45609 16.0289 4.45609H4.49405C4.13459 4.45609 3.84319 4.16469 3.84319 3.80524V3.65085C3.84319 3.29139 4.13459 3 4.49405 3H16.0289Z" fill="#0A79B8"/>
</g>
<defs>
<clipPath id="clip0_5167_12753">
<rect width="22" height="22" fill="white"/>
</clipPath>
</defs>
</svg>
