<svg width="22" height="22" viewBox="0 0 22 22" fill="none" xmlns="http://www.w3.org/2000/svg">
<path d="M7.5 8.46471C10.5376 8.46471 13 10.963 13 14.0449C13 17.1267 10.5376 19.625 7.5 19.625C4.46243 19.625 2 17.1267 2 14.0449C2 10.963 4.46243 8.46471 7.5 8.46471ZM18.0766 5C19.1389 5 20 5.86113 20 6.92338V15.6725C20 16.7347 19.1389 17.5959 18.0766 17.5959L12.9781 17.596C13.625 16.571 14 15.3523 14 14.0449C14 10.4027 11.0899 7.45013 7.5 7.45013C6.21105 7.45013 5.00973 7.83078 3.99928 8.48731L4 5H18.0766ZM8.71885 10.5801H6.27792C6.02116 10.5801 5.79774 10.7709 5.71771 11.0509L5.19418 12.938C5.1475 13.0963 5.1575 13.2708 5.21752 13.4209H4.54393C4.30051 13.4209 4.08043 13.6198 4.0104 13.8998L3.52355 15.7869C3.47353 15.9939 3.50354 16.2171 3.61025 16.3916C3.71696 16.5661 3.88369 16.6676 4.06375 16.6676H7.27163C7.4517 16.6676 7.61843 16.5661 7.72514 16.3916C7.83184 16.2171 7.86185 15.9939 7.8085 15.7829L7.32499 13.8998C7.31832 13.8755 7.31165 13.8511 7.30164 13.8268H7.83184L8.21532 15.3162L8.45208 14.4396C8.48542 14.3178 8.58213 14.2326 8.69217 14.2326H9.91596C10.0527 14.2326 10.1661 14.3706 10.1661 14.537C10.1661 14.7034 10.0527 14.8414 9.91596 14.8414H8.87224L8.65215 15.649C8.61881 15.7748 8.51877 15.8559 8.4154 15.8559C8.38872 15.8559 8.36204 15.8519 8.3387 15.8397C8.33537 15.8397 8.33203 15.8356 8.3287 15.8316C8.35871 16.1278 8.30536 16.42 8.17197 16.6676H10.9363C11.1164 16.6676 11.2798 16.5661 11.3865 16.3916C11.4966 16.2171 11.5266 15.998 11.4766 15.7829L10.993 13.8998C10.9197 13.6157 10.6996 13.4209 10.4562 13.4209H9.77925C9.83927 13.2708 9.84927 13.0963 9.80259 12.938L9.27906 11.0509C9.19903 10.7709 8.97561 10.5801 8.71885 10.5801ZM6.24791 14.2326C6.38463 14.2326 6.49801 14.3706 6.49801 14.537C6.49801 14.7034 6.38463 14.8414 6.24791 14.8414H5.20418L4.9841 15.649C4.95075 15.7748 4.85072 15.8559 4.74734 15.8559C4.72067 15.8559 4.69399 15.8519 4.67065 15.8397C4.53727 15.7869 4.46724 15.6165 4.51059 15.4542L4.78403 14.4396C4.81737 14.3178 4.91407 14.2326 5.02412 14.2326H6.24791ZM7.91521 11.3918C8.05193 11.3918 8.1653 11.5298 8.1653 11.6962C8.1653 11.8626 8.05193 12.0005 7.91521 12.0005H6.87148L6.6514 12.8081C6.61805 12.934 6.51801 13.0151 6.41464 13.0151C6.38796 13.0151 6.36129 13.0111 6.33795 12.9989C6.20456 12.9461 6.13454 12.7757 6.17789 12.6133L6.45132 11.5988C6.48467 11.477 6.58137 11.3918 6.69141 11.3918H7.91521ZM16.8242 10.5936C16.2242 10.5936 15.7333 11.0969 15.7333 11.7122C15.7333 12.3275 16.2242 12.8308 16.8242 12.8308C17.4243 12.8308 17.9152 12.3275 17.9152 11.7122C17.9152 11.0969 17.4243 10.5936 16.8242 10.5936Z" fill="#0A79B8"/>
</svg>
