<svg width="22" height="22" viewBox="0 0 22 22" fill="none" xmlns="http://www.w3.org/2000/svg">
<path fill-rule="evenodd" clip-rule="evenodd" d="M13.1057 18.6951L10.8302 21L8.55469 18.6951H13.1057ZM14.1695 5.3471L16.2889 5.3481L16.2891 15.705C16.2891 16.7978 15.4032 17.6837 14.3104 17.6837H7.43959C6.34681 17.6837 5.46094 16.7978 5.46094 15.705V5.3481L7.8617 5.3471C7.3268 6.04181 7.00781 6.91764 7.00781 7.86946C7.00781 10.1269 8.80217 11.9569 11.0156 11.9569C13.2291 11.9569 15.0234 10.1269 15.0234 7.86946C15.0234 6.91764 14.7044 6.04181 14.1695 5.3471ZM4.31937 13.6719V17.6739C3.5907 17.6739 3 17.0832 3 16.3545V13.6719H4.31937ZM18.75 13.6719V16.3545C18.75 17.0832 18.1593 17.6739 17.4306 17.6739V13.6719H18.75ZM14.3505 15.9394H7.39953C7.18319 15.9394 7.00781 16.1148 7.00781 16.3312C7.00781 16.5475 7.18319 16.7229 7.39953 16.7229H14.3505C14.5668 16.7229 14.7422 16.5475 14.7422 16.3312C14.7422 16.1148 14.5668 15.9394 14.3505 15.9394ZM10.9479 5.3481L10.9488 6.30532L12.1912 5.63498V6.1827L10.9488 6.85304V7.36806L12.1912 6.69772V7.24544L10.9488 7.91578V9.55894C11.1091 9.54804 11.2695 9.51398 11.4298 9.45675C11.5901 9.39953 11.7317 9.31914 11.8546 9.21559C11.9775 9.11204 12.0777 8.98942 12.1552 8.84772C12.2327 8.70602 12.2714 8.54525 12.2714 8.3654C12.2714 8.32725 12.2701 8.28501 12.2674 8.23869C12.2647 8.19236 12.2554 8.1365 12.2393 8.0711L13.0088 7.87491C13.0462 8.04385 13.065 8.19373 13.065 8.32453C13.065 8.68422 12.9928 8.99896 12.8485 9.26873C12.7042 9.5385 12.4999 9.76195 12.2353 9.93907C11.9708 10.1162 11.6502 10.247 11.2735 10.3315C10.8967 10.4159 10.4786 10.4527 10.019 10.4418V8.38175L9.3457 8.74145V8.19373L10.019 7.83403V7.31901L9.3457 7.67871V7.13099L10.019 6.76312L10.0189 5.3481H10.9479ZM6.95812 3V4.33399L4.319 4.333L4.31937 7.00198H3V4.31937C3 3.5907 3.5907 3 4.31937 3H6.95812ZM17.4306 3C18.1593 3 18.75 3.5907 18.75 4.31937V7.00198H17.4306L17.431 4.333L14.7919 4.33399V3H17.4306Z" fill="#0A79B8"/>
</svg>
