<svg width="22" height="22" viewBox="0 0 22 22" fill="none" xmlns="http://www.w3.org/2000/svg">
<path d="M17.1707 11C17.1707 10.816 17.1625 10.64 17.1461 10.456L18.6764 9.328C19.0055 9.088 19.096 8.64 18.8903 8.288L17.3518 5.704C17.1461 5.352 16.7018 5.208 16.3233 5.368L14.5543 6.096C14.2499 5.888 13.929 5.704 13.5917 5.552L13.3531 3.704C13.3037 3.304 12.95 3 12.5386 3H9.46966C9.05004 3 8.69625 3.304 8.64689 3.704L8.40829 5.552C8.07095 5.704 7.75007 5.888 7.44565 6.096L5.6767 5.368C5.29823 5.208 4.85394 5.352 4.64825 5.704L3.10967 8.296C2.90398 8.648 2.99449 9.088 3.32359 9.336L4.85394 10.464C4.83748 10.64 4.82925 10.816 4.82925 11C4.82925 11.184 4.83748 11.36 4.85394 11.544L3.32359 12.672C2.99449 12.912 2.90398 13.36 3.10967 13.712L4.64825 16.296C4.85394 16.648 5.29823 16.792 5.6767 16.632L7.44565 15.904C7.75007 16.112 8.07095 16.296 8.40829 16.448L8.64689 18.296C8.69625 18.696 9.05004 19 9.46143 19H12.5303C12.9417 19 13.2955 18.696 13.3449 18.296L13.5835 16.448C13.9208 16.296 14.2417 16.112 14.5461 15.904L16.3151 16.632C16.6935 16.792 17.1378 16.648 17.3435 16.296L18.8821 13.712C19.0878 13.36 18.9973 12.92 18.6682 12.672L17.1378 11.544C17.1625 11.36 17.1707 11.184 17.1707 11ZM11.0329 13.8C9.44497 13.8 8.15323 12.544 8.15323 11C8.15323 9.456 9.44497 8.2 11.0329 8.2C12.6208 8.2 13.9126 9.456 13.9126 11C13.9126 12.544 12.6208 13.8 11.0329 13.8Z" fill="#0A79B8"/>
</svg>
