<svg width="22" height="22" viewBox="0 0 22 22" fill="none" xmlns="http://www.w3.org/2000/svg">
<path d="M3.03803 18C2.46511 18 2 17.5249 2 16.9397C2 16.6566 2.10781 16.3892 2.30186 16.1909C2.50207 15.9896 2.76389 15.8826 3.03803 15.8826L7.468 15.882L5.61051 14.1716C4.81528 13.4396 4.44934 12.3113 4.65552 11.2271C4.84477 10.2318 5.46135 9.41865 6.34715 8.99606C6.74988 8.80393 7.17492 8.7084 7.59845 8.7084C8.10651 8.7084 8.6123 8.84587 9.07444 9.11891L9.76957 9.52961L10.4647 9.11891C11.6278 8.43171 13.022 8.59819 13.9469 9.48397L12.0355 10.926C11.715 11.1534 11.5026 11.4975 11.4373 11.896C11.3715 12.2975 11.464 12.6985 11.6979 13.025C11.9716 13.407 12.4012 13.6153 12.8376 13.6153C13.0634 13.6153 13.291 13.5595 13.4998 13.4432L14.8024 12.728C14.6376 13.2893 14.3343 13.7982 13.9286 14.1716L12.07 15.882L16.363 15.8826C16.8949 15.8826 17.3382 16.2965 17.3949 16.8249L17.4011 16.9397C17.4011 17.2197 17.2871 17.4935 17.093 17.6885C16.9052 17.8836 16.6372 18 16.363 18H3.03803ZM20 4V9.27254L19.2444 9.98023L19.2336 9.99064C18.5001 10.7238 17.5436 11.1234 16.5386 11.1145L16.4777 11.1143C16.1647 11.1154 15.7304 11.1491 15.3456 11.3636L13.0761 12.6098C12.8549 12.7334 12.5704 12.6657 12.4239 12.4611C12.2515 12.2204 12.3282 11.8699 12.5547 11.6991C12.5547 11.6991 13.3764 11.0791 14.2512 10.4191L14.6272 10.1354C15.5019 9.47547 16.3217 8.857 16.3217 8.857L16.056 8.47515L15.7903 8.09331L14.6919 8.92197C13.4843 7.64574 11.5867 7.37182 10.0178 8.29871L9.7696 8.44538L9.52137 8.29871C9.17865 8.0962 8.81749 7.95107 8.44787 7.86355L10.0709 6.20642C10.5944 5.73955 11.2609 5.4805 11.9497 5.47575L14.3338 5.2723C15.1806 5.20003 16.0273 5.05276 16.8506 4.8346L20 4Z" fill="#0A79B8"/>
</svg>
