<svg width="22" height="22" viewBox="0 0 22 22" fill="none" xmlns="http://www.w3.org/2000/svg">
<path d="M18.7417 5H5.56916C4.99487 5 4.52765 5.45207 4.52765 6.00774V6.61764H19.7832V6.00774C19.7832 5.45207 19.316 5 18.7417 5ZM4.52765 7.80662H19.7832V10.2816H4.52765V7.80662Z" fill="#0A79B8"/>
<path d="M14.9767 11.4706H17.6934V12.886H14.9767V11.4706Z" fill="#0A79B8"/>
<path d="M19.7832 9.85294V13.6981C19.7832 14.2538 19.316 14.7059 18.7417 14.7059H5.56916C4.99487 14.7059 4.52765 14.2538 4.52765 13.6981V9.85294H19.7832ZM18.1114 10.6618H14.5587C14.3279 10.6618 14.1408 10.8428 14.1408 11.0662V13.2904C14.1408 13.5138 14.3279 13.6949 14.5587 13.6949H18.1114C18.3422 13.6949 18.5294 13.5138 18.5294 13.2904V11.0662C18.5294 10.8428 18.3422 10.6618 18.1114 10.6618Z" fill="#0A79B8"/>
<path d="M5.77537 15.5028C4.73849 15.5028 3.89793 14.6895 3.89793 13.6863C3.8506 9.49959 3.82693 7.40625 3.82693 7.40625C3.82693 7.40625 3.56878 7.42647 3.05247 7.46691C2.4763 7.46691 2.01372 7.75 2.00756 8.47793L2.00477 11.1066L2.00506 11.9154L2.0022 13.5331L2.00173 14.3419L2 15.6057C2 15.6057 2.01372 16 2.06038 16.1316C2.09148 16.2193 2.18299 16.4316 2.33491 16.7684C2.41561 16.8989 2.5154 17.0212 2.6396 17.1222C2.85744 17.2995 3.15778 17.3698 3.46317 17.3704L5.56119 17.375H16.4273C17.0043 17.375 17.4722 16.9223 17.4722 16.364L17.6074 15.6562C17.6074 15.4934 17.4709 15.3613 17.3026 15.3613L5.77537 15.5028Z" fill="#0A79B8"/>
<path d="M18.5654 5.28841H5.96174C5.32875 5.28841 4.81561 5.80155 4.81561 6.43454V13.4655C4.81561 14.0985 5.32875 14.6116 5.96174 14.6116H18.5654C19.1984 14.6116 19.7116 14.0985 19.7116 13.4655V6.43454C19.7116 5.80155 19.1984 5.28841 18.5654 5.28841Z" stroke="#0A79B8" stroke-width="0.576811"/>
</svg>
