<svg width="22" height="22" viewBox="0 0 22 22" fill="none" xmlns="http://www.w3.org/2000/svg">
<g clip-path="url(#clip0_5167_12585)">
<path fill-rule="evenodd" clip-rule="evenodd" d="M11 2.5C15.6944 2.5 19.5 6.30558 19.5 11C19.5 15.6944 15.6944 19.5 11 19.5C6.30558 19.5 2.5 15.6944 2.5 11C2.5 6.30558 6.30558 2.5 11 2.5ZM11 6.75C10.5599 6.75 10.2031 7.10677 10.2031 7.54688L10.203 10.203L7.54688 10.2031C7.10677 10.2031 6.75 10.5599 6.75 11C6.75 11.4401 7.10677 11.7969 7.54688 11.7969L10.203 11.796L10.2031 14.4531C10.2031 14.8932 10.5599 15.25 11 15.25C11.4401 15.25 11.7969 14.8932 11.7969 14.4531L11.796 11.796L14.4531 11.7969C14.8932 11.7969 15.25 11.4401 15.25 11C15.25 10.5599 14.8932 10.2031 14.4531 10.2031L11.796 10.203L11.7969 7.54688C11.7969 7.10677 11.4401 6.75 11 6.75Z" fill="#0A79B8"/>
</g>
<defs>
<clipPath id="clip0_5167_12585">
<rect width="22" height="22" fill="white"/>
</clipPath>
</defs>
</svg>
