<svg width="22" height="22" viewBox="0 0 22 22" fill="none" xmlns="http://www.w3.org/2000/svg">
<g clip-path="url(#clip0_5167_13037)">
<path d="M16.2628 9.3359L15.0781 5.06534C14.897 4.43165 14.3914 4 13.8103 4H8.28646C7.7054 4 7.1998 4.43165 7.01869 5.06534L5.83392 9.3359C5.72828 9.69408 5.75092 10.089 5.88675 10.4288C5.91693 10.5115 5.95466 10.5941 5.99994 10.6768C6.24897 11.0992 6.65647 11.3472 7.1017 11.3472H14.9951C15.4403 11.3472 15.8478 11.0992 16.0968 10.6768C16.1421 10.5941 16.1798 10.5115 16.21 10.4288C16.3459 10.089 16.3685 9.69408 16.2628 9.3359ZM9.62969 7.2144L9.13164 9.04201C9.05618 9.32672 8.82979 9.5104 8.59585 9.5104C8.53548 9.5104 8.47511 9.50121 8.42229 9.47366C8.12044 9.35427 7.96197 8.96854 8.06007 8.60118L8.67886 6.30518C8.75432 6.02966 8.97317 5.8368 9.22219 5.8368H11.9917C12.3011 5.8368 12.5576 6.14905 12.5576 6.5256C12.5576 6.90214 12.3011 7.2144 11.9917 7.2144H9.62969Z" fill="#0A79B8"/>
<path d="M11.7502 15.7739L10.656 11.5125C10.6409 11.4574 10.6258 11.4023 10.6032 11.3472C10.407 10.8053 9.94667 10.4288 9.44862 10.4288H4.36245C3.81157 10.4288 3.31352 10.8788 3.15505 11.5125L2.05329 15.7831C1.9401 16.2514 2.00801 16.7566 2.24949 17.1515C2.49097 17.5464 2.86829 17.776 3.27579 17.776H10.5353C10.9428 17.776 11.3201 17.5464 11.5616 17.1515C11.8031 16.7566 11.871 16.2514 11.7502 15.7739ZM8.21858 13.6432H5.8566L5.35855 15.4708C5.28309 15.7555 5.0567 15.9392 4.82277 15.9392C4.7624 15.9392 4.70203 15.93 4.6492 15.9024C4.34735 15.7831 4.18888 15.3973 4.28698 15.03L4.90578 12.734C4.98124 12.4584 5.20008 12.2656 5.44911 12.2656H8.21858C8.52798 12.2656 8.78455 12.5778 8.78455 12.9544C8.78455 13.3309 8.52798 13.6432 8.21858 13.6432Z" fill="#0A79B8"/>
<path d="M18.8285 17.776H12.5726C12.8745 17.2158 12.9952 16.5545 12.9273 15.8841C12.9349 15.8933 12.9424 15.9024 12.9499 15.9024C13.0028 15.93 13.0631 15.9392 13.1235 15.9392C13.3574 15.9392 13.5838 15.7555 13.6593 15.4708L14.1573 13.6432H16.5193C16.8287 13.6432 17.0853 13.3309 17.0853 12.9544C17.0853 12.5778 16.8287 12.2656 16.5193 12.2656H13.7498C13.5008 12.2656 13.282 12.4584 13.2065 12.734L12.6707 14.7177L11.8029 11.3472L11.7425 11.1176C11.7275 11.0717 11.7199 11.0166 11.6973 10.9706C11.9312 10.6308 12.2783 10.4288 12.6556 10.4288H17.7418C18.2927 10.4288 18.7907 10.8696 18.9568 11.5125L20.051 15.7739C20.1642 16.2606 20.0962 16.7566 19.8472 17.1515C19.6057 17.5464 19.236 17.776 18.8285 17.776Z" fill="#0A79B8"/>
</g>
<defs>
<clipPath id="clip0_5167_13037">
<rect width="22" height="22" fill="white"/>
</clipPath>
</defs>
</svg>
