<svg width="22" height="22" viewBox="0 0 22 22" fill="none" xmlns="http://www.w3.org/2000/svg">
<path fill-rule="evenodd" clip-rule="evenodd" d="M9.19955 20C10.1936 20 10.9994 19.1941 10.9994 18.2H7.39966C7.39966 19.1941 8.2055 20 9.19955 20ZM10.0995 2.45C10.0995 2.20147 9.89804 2 9.64953 2H8.74958C8.50107 2 8.29961 2.20147 8.29961 2.45V3.8H7.84964C6.99985 3.8 6.19965 4.20012 5.68977 4.88L4.87982 5.96C4.17883 6.89472 3.79989 8.0316 3.79989 9.2V11.684C3.79926 12.3998 3.5144 13.0861 3.00794 13.592L2.26098 14.339C2.09472 14.5066 2.00099 14.7329 2 14.969V15.5C2 15.9971 2.40292 16.4 2.89994 16.4L10.0486 16.4008C8.78753 15.1979 8 13.4898 8 11.595C8 8.4975 10.1047 5.89876 12.9422 5.19062L12.7093 4.88C12.1995 4.20012 11.3993 3.8 10.5495 3.8H10.0995V2.45ZM20 11.58C20 8.49825 17.5376 6 14.5 6C11.4624 6 9 8.49825 9 11.58C9 14.6617 11.4624 17.16 14.5 17.16C17.5376 17.16 20 14.6617 20 11.58ZM13.8753 8.2H15.2747C15.3135 8.2 15.3482 8.21352 15.3788 8.24056C15.4093 8.26761 15.4301 8.30276 15.4412 8.34603L15.5662 9.23035C15.7827 9.31148 15.9799 9.42236 16.1576 9.56298L17.0155 9.23035C17.0599 9.21412 17.1001 9.21142 17.1362 9.22224C17.1723 9.23305 17.2015 9.25739 17.2237 9.29525L17.9233 10.4635C17.9456 10.5014 17.9539 10.5419 17.9483 10.5852C17.9428 10.6285 17.9233 10.6636 17.89 10.6907L17.1654 11.2424C17.1765 11.3181 17.182 11.429 17.182 11.575C17.182 11.721 17.1765 11.8319 17.1654 11.9076L17.89 12.4593C17.9233 12.4864 17.9428 12.5215 17.9483 12.5648C17.9539 12.6081 17.9456 12.6486 17.9233 12.6865L17.2237 13.8547C17.2015 13.8926 17.1723 13.9169 17.1362 13.9278C17.1001 13.9386 17.0599 13.9359 17.0155 13.9197L16.1576 13.587C15.9354 13.7439 15.7383 13.8547 15.5662 13.9197L15.4412 14.804C15.4301 14.8472 15.4093 14.8824 15.3788 14.9094C15.3482 14.9365 15.3135 14.95 15.2747 14.95H13.8753C13.8365 14.95 13.8018 14.9365 13.7712 14.9094C13.7407 14.8824 13.7226 14.8472 13.7171 14.804L13.5838 13.9197C13.3506 13.8277 13.1563 13.7168 13.0008 13.587L12.1345 13.9197C12.0457 13.9575 11.9763 13.9359 11.9263 13.8547L11.2267 12.6865C11.2044 12.6486 11.1961 12.6081 11.2017 12.5648C11.2072 12.5215 11.2267 12.4864 11.26 12.4593L11.9929 11.9076C11.9818 11.8319 11.9763 11.721 11.9763 11.575C11.9763 11.429 11.9818 11.3181 11.9929 11.2424L11.26 10.6907C11.2267 10.6636 11.2072 10.6285 11.2017 10.5852C11.1961 10.5419 11.2044 10.5014 11.2267 10.4635L11.9263 9.29525C11.9763 9.21412 12.0457 9.19249 12.1345 9.23035L13.0008 9.56298C13.2007 9.41695 13.395 9.30607 13.5838 9.23035L13.7171 8.34603C13.7226 8.30276 13.7407 8.26761 13.7712 8.24056C13.8018 8.21352 13.8365 8.2 13.8753 8.2ZM15.183 10.5447C14.9942 10.4365 14.7916 10.3824 14.575 10.3824C14.3584 10.3824 14.1572 10.4365 13.9711 10.5447C13.7851 10.6528 13.6366 10.7989 13.5255 10.9828C13.4145 11.1666 13.3589 11.3641 13.3589 11.575C13.3589 11.7859 13.4145 11.982 13.5255 12.1632C13.6366 12.3444 13.7851 12.4891 13.9711 12.5972C14.1572 12.7054 14.3584 12.7595 14.575 12.7595C14.7916 12.7595 14.9942 12.7054 15.183 12.5972C15.3718 12.4891 15.5218 12.3444 15.6328 12.1632C15.7439 11.982 15.7994 11.7859 15.7994 11.575C15.7994 11.3641 15.7439 11.1666 15.6328 10.9828C15.5218 10.7989 15.3718 10.6528 15.183 10.5447Z" fill="#0A79B8"/>
</svg>
