<svg width="22" height="22" viewBox="0 0 22 22" fill="none" xmlns="http://www.w3.org/2000/svg">
<g clip-path="url(#clip0_5167_12609)">
<path d="M16 8V9.2C16.6667 9.86667 17 10.5333 17 11.2L17.0005 12.9051C15.094 11.7742 12.5879 12.0277 10.9502 13.6654C9.22929 15.3863 9.03684 18.0659 10.3728 20.0012L6 20C4.66667 20 4 19.3333 4 18V11.2C4 10.5333 4.33333 9.86667 5 9.2V8H16ZM16.0896 5.80982C16.3 5.80982 16.4706 5.98037 16.4706 6.19076V6.95265C16.4706 7.16304 16.3 7.33359 16.0896 7.33359H4.85152C4.64113 7.33359 4.47058 7.16304 4.47058 6.95265V6.19076C4.47058 5.98037 4.64113 5.80982 4.85152 5.80982H16.0896ZM8.70292 2.01875C9.64638 1.88639 10.5435 2.46684 10.8059 3.3794C10.8048 3.39014 10.8075 3.40094 10.8135 3.40988C10.8584 3.57119 10.8815 3.73772 10.8824 3.9051C10.8843 4.31878 10.747 4.72115 10.4924 5.04793H7.44886C7.19426 4.72115 7.05695 4.31878 7.05884 3.9051C7.05809 2.95584 7.75945 2.15112 8.70292 2.01875ZM12.0294 3.52416C12.938 3.52398 13.7212 4.16097 13.9029 5.04793H11.3871C11.5576 4.69088 11.6464 4.30053 11.6471 3.9051C11.6468 3.79298 11.6391 3.681 11.6241 3.56987C11.7571 3.53964 11.893 3.52431 12.0294 3.52416Z" fill="#0A79B8"/>
<path d="M17.3192 14.3243C15.7449 12.75 13.1832 12.75 11.6089 14.3243C10.0347 15.8985 10.0347 18.4602 11.6089 20.0345C13.1832 21.6088 15.7449 21.6088 17.3192 20.0345C18.8934 18.4602 18.8934 15.8985 17.3192 14.3243ZM15.0851 18.9364C15.0851 19.2799 14.8075 19.5575 14.464 19.5575C14.2927 19.5575 14.1372 19.4881 14.0247 19.3756C13.9123 19.2632 13.8429 19.1077 13.8429 18.9364V17.8005H12.707C12.5357 17.8005 12.3802 17.7311 12.2677 17.6186C12.1553 17.5062 12.0859 17.3507 12.0859 17.1794C12.0859 16.8359 12.3635 16.5583 12.707 16.5583H13.8429V15.4224C13.8429 15.0789 14.1205 14.8013 14.464 14.8013C14.8075 14.8013 15.0851 15.0789 15.0851 15.4224V16.5583H16.221C16.5645 16.5583 16.8421 16.8359 16.8421 17.1794C16.8421 17.5229 16.5645 17.8005 16.221 17.8005H15.0851V18.9364Z" fill="#0A79B8"/>
</g>
<defs>
<clipPath id="clip0_5167_12609">
<rect width="22" height="22" fill="white"/>
</clipPath>
</defs>
</svg>
