<svg width="22" height="22" viewBox="0 0 22 22" fill="none" xmlns="http://www.w3.org/2000/svg">
<path d="M17.7064 11.3922C18.2336 10.8602 19.0822 10.8602 19.6094 11.3922C20.1302 11.9308 20.1302 12.8043 19.6094 13.3363L18.2747 14.6998L15.064 17.9798C14.9933 18.052 14.9033 18.098 14.8069 18.1111L13.3346 18.3673C13.0067 18.4264 12.7302 18.1374 12.7817 17.8024L13.0324 16.2984C13.0453 16.1999 13.0967 16.1079 13.1674 16.0357L16.3717 12.7564L17.7064 11.3922ZM17.2499 6C18.105 6 18.7994 6.70933 18.8 7.58285V9.82446C18.7524 9.82184 18.7068 9.81067 18.6586 9.81067C17.9931 9.81067 17.3669 10.074 16.8886 10.5561L16.3717 11.0842L15.7282 11.7416L15.5533 11.9203L12.3529 15.1963C12.0976 15.4551 11.9317 15.79 11.8919 16.0994L11.8411 16.4035H3.55585C2.69435 16.4035 2 15.6942 2 14.8206V7.58285C2 6.70933 2.69435 6 3.55585 6H17.2499ZM6.63646 8.5875H5.64381V10.1704L4.925 10.5302V11.0658L5.64381 10.7141V11.2177L4.925 11.5695V12.1051L5.64381 11.7534V13.768C6.13443 13.7787 6.58084 13.7427 6.98303 13.6601C7.38522 13.5775 7.72752 13.4496 8.00991 13.2763C8.2923 13.1031 8.51051 12.8846 8.66454 12.6208C8.81857 12.357 8.89559 12.0492 8.89559 11.6974C8.89559 11.5695 8.87562 11.4229 8.83569 11.2577L8.01419 11.4496C8.0313 11.5135 8.04128 11.5682 8.04414 11.6135C8.04699 11.6588 8.04842 11.7001 8.04842 11.7374C8.04842 11.9133 8.00706 12.0705 7.92433 12.2091C7.84161 12.3476 7.73465 12.4676 7.60344 12.5688C7.47222 12.6701 7.32104 12.7487 7.1499 12.8047C6.97875 12.8606 6.80761 12.8939 6.63646 12.9046V11.2977L7.96284 10.6421V10.1065L6.63646 10.762V10.2584L7.96284 9.60282V9.06718L6.63646 9.72274V8.5875ZM12.4409 11.8053H10.9494C10.6298 11.8053 10.3707 12.07 10.3707 12.3964C10.3707 12.7229 10.6298 12.9875 10.9494 12.9875H12.4409C12.7605 12.9875 13.0196 12.7229 13.0196 12.3964C13.0196 12.07 12.7605 11.8053 12.4409 11.8053ZM14.785 9.41726H10.9507C10.6311 9.41726 10.372 9.68194 10.372 10.0084C10.372 10.3348 10.6311 10.5995 10.9507 10.5995H14.785C15.1045 10.5995 15.3636 10.3348 15.3636 10.0084C15.3636 9.68194 15.1045 9.41726 14.785 9.41726Z" fill="#0A79B8"/>
</svg>
