<svg width="22" height="22" viewBox="0 0 22 22" fill="none" xmlns="http://www.w3.org/2000/svg">
<path d="M6.5 3C5.67157 3 5 3.67156 5 4.49997V18.4997C5.00018 18.6916 5.1102 18.8665 5.28314 18.9497C5.45608 19.033 5.6614 19.0099 5.81152 18.8903L6.75293 18.1403L7.69336 18.8903C7.87584 19.036 8.1349 19.036 8.31738 18.8903L9.25488 18.1403L10.1934 18.8903C10.376 19.0366 10.6357 19.0366 10.8184 18.8903L11.7549 18.1403L12.6914 18.8903C12.8741 19.0366 13.1337 19.0366 13.3164 18.8903L14.251 18.1403L15.1875 18.8903C15.3376 19.0105 15.5433 19.0339 15.7166 18.9506C15.89 18.8673 16.0001 18.692 16 18.4997V4.49997C16 3.67156 16.6716 3 17.5 3H6.5ZM17.5 3.99998C17.2239 3.99998 17 4.22383 17 4.49998V11.9998H17.5C17.7761 11.9998 18 11.776 18 11.4998V4.49998C18 4.22383 17.7761 3.99998 17.5 3.99998ZM7.38056 6.0001C7.38587 5.99996 7.39118 5.99996 7.39649 6.0001H13.6116C13.8261 6.0001 14 6.22392 14 6.5C14 6.77608 13.8261 6.99989 13.6116 6.99989H7.39649C7.18196 7.00555 7.00448 6.78633 7.00008 6.51025C6.99568 6.23417 7.16603 6.00577 7.38056 6.0001ZM7.48913 8.0001C7.49595 7.99996 7.50278 7.99996 7.50961 8.0001H13.5007C13.7765 8.0001 14 8.22392 14 8.5C14 8.77608 13.7765 8.99989 13.5007 8.99989H7.50961C7.23387 9.00556 7.00576 8.78633 7.00011 8.51025C6.99445 8.23417 7.2134 8.00577 7.48913 8.0001ZM7.48913 10.0001C7.49595 9.99996 7.50278 9.99996 7.50961 10.0001H13.5007C13.7765 10.0001 14 10.2239 14 10.5C14 10.7761 13.7765 10.9999 13.5007 10.9999H7.50961C7.23387 11.0056 7.00576 10.7863 7.00011 10.5103C6.99445 10.2342 7.2134 10.0058 7.48913 10.0001ZM7.2795 12.0001C7.2834 12 7.2873 12 7.2912 12.0001H10.7147C10.8723 12.0001 11 12.2239 11 12.5C11 12.7761 10.8723 12.9999 10.7147 12.9999H7.2912C7.13364 13.0056 7.00329 12.7863 7.00006 12.5103C6.99683 12.2342 7.12194 12.0058 7.2795 12.0001Z" fill="#0A79B8"/>
</svg>
