<svg width="22" height="22" viewBox="0 0 22 22" fill="none" xmlns="http://www.w3.org/2000/svg">
<g clip-path="url(#clip0_5167_12603)">
<path d="M6.53787 12.5605L6.33912 13.599C6.33912 13.7719 6.4252 13.8584 6.59737 13.8584C6.65022 13.8584 6.73978 13.845 6.86574 13.8187C6.99169 13.7916 7.12081 13.7751 7.25342 13.7687C7.3857 13.7617 7.50185 13.7687 7.60122 13.7885C7.7006 13.8085 7.75028 13.8584 7.75028 13.9382C7.75028 14.018 7.69711 14.088 7.59141 14.1481C7.48508 14.2078 7.35944 14.2577 7.21354 14.2978C7.06765 14.3376 6.92555 14.3678 6.7863 14.3878C6.64705 14.4075 6.54451 14.4177 6.47837 14.4177C6.38533 14.4177 6.31918 14.4507 6.27962 14.5175C6.23975 14.584 6.22298 14.6571 6.22962 14.7372C6.23627 14.817 6.26602 14.8867 6.31918 14.9467C6.37204 15.0065 6.45147 15.0367 6.55749 15.0367C6.69009 15.0367 6.85909 15.0167 7.06448 14.9766C7.26987 14.9369 7.4721 14.8733 7.67085 14.7868C7.86959 14.7003 8.04144 14.5875 8.18765 14.4476C8.33323 14.3077 8.40602 14.1379 8.40602 13.9382C8.40602 13.7519 8.36298 13.6053 8.2769 13.4991C8.19081 13.3923 8.07815 13.3125 7.93922 13.2594C7.79997 13.206 7.64743 13.1761 7.48191 13.1697C7.31608 13.1627 7.16702 13.1726 7.03473 13.1996L7.17398 12.5802C7.50501 12.5539 7.81642 12.4677 8.1079 12.3208C8.39937 12.1745 8.65761 11.9882 8.88326 11.7618C9.10827 11.5355 9.2874 11.2693 9.41968 10.9632C9.55197 10.657 9.61875 10.3308 9.61875 9.98451C9.61875 9.62522 9.53583 9.36896 9.37031 9.2157C9.20448 9.06277 9.03548 8.98614 8.86332 8.98614C8.66458 8.98614 8.469 9.03288 8.2769 9.12572C8.0848 9.2192 7.98859 9.38549 7.98859 9.62522C7.98859 9.79819 8.0715 9.96161 8.23734 10.1142C8.40285 10.2675 8.6247 10.3638 8.9032 10.4039C8.79686 10.8566 8.57185 11.2293 8.22721 11.5221C7.88257 11.8149 7.4721 11.9615 6.99486 11.9615C6.62363 11.9615 6.31918 11.8251 6.08056 11.552C5.84226 11.2795 5.65649 10.9498 5.5242 10.5635C5.3916 10.1775 5.29855 9.77847 5.2457 9.36546C5.19285 8.95308 5.16658 8.60651 5.16658 8.32703C5.16658 7.91465 5.1995 7.50545 5.26564 7.09911C5.33178 6.69309 5.42799 6.33031 5.55395 6.01077C5.67991 5.69123 5.83245 5.43179 6.01094 5.23211C6.19006 5.03244 6.39197 4.93229 6.6173 4.93229C6.92207 4.91925 7.15056 4.97871 7.3031 5.11066C7.45533 5.24261 7.56135 5.4108 7.62116 5.61556C7.68066 5.82 7.71072 6.04098 7.71072 6.27849C7.71072 6.51631 7.70376 6.73411 7.69078 6.93187C7.69078 7.09021 7.79649 7.18273 8.00852 7.20881C8.51204 7.20881 8.88991 7.07908 9.14182 6.81932C9.3931 6.55987 9.51906 6.27721 9.51906 5.97071C9.51906 5.63814 9.41652 5.35866 9.21113 5.13228C9.00542 4.9059 8.75382 4.72975 8.45602 4.60289C8.1579 4.47667 7.83984 4.38669 7.50185 4.33359C7.16385 4.28049 6.8689 4.25347 6.6173 4.25347C6.02107 4.25347 5.4973 4.37047 5.04727 4.60385C4.59661 4.83722 4.21874 5.14786 3.91398 5.53448C3.60921 5.92143 3.38072 6.36211 3.22849 6.85556C3.07595 7.34966 3 7.85011 3 8.35692C3 8.91747 3.0826 9.44113 3.24843 9.92855C3.41395 10.4153 3.64909 10.8455 3.95385 11.2194C4.25862 11.5933 4.62984 11.897 5.06721 12.13C5.50426 12.3637 5.99448 12.5071 6.53787 12.5605ZM16.7837 8.39768C16.7505 8.65141 16.7008 8.92484 16.6347 9.21863C16.5682 9.51241 16.4888 9.80938 16.396 10.1095C16.3033 10.4103 16.1875 10.6837 16.0482 10.9308C15.9093 11.1782 15.7533 11.3813 15.5811 11.5416C15.409 11.7018 15.2165 11.7816 15.0048 11.7816C14.6203 11.7816 14.3355 11.7047 14.1503 11.5502C13.9646 11.3959 13.8253 11.2382 13.7326 11.0767C13.9317 10.9832 14.1203 10.822 14.2991 10.5938C14.4782 10.3655 14.5678 10.1375 14.5678 9.9089C14.5678 9.74802 14.5146 9.61734 14.4086 9.51655C14.3023 9.41607 14.17 9.36552 14.0111 9.36552C13.6797 9.36552 13.4212 9.47871 13.2361 9.70509V7.12906C13.2361 7.10236 13.2658 6.96278 13.3253 6.70969C13.3851 6.45692 13.4943 6.1873 13.6532 5.90083C13.8124 5.61499 14.0276 5.35173 14.2991 5.11231C14.5706 4.87258 14.9184 4.75271 15.3428 4.75271C15.621 4.75271 15.8527 4.8465 16.0384 5.03314C16.2239 5.2201 16.3761 5.46046 16.4954 5.75393C16.6147 6.04772 16.7008 6.37489 16.754 6.73513C16.8068 7.096 16.8334 7.45623 16.8334 7.81679C16.8334 7.95033 16.8166 8.14396 16.7837 8.39768ZM18.7516 6.44611C18.5857 5.97236 18.3439 5.55871 18.0259 5.20483C17.7078 4.85127 17.3236 4.57466 16.8733 4.37435C16.4226 4.17404 15.9125 4.07389 15.3428 4.07389C14.8523 4.07389 14.4383 4.19344 14.1003 4.43317C13.7627 4.6729 13.481 4.95938 13.2557 5.29195C13.269 4.44017 13.3022 3.64656 13.3554 2.91146C13.4079 2.17636 13.4674 1.37799 13.5339 0.516668C13.5339 0.304914 13.4376 0.165652 13.2459 0.0995182C13.0534 0.0333847 12.8712 0 12.6993 0C12.4075 0 12.0929 0.0368821 11.7549 0.110011C11.4173 0.183457 11.0758 0.273119 10.7315 0.379632C10.5989 0.419375 10.5327 0.506176 10.5327 0.639079C10.5327 0.852423 10.6387 0.958618 10.8508 0.958618C10.9169 0.958618 10.9865 0.952259 11.0597 0.938905C11.1321 0.925551 11.2018 0.905838 11.2682 0.878812C11.2413 1.27816 11.2185 1.7643 11.1986 2.33661C11.1786 2.90892 11.1619 3.52447 11.1489 4.18358C11.1356 4.84269 11.129 5.53137 11.129 6.25057C11.129 6.96914 11.1258 7.67498 11.1192 8.36716C11.1122 9.05934 11.109 9.72194 11.109 10.354V12.0214C11.0426 12.0347 10.9733 12.0414 10.9005 12.0414H10.7115C10.6188 12.0414 10.5492 12.0748 10.503 12.1412C10.4565 12.208 10.4334 12.2744 10.4334 12.3409C10.4334 12.4741 10.4663 12.5641 10.5327 12.6105C10.5989 12.6573 10.6783 12.6805 10.771 12.6805C11.1157 12.6805 11.4768 12.6738 11.8543 12.6604C12.2322 12.6471 12.6063 12.6204 12.9775 12.5803C13.0569 12.5673 13.1266 12.5307 13.186 12.4706C13.2459 12.4108 13.269 12.3409 13.2557 12.2608V11.5021C13.4012 11.7552 13.6199 11.9683 13.9117 12.1412C14.2029 12.3142 14.5678 12.4007 15.0048 12.4007C15.6144 12.4007 16.1676 12.2706 16.6644 12.0105C17.1613 11.7501 17.5819 11.4131 17.9265 10.9995C18.2712 10.5858 18.536 10.1156 18.7218 9.5884C18.907 9.06124 19 8.5309 19 7.99707C19 7.43684 18.9171 6.91954 18.7516 6.44611ZM17.4458 16.3021C17.3746 16.2385 17.2961 16.2061 17.211 16.2061C17.097 16.2061 17.011 16.2487 16.9546 16.3345C16.897 16.421 16.8616 16.5205 16.8477 16.635C16.8337 16.7495 16.8293 16.8674 16.8372 16.9895C16.8442 17.111 16.8616 17.2149 16.8901 17.3008C15.4772 18.145 13.9388 17.3639 11.2624 17.3643C7.74912 17.3649 6.363 17.9299 5.13747 17.2579V16.8719C5.13747 16.7711 5.10424 16.6925 5.03841 16.635C4.97227 16.5781 4.89473 16.5425 4.80707 16.5275C4.71814 16.5135 4.63396 16.531 4.55294 16.5816C4.47224 16.6315 4.4254 16.7135 4.41053 16.828L4.56338 19.9843C4.56338 20.1137 4.6001 20.2132 4.6732 20.2847C4.74599 20.3566 4.82701 20.3922 4.91467 20.3922C5.0017 20.3922 5.08272 20.3636 5.15582 20.3067C5.22861 20.2491 5.26532 20.1633 5.26532 20.0491V19.4908C5.7913 19.4759 8.26709 21.3333 11.1815 21.3333C13.8532 21.3333 17.1135 18.3828 17.1429 18.9195C17.1499 19.0441 17.0939 19.3318 17.0989 19.4422C17.1119 19.7223 17.2724 19.8072 17.3195 19.8135C17.504 19.8135 17.5528 19.7013 17.6388 19.5649C17.724 19.4288 17.524 16.7565 17.5528 16.5275C17.5528 16.442 17.517 16.3666 17.4458 16.3021Z" fill="#0A79B8"/>
</g>
<defs>
<clipPath id="clip0_5167_12603">
<rect width="22" height="22" fill="white"/>
</clipPath>
</defs>
</svg>
