<svg width="22" height="22" viewBox="0 0 22 22" fill="none" xmlns="http://www.w3.org/2000/svg">
<path d="M11 2C15.95 2 20 6.05 20 11C20 15.95 15.95 20 11 20C6.05 20 2 15.95 2 11C2 6.05 6.05 2 11 2ZM11 14.75C10.55 14.75 10.25 15.05 10.25 15.5C10.25 15.95 10.55 16.25 11 16.25C11.45 16.25 11.75 15.95 11.75 15.5C11.75 15.05 11.45 14.75 11 14.75ZM11 5.75C9.35 5.75 8 7.1 8 8.75C8 9.2 8.3 9.5 8.75 9.5C9.2 9.5 9.5 9.2 9.5 8.75C9.5 7.925 10.175 7.25 11 7.25C11.825 7.25 12.5 7.925 12.5 8.75C12.5 9.575 11.825 10.25 11 10.25C10.55 10.25 10.25 10.55 10.25 11V13.25C10.25 13.7 10.55 14 11 14C11.45 14 11.75 13.7 11.75 13.25V11.675C13.025 11.3 14 10.175 14 8.75C14 7.1 12.65 5.75 11 5.75Z" fill="#0A79B8"/>
</svg>
