<svg width="22" height="22" viewBox="0 0 22 22" fill="none" xmlns="http://www.w3.org/2000/svg">
<path d="M15.1847 7.10216C18.7464 7.10216 21.6336 9.98944 21.6336 13.5511C21.6336 17.1127 18.7464 20 15.1847 20C11.6231 20 8.73581 17.1127 8.73581 13.5511C8.73581 9.98944 11.6231 7.10216 15.1847 7.10216ZM12.9712 10.7593C12.378 10.7593 11.8964 11.2356 11.8964 11.8225V15.4782C11.8964 16.1962 12.4784 16.7782 13.1964 16.7782H17.0453C17.7633 16.7782 18.3453 16.1962 18.3453 15.4782V13.1805C18.3453 12.4625 17.7633 11.8805 17.0453 11.8805H13.8629C13.5533 11.8805 13.3023 11.6295 13.3023 11.3199V11.0903C13.3023 10.9303 13.1888 10.7968 13.038 10.766L12.9712 10.7593ZM7.35435 14.2114C7.4633 15.083 7.72683 15.9065 8.11665 16.6536L1.8 16.6535C1.35817 16.6535 1 16.2953 1 15.8535V15.0113C1 14.5695 1.35817 14.2113 1.8 14.2113L7.35435 14.2114ZM17.0653 14.0555C17.3072 14.0555 17.505 14.2512 17.505 14.4905C17.505 14.7297 17.3072 14.9254 17.0653 14.9254C16.8235 14.9254 16.6256 14.7297 16.6256 14.4905C16.6256 14.2512 16.8235 14.0555 17.0653 14.0555ZM8.55588 2.13089L15.0011 4.84667C15.2977 4.97162 15.4905 5.2621 15.4905 5.5839L15.4908 6.10741C15.1838 6.06779 14.8708 6.04735 14.553 6.04735C12.5781 6.04735 10.7875 6.83642 9.47933 8.11648C9.12143 8.17534 8.84895 8.48601 8.84895 8.86033L8.85144 8.81548C8.32117 9.48837 7.90746 10.2574 7.64077 11.0922L7.64153 8.86033C7.64153 8.44348 7.30361 8.10555 6.88676 8.10555C6.46991 8.10555 6.13199 8.44348 6.13199 8.86033V12.3864C6.13199 12.7198 5.8617 12.9901 5.52828 12.9901C5.19486 12.9901 4.92457 12.7198 4.92457 12.3864V8.86033C4.92457 8.44348 4.58664 8.10555 4.16979 8.10555C3.75294 8.10555 3.41502 8.44348 3.41502 8.86033V12.3864C3.41502 12.7198 3.14473 12.9901 2.81131 12.9901C2.47789 12.9901 2.2076 12.7198 2.2076 12.3864V8.70954C2.2076 8.40942 1.98863 8.16044 1.70174 8.11364L1.50586 8.09784C1.21897 8.05104 1 7.80206 1 7.50194V5.5839C1 5.2621 1.19281 4.97162 1.48936 4.84667L7.93461 2.13089C8.13324 2.04719 8.35725 2.04719 8.55588 2.13089ZM14.132 10.7593C13.8483 10.7593 13.6161 11.0172 13.6161 11.3325V11.6191H14.9059V11.5331C14.9059 11.1057 14.5594 10.7593 14.132 10.7593ZM16.6256 10.3293C15.9133 10.3293 15.3358 10.9068 15.3358 11.6191H17.9154L17.9087 11.4872C17.8427 10.8369 17.2934 10.3293 16.6256 10.3293ZM8.24524 4.44218C7.74514 4.44218 7.33959 4.85193 7.33959 5.35803C7.33959 5.8643 7.74514 6.27387 8.24524 6.27387C8.74535 6.27387 9.1509 5.8643 9.1509 5.35803C9.1509 4.85175 8.74535 4.44218 8.24524 4.44218Z" fill="#0A79B8"/>
</svg>
