<svg width="22" height="22" viewBox="0 0 22 22" fill="none" xmlns="http://www.w3.org/2000/svg">
<path d="M15.0617 7.27069C18.3413 7.27069 21 10.0079 21 13.3845C21 16.761 18.3413 19.4982 15.0617 19.4982C11.782 19.4982 9.12334 16.761 9.12334 13.3845C9.12334 10.0079 11.782 7.27069 15.0617 7.27069ZM16.9171 12.8649C16.8179 12.9228 16.7546 13.0453 16.7543 13.18V14.2301H14.4686C14.3108 14.2301 14.1829 14.3868 14.1829 14.5801V15.2802C14.1829 15.4735 14.3108 15.6303 14.4686 15.6303H16.7543V16.6804C16.7544 16.8178 16.8202 16.9424 16.9224 16.9989C17.0246 17.0555 17.1443 17.0336 17.2286 16.9429L18.9429 15.1122C18.9891 15.0624 19.0206 14.9962 19.0334 14.9238L19.04 14.8497C19.0379 14.7456 18.9981 14.6481 18.9314 14.5836L17.2171 12.9139C17.133 12.8287 17.0166 12.8097 16.9171 12.8649ZM7.85129 14.0108C7.95163 14.8369 8.19426 15.6174 8.55312 16.3256L2.73666 16.3256C2.32981 16.3256 2 15.9958 2 15.589V14.747C2 14.3402 2.32981 14.0104 2.73666 14.0104L7.85129 14.0108ZM12.8514 10.1171L11.1371 11.9478C11.0909 11.9976 11.0594 12.0638 11.0466 12.1362L11.04 12.2103C11.0421 12.3144 11.0819 12.4119 11.1486 12.4764L12.8629 14.1461C12.947 14.2313 13.0634 14.2503 13.1629 14.1951C13.2621 14.1372 13.3254 14.0147 13.3257 13.88V12.8299H15.6114C15.7692 12.8299 15.8971 12.6732 15.8971 12.4799V11.7798C15.8971 11.5865 15.7692 11.4297 15.6114 11.4297H13.3257V10.3796C13.3256 10.2422 13.2598 10.1176 13.1576 10.0611C13.0554 10.0045 12.9357 10.0264 12.8514 10.1171ZM8.96478 2.56085L14.8997 5.1355C15.169 5.25231 15.3432 5.51781 15.3432 5.81131L15.3436 6.32764C15.0609 6.29007 14.7726 6.27069 14.4799 6.27069C12.6615 6.27069 11.0128 7.01865 9.80824 8.23204C9.47865 8.28595 9.22752 8.57212 9.22752 8.91695L9.22855 8.89661C8.7409 9.53409 8.36041 10.2625 8.11505 11.0531L8.1157 8.91695C8.1157 8.5331 7.80453 8.22193 7.42068 8.22193C7.03684 8.22193 6.72567 8.5331 6.72567 8.91695V12.2967C6.72567 12.6038 6.47678 12.8527 6.16976 12.8527C5.86274 12.8527 5.61384 12.6038 5.61384 12.2967V8.91695C5.61384 8.5331 5.30268 8.22193 4.91883 8.22193C4.53498 8.22193 4.22381 8.5331 4.22381 8.91695V12.2967C4.22381 12.6038 3.97492 12.8527 3.6679 12.8527C3.36088 12.8527 3.11199 12.6038 3.11199 12.2967V8.7781C3.11199 8.47104 2.86306 8.22211 2.556 8.22211C2.24893 8.22211 2 7.97318 2 7.66611V5.81131C2 5.51781 2.17423 5.25231 2.44349 5.1355L8.37844 2.56085C8.56547 2.47972 8.77776 2.47972 8.96478 2.56085ZM8.67161 4.74894C8.2111 4.74894 7.83766 5.13739 7.83766 5.61719C7.83766 6.09716 8.2111 6.48544 8.67161 6.48544C9.13212 6.48544 9.50556 6.09716 9.50556 5.61719C9.50556 5.13722 9.13212 4.74894 8.67161 4.74894Z" fill="#0A79B8"/>
</svg>
