<svg width="22" height="22" viewBox="0 0 22 22" fill="none" xmlns="http://www.w3.org/2000/svg">
<g clip-path="url(#clip0_5167_12806)">
<path d="M18.1584 8.26449C18.8495 8.26449 19.4098 8.82475 19.4098 9.51587V17.8788C19.4098 18.57 18.8495 19.1302 18.1584 19.1302H13.3163C12.6252 19.1302 12.065 18.57 12.065 17.8788V9.51587C12.065 8.82475 12.6252 8.26449 13.3163 8.26449H18.1584ZM18.0107 17.7913H13.3496C13.1993 17.7913 13.0775 17.9131 13.0775 18.0634C13.0775 18.2136 13.1993 18.3354 13.3496 18.3354H18.0107C18.161 18.3354 18.2827 18.2136 18.2827 18.0634C18.2827 17.9131 18.161 17.7913 18.0107 17.7913ZM10.886 14.6629L10.913 17.0089L3.24645 17.0094C2.8342 17.0094 2.5 16.6753 2.5 16.263V15.4099C2.5 14.9976 2.8342 14.6634 3.24645 14.6634L10.886 14.6629ZM15.7849 10.7271C14.2074 10.7271 12.9286 12.0369 12.9286 13.6525C12.9286 15.2682 14.2074 16.5779 15.7849 16.5779C17.3624 16.5779 18.6413 15.2682 18.6413 13.6525C18.6413 12.0369 17.3624 10.7271 15.7849 10.7271ZM15.7914 11.9764V12.6782L16.599 12.2729V12.604L15.7914 13.0093V13.3206L16.599 12.9154V13.2465L15.7914 13.6517V14.645C15.8956 14.6384 15.9998 14.6178 16.104 14.5833C16.2082 14.5487 16.3003 14.5001 16.3802 14.4375C16.4601 14.3749 16.5252 14.3007 16.5756 14.2151C16.626 14.1294 16.6511 14.0322 16.6511 13.9235C16.6511 13.9005 16.6503 13.8749 16.6485 13.8469C16.6468 13.8189 16.6407 13.7851 16.6303 13.7456L17.1305 13.627C17.1549 13.7291 17.167 13.8197 17.167 13.8988C17.167 14.1162 17.1201 14.3065 17.0263 14.4696C16.9325 14.6327 16.7997 14.7677 16.6277 14.8748C16.4557 14.9819 16.2473 15.061 16.0024 15.112C15.7575 15.1631 15.4857 15.1853 15.1869 15.1787V13.9334L14.7492 14.1508V13.8197L15.1869 13.6023V13.291L14.7492 13.5084V13.1773L15.1869 12.9549V11.9764H15.7914ZM9.71737 3.05603L15.089 5.32995L13.3884 5.33058C13.1397 5.33058 12.9328 5.50981 12.89 5.74616L12.8818 5.83723V7.35717L12.6562 7.37919C11.8155 7.46124 11.1374 8.04891 10.9092 8.82194C10.851 8.80633 10.789 8.79801 10.725 8.79801C10.3265 8.79801 10.0035 9.12106 10.0035 9.51956V12.9131C10.0035 13.2319 9.74507 13.4903 9.42632 13.4903C9.10758 13.4903 8.84919 13.2319 8.84919 12.9131V9.51956C8.84919 9.12106 8.52614 8.79801 8.12764 8.79801C7.72914 8.79801 7.40609 9.12106 7.40609 9.51956V12.9131C7.40609 13.2319 7.1477 13.4903 6.82895 13.4903C6.51021 13.4903 6.25182 13.2319 6.25182 12.9131V9.51956C6.25182 9.12106 5.92877 8.79801 5.53027 8.79801C5.13177 8.79801 4.80872 9.12106 4.80872 9.51956V12.9131C4.80872 13.2319 4.55032 13.4903 4.23158 13.4903C3.91284 13.4903 3.65445 13.2319 3.65445 12.9131V9.37541C3.65445 9.05661 3.39601 8.79818 3.07722 8.79818C2.75843 8.79818 2.5 8.53975 2.5 8.22096V6.36004C2.5 6.06025 2.67935 5.78955 2.95541 5.67266L9.13528 3.05603C9.32132 2.97726 9.53133 2.97726 9.71737 3.05603ZM17.1191 6.36812L15.5848 7.89644L14.0511 6.36868L17.1191 6.36812ZM9.42632 5.27884C8.94824 5.27884 8.56053 5.67246 8.56053 6.15864C8.56053 6.64498 8.94824 7.03843 9.42632 7.03843C9.90441 7.03843 10.2921 6.64498 10.2921 6.15864C10.2921 5.67229 9.90441 5.27884 9.42632 5.27884Z" fill="#0A79B8"/>
</g>
<defs>
<clipPath id="clip0_5167_12806">
<rect width="22" height="22" fill="white"/>
</clipPath>
</defs>
</svg>
