<svg width="22" height="22" viewBox="0 0 22 22" fill="none" xmlns="http://www.w3.org/2000/svg">
<path fill-rule="evenodd" clip-rule="evenodd" d="M17.1176 3C18.1572 3 19 3.84276 19 4.88235C19 5.92195 18.1572 6.76471 17.1176 6.76471C16.2407 6.76471 15.5037 6.16497 15.2947 5.35325H12.823C12.6139 6.16497 11.877 6.76471 11 6.76471C10.1234 6.76471 9.38671 6.16546 9.17729 5.35426L6.70532 5.35325C6.53502 6.01446 6.01446 6.53502 5.35325 6.70532V9.17703C6.16497 9.3861 6.76471 10.123 6.76471 11C6.76471 11.877 6.16497 12.6139 5.35325 12.823V15.2947C6.16497 15.5037 6.76471 16.2407 6.76471 17.1176C6.76471 18.1572 5.92195 19 4.88235 19L4.89879 18.9997C4.89333 18.9999 4.88785 19 4.88235 19L4.8652 18.9999C3.8335 18.9907 3 18.1515 3 17.1176C3 16.2408 3.5996 15.5039 4.41117 15.2948V12.8229C3.5996 12.6137 3 11.8769 3 11C3 10.1231 3.5996 9.38627 4.41117 9.1771V6.70525C3.5996 6.49608 3 5.75924 3 4.88235C3 3.84276 3.84276 3 4.88235 3C5.75924 3 6.49608 3.5996 6.70525 4.41117H9.1771C9.38627 3.5996 10.1231 3 11 3C11.8769 3 12.6137 3.5996 12.8229 4.41117H15.2948C15.5039 3.5996 16.2408 3 17.1176 3ZM14 9C15.3785 9 16.5 10.1038 16.5 11.4606V12.4449H16.875C17.475 12.4449 17.97 12.9124 18 13.498C17.9967 13.4986 17.9933 13.4992 17.99 13.4998C17.997 13.5481 18 13.5965 18 13.6457V17.8189C18 18.4712 17.4712 19 16.8189 19H11.1811C10.5288 19 10 18.4712 10 17.8189V13.5522C10 12.9419 10.505 12.4449 11.125 12.4449H11.5V11.4606C11.5 10.1038 12.6215 9 14 9ZM14 9.98425C13.173 9.98425 12.5 10.6467 12.5 11.4606V12.4449H15.5V11.4606C15.5 10.6467 14.827 9.98425 14 9.98425Z" fill="#0A79B8"/>
</svg>
