<svg width="22" height="22" viewBox="0 0 22 22" fill="none" xmlns="http://www.w3.org/2000/svg">
<g clip-path="url(#clip0_5167_13018)">
<path d="M6.52344 4.01481L6.62772 4.02182C7.00284 4.07271 7.29196 4.39426 7.29196 4.78333V5.33812C7.29196 6.06896 7.88442 6.66142 8.61527 6.66142H16.1921C17.7423 6.66142 18.9991 7.91817 18.9991 9.46844V15.4151C18.9991 16.9654 17.7423 18.2221 16.1921 18.2221L9.89584 18.2218L9.94071 18.1764C11.5346 16.4293 11.4815 13.7236 9.78133 12.0405C8.21807 10.493 5.78149 10.3239 4.02734 11.5331L4.02831 6.52453C4.02831 5.13928 5.14625 4.01481 6.52344 4.01481ZM16.0276 11.7953C15.4662 11.7953 15.0069 12.2573 15.0069 12.822C15.0069 13.3867 15.4662 13.8487 16.0276 13.8487C16.5891 13.8487 17.0483 13.3867 17.0483 12.822C17.0483 12.2573 16.5891 11.7953 16.0276 11.7953ZM10.08 4.01481C10.5968 4.01481 11.0157 4.43372 11.0157 4.95048V6.04443H8.02151V5.36789C8.02151 4.62363 8.5604 4.01481 9.21917 4.01481H10.08ZM15.195 3C16.7453 3 18.002 4.25674 18.002 5.80702V6.04443H12.0137V5.80702C12.0137 4.25674 13.2705 3 14.8207 3H15.195Z" fill="#0A79B8"/>
<path d="M10.1812 15.2811C10.1812 13.2645 8.55691 11.6238 6.56059 11.6238C4.56427 11.6238 2.94003 13.2645 2.94003 15.2811C2.94003 17.2978 4.56427 18.9385 6.56059 18.9385C8.55691 18.9385 10.1812 17.2978 10.1812 15.2811ZM7.14646 16.8591C7.15064 17.1661 6.90172 17.4109 6.58954 17.4068C6.43384 17.4048 6.29168 17.3409 6.18812 17.239C6.08455 17.1372 6.01959 16.9973 6.0175 16.8442L6.00369 15.8289L4.97134 15.8153C4.81565 15.8133 4.67348 15.7494 4.56991 15.6476C4.46635 15.5457 4.40139 15.4059 4.3993 15.2527C4.39513 14.9457 4.64405 14.7009 4.95623 14.705L5.98858 14.7186L5.97476 13.7033C5.97059 13.3963 6.21951 13.1515 6.53169 13.1556C6.84387 13.1597 7.09955 13.4111 7.10372 13.7182L7.11754 14.7335L8.14989 14.7471C8.46207 14.7512 8.71774 15.0026 8.72192 15.3096C8.7261 15.6167 8.47718 15.8615 8.165 15.8574L7.13265 15.8438L7.14646 16.8591Z" fill="#0A79B8"/>
</g>
<defs>
<clipPath id="clip0_5167_13018">
<rect width="22" height="22" fill="white"/>
</clipPath>
</defs>
</svg>
