<svg width="22" height="22" viewBox="0 0 22 22" fill="none" xmlns="http://www.w3.org/2000/svg">
<path fill-rule="evenodd" clip-rule="evenodd" d="M16.9086 5.25165C17.1153 5.25165 17.3024 5.33541 17.4378 5.47084C17.5732 5.60627 17.657 5.79336 17.657 6.00001V8.72401H3.25163V6.00001C3.25163 5.79336 3.3354 5.60627 3.47082 5.47084C3.60625 5.33541 3.79334 5.25165 4 5.25165H16.9086Z" stroke="#0A79B8" stroke-width="0.503268"/>
<path fill-rule="evenodd" clip-rule="evenodd" d="M17.9086 8.2799V9.91985C14.6884 9.91985 12.2198 9.96261 11.1228 9.98567C10.8026 9.9924 10.5745 10.2948 10.653 10.6053C10.8275 11.2955 11.2009 12.7723 12 15.933L4.30401 15.933C3.58383 15.933 3 15.3492 3 14.629V8.2799H17.9086ZM9.3075 9.3732H4.72023V9.91985H9.3075V9.3732ZM16.6046 5C17.3248 5 17.9086 5.58383 17.9086 6.30401V6.63995H3V6.30401C3 5.58383 3.58383 5 4.30401 5H16.6046Z" fill="#0A79B8"/>
<path d="M17.0273 17.9102C16.5905 17.9102 16.2363 17.556 16.2363 17.1191C16.2363 16.6823 16.5905 16.3281 17.0273 16.3281C17.4642 16.3281 17.8184 16.6823 17.8184 17.1191C17.8184 17.556 17.4642 17.9102 17.0273 17.9102Z" fill="#0A79B8"/>
<path d="M14.373 17.9102C13.9362 17.9102 13.582 17.556 13.582 17.1191C13.582 16.6823 13.9362 16.3281 14.373 16.3281C14.8099 16.3281 15.1641 16.6823 15.1641 17.1191C15.1641 17.556 14.8099 17.9102 14.373 17.9102Z" fill="#0A79B8"/>
<path d="M20.7363 10.5274H19.6368L18.3638 14.9836L18.4637 15.1833C18.7265 15.7085 18.3449 16.3281 17.7561 16.3281H13.3184C13.1727 16.3281 13.0547 16.2102 13.0547 16.0644C13.0547 15.9187 13.1727 15.8008 13.3184 15.8008H17.7561C17.9519 15.8008 18.0798 15.5946 17.9919 15.4192L17.919 15.2734H13.3184C13.2007 15.2734 13.0972 15.1954 13.0648 15.0821L12.0101 11.3907C11.9874 11.3112 12.0034 11.2257 12.0531 11.1595C12.103 11.0936 12.1811 11.0547 12.2637 11.0547H18.9377L19.1844 10.1913C19.2168 10.078 19.3203 10 19.438 10H20.7363C20.8821 10 21 10.1179 21 10.2637C21 10.4094 20.8821 10.5274 20.7363 10.5274Z" fill="#0A79B8"/>
</svg>
