<svg width="22" height="22" viewBox="0 0 22 22" fill="none" xmlns="http://www.w3.org/2000/svg">
<g clip-path="url(#clip0_5167_13022)">
<path d="M7.5 8.46471C10.5376 8.46471 13 10.963 13 14.0449C13 17.1267 10.5376 19.625 7.5 19.625C4.46243 19.625 2 17.1267 2 14.0449C2 10.963 4.46243 8.46471 7.5 8.46471ZM18.0773 5C19.1395 5 20.0006 5.86113 20.0006 6.92338V15.6725C20.0006 16.7347 19.1395 17.5959 18.0773 17.5959L12.9787 17.596C13.6256 16.571 14.0006 15.3523 14.0006 14.0449C14.0006 10.4027 11.0905 7.45013 7.50064 7.45013C6.21149 7.45013 5.00998 7.8309 3.99943 8.48763L4.00064 5H18.0773ZM9.72534 15.4761H5.27371C4.94831 15.4761 4.68452 15.7438 4.68452 16.074C4.68452 16.4042 4.94831 16.6719 5.27371 16.6719H9.72534C10.0507 16.6719 10.3145 16.4042 10.3145 16.074C10.3145 15.7438 10.0507 15.4761 9.72534 15.4761ZM9.72534 13.447H5.27371C4.94831 13.447 4.68452 13.7147 4.68452 14.0449C4.68452 14.3751 4.94831 14.6427 5.27371 14.6427H9.72534C10.0507 14.6427 10.3145 14.3751 10.3145 14.0449C10.3145 13.7147 10.0507 13.447 9.72534 13.447ZM16.8249 10.5936C16.2248 10.5936 15.734 11.0969 15.734 11.7122C15.734 12.3275 16.2248 12.8308 16.8249 12.8308C17.4249 12.8308 17.9158 12.3275 17.9158 11.7122C17.9158 11.0969 17.4249 10.5936 16.8249 10.5936ZM7.40509 11.4178H5.033C4.85961 11.4178 4.6 11.6855 4.6 12.0157C4.6 12.3459 4.85961 12.6136 5.033 12.6136H7.40509C7.57849 12.6136 7.78452 12.3459 7.78452 12.0157C7.78452 11.6855 7.57849 11.4178 7.40509 11.4178Z" fill="#0A79B8"/>
</g>
<defs>
<clipPath id="clip0_5167_13022">
<rect width="22" height="22" fill="white"/>
</clipPath>
</defs>
</svg>
