<svg width="22" height="22" viewBox="0 0 22 22" fill="none" xmlns="http://www.w3.org/2000/svg">
<g clip-path="url(#clip0_5167_13046)">
<path d="M5.66667 4.06667L5.7697 4.07307C6.17469 4.12375 6.48802 4.46929 6.48802 4.88802V5.4576C6.48802 6.22579 7.11076 6.84853 7.87895 6.84853H16C17.6569 6.84853 19 8.19167 19 9.84853V16C19 17.6569 17.6569 19 16 19H6C4.34315 19 3 17.6569 3 16V6.70464C3 5.2486 4.19479 4.06667 5.66667 4.06667ZM15.8242 12.2448C15.2242 12.2448 14.7333 12.7303 14.7333 13.3239C14.7333 13.9175 15.2242 14.4031 15.8242 14.4031C16.4243 14.4031 16.9152 13.9175 16.9152 13.3239C16.9152 12.7303 16.4243 12.2448 15.8242 12.2448ZM14.9333 3C16.5902 3 17.9333 4.34315 17.9333 6V6.2H11.5333V6C11.5333 4.34315 12.8765 3 14.5333 3H14.9333ZM9.46667 4.06667C10.019 4.06667 10.4667 4.51438 10.4667 5.06667V6.2H7.26667V5.48889C7.26667 4.7066 7.8426 4.06667 8.54667 4.06667H9.46667Z" fill="#0A79B8"/>
</g>
<defs>
<clipPath id="clip0_5167_13046">
<rect width="22" height="22" fill="white"/>
</clipPath>
</defs>
</svg>
