<svg width="22" height="22" viewBox="0 0 22 22" fill="none" xmlns="http://www.w3.org/2000/svg">
<path d="M17.2356 16.3141C17.6578 16.3141 18 16.6603 18 17.0873V18.2268C18 18.6538 17.6578 19 17.2356 19H12.0875C11.6653 19 11.3231 18.6538 11.3231 18.2268V17.0873C11.3231 16.6603 11.6653 16.3141 12.0875 16.3141H17.2356ZM9.93568 16.3141C10.3451 16.3141 10.6769 16.6498 10.6769 17.0639V18.2502C10.6769 18.6643 10.3451 19 9.93568 19H4.74124C4.33187 19 4 18.6643 4 18.2502V17.0639C4 16.6498 4.33187 16.3141 4.74124 16.3141H9.93568ZM17.2356 12.9746C17.6578 12.9746 18 13.3207 18 13.7478V14.8873C18 15.3143 17.6578 15.6605 17.2356 15.6605H12.0875C11.6653 15.6605 11.3231 15.3143 11.3231 14.8873V13.7478C11.3231 13.3207 11.6653 12.9746 12.0875 12.9746H17.2356ZM9.91252 12.9746C10.3347 12.9746 10.6769 13.3207 10.6769 13.7478V14.8873C10.6769 15.3143 10.3347 15.6605 9.91252 15.6605H4.76441C4.34224 15.6605 4 15.3143 4 14.8873V13.7478C4 13.3207 4.34224 12.9746 4.76441 12.9746H9.91252ZM17.2588 9.63505C17.6681 9.63505 18 9.97074 18 10.3848V11.5712C18 11.9853 17.6681 12.321 17.2588 12.321H12.0643C11.6549 12.321 11.3231 11.9853 11.3231 11.5712V10.3848C11.3231 9.97074 11.6549 9.63505 12.0643 9.63505H17.2588ZM7.80288 6C8.0793 6 8.30338 6.21069 8.30338 6.47059V8.23529H9.80489C9.99741 8.23581 10.1726 8.3401 10.2553 8.50353C10.3343 8.6673 10.3071 8.85905 10.1853 8.99765L7.79788 11.8212C7.70566 11.931 7.56626 11.9965 7.4175 12C7.27374 11.9998 7.137 11.9415 7.04212 11.84L4.4245 9.01647C4.29484 8.87771 4.26351 8.68045 4.3444 8.51213C4.42529 8.3438 4.60343 8.23553 4.79988 8.23529H6.30138V6.47059C6.30138 6.21069 6.52546 6 6.80188 6H7.80288ZM14.8175 3C14.9663 3.00348 15.1057 3.06901 15.1979 3.17882L17.5853 6.00235C17.7071 6.14095 17.7343 6.3327 17.6553 6.49647C17.5726 6.6599 17.3974 6.76419 17.2049 6.76471H15.7034V8.52941C15.7034 8.78931 15.4793 9 15.2029 9H14.2019C13.9255 9 13.7014 8.78931 13.7014 8.52941V6.76471H12.1999C12.0034 6.76447 11.8253 6.6562 11.7444 6.48787C11.6635 6.31955 11.6948 6.1223 11.8245 5.98353L14.4421 3.16C14.537 3.05845 14.6737 3.00017 14.8175 3Z" fill="#0A79B8"/>
</svg>
