<svg width="22" height="22" viewBox="0 0 22 22" fill="none" xmlns="http://www.w3.org/2000/svg">
<path d="M19.3518 18.1231C19.7098 18.1231 20 18.4133 20 18.7712V18.9245C20 19.2824 19.7098 19.5726 19.3518 19.5726H12.6405C12.2825 19.5726 11.9924 19.2824 11.9924 18.9245V18.7712C11.9924 18.4133 12.2825 18.1231 12.6405 18.1231H19.3518ZM9.0694 9.23286C11.3915 9.23286 13.3604 10.7257 14.0449 12.7923C12.8279 12.9349 11.8376 13.8801 11.6606 15.1185L11.0818 19.1698C10.4623 19.4247 9.78251 19.5655 9.0694 19.5655C6.17894 19.5655 3.83575 17.2525 3.83575 14.3992C3.83575 11.5459 6.17894 9.23286 9.0694 9.23286ZM9.40329 10.912H8.42194V11.9267C7.60928 11.9267 6.95 12.6083 6.95 13.449C6.95 14.2894 7.60928 14.9712 8.42194 14.9712H9.40329C9.67457 14.9712 9.89389 15.1982 9.89389 15.4788L9.88511 15.57C9.8436 15.8068 9.6434 15.9861 9.40226 15.9861H8.42194C8.15081 15.9861 7.93135 15.7591 7.93135 15.4788H6.95C6.95 16.3192 7.60928 17.001 8.42194 17.001V18.0157H9.40329V17.001C10.2158 16.9999 10.8748 16.3192 10.8748 15.4788C10.8752 14.6383 10.216 13.9565 9.40329 13.9565H8.42194C8.15081 13.9565 7.93135 13.7295 7.93135 13.449C7.93135 13.1686 8.15081 12.9416 8.42194 12.9416H9.40329C9.67457 12.9416 9.89389 13.1686 9.89389 13.449H10.8752C10.8752 12.6086 10.216 11.9267 9.40329 11.9267V10.912ZM18.818 16.0868C19.176 16.0868 19.4662 16.3769 19.4662 16.7349V16.8882C19.4662 17.2461 19.176 17.5363 18.818 17.5363H13.1744C12.8164 17.5363 12.5262 17.2461 12.5262 16.8882V16.7349C12.5262 16.3769 12.8164 16.0868 13.1744 16.0868H18.818ZM18.4189 14.0504C18.7769 14.0504 19.0671 14.3406 19.0671 14.6986V14.8519C19.0671 15.2098 18.7769 15.5 18.4189 15.5H13.7095C13.3516 15.5 13.0614 15.2098 13.0614 14.8519V14.6986C13.0614 14.3406 13.3516 14.0504 13.7095 14.0504H18.4189ZM16.9533 2C17.4435 2 17.8906 2.28356 18.1047 2.73025C18.3188 3.17694 18.2622 3.70825 17.959 4.09842C17.6558 4.48859 17.1593 4.66906 16.6804 4.56315L13.6635 8.03096C13.6705 8.08527 13.674 8.13997 13.674 8.19473C13.6719 8.89493 13.1214 9.46697 12.4304 9.48685C11.7395 9.50673 11.1578 8.96727 11.1165 8.26832L8.62617 6.70762C8.24186 7.01333 7.71925 7.07069 7.27922 6.85547L4.49762 9.8688C4.66735 10.4029 4.47849 10.9871 4.02971 11.316C3.58093 11.645 2.97416 11.644 2.52638 11.3137C2.07859 10.9834 1.8915 10.3987 2.06283 9.86503C2.23416 9.33141 2.72501 8.97006 3.27895 8.96977C3.38363 8.96981 3.48791 8.98273 3.58951 9.00822L6.56157 5.79036C6.55895 5.75688 6.55732 5.72174 6.55732 5.68859C6.55825 5.00459 7.08358 4.43899 7.7575 4.39641C8.43141 4.35382 9.02206 4.84891 9.1069 5.52748L11.665 7.13061C12.0274 6.87517 12.4942 6.82706 12.9 7.00332L15.7471 3.73043C15.6077 3.33347 15.6675 2.89267 15.9074 2.54851C16.1473 2.20436 16.5374 1.99979 16.9533 2Z" fill="#0A79B8"/>
</svg>
