<svg width="22" height="22" viewBox="0 0 22 22" fill="none" xmlns="http://www.w3.org/2000/svg">
<g clip-path="url(#clip0_5167_13008)">
<path d="M12.3302 15.2236C12.2144 15.0003 11.9694 14.8578 11.7001 14.8571H9.59982V9.71429C9.59982 9.35925 9.28638 9.07143 8.89974 9.07143H7.49956C7.11292 9.07143 6.79948 9.35925 6.79948 9.71429V14.8571H4.69921C4.42442 14.8575 4.17525 15.0054 4.06211 15.2353C3.94897 15.4653 3.99279 15.7347 4.17415 15.9243L7.8356 19.7814C7.96832 19.9201 8.15959 19.9998 8.36067 20C8.56876 19.9953 8.76375 19.9057 8.89274 19.7557L12.2322 15.8986C12.4026 15.7092 12.4406 15.4473 12.3302 15.2236ZM9.66983 6.77643C9.78563 6.99968 10.0306 7.14216 10.2999 7.14286L12.4002 7.14286L12.4002 12.2857C12.4002 12.6408 12.7136 12.9286 13.1003 12.9286L14.5004 12.9286C14.8871 12.9286 15.2005 12.6408 15.2005 12.2857L15.2005 7.14286L17.3008 7.14286C17.5756 7.14254 17.8248 6.99463 17.9379 6.76469C18.051 6.53474 18.0072 6.26528 17.8259 6.07571L14.1644 2.21857C14.0317 2.07985 13.8404 2.00023 13.6393 2C13.4312 2.00475 13.2363 2.09428 13.1073 2.24429L9.76785 6.10143C9.59742 6.29076 9.55938 6.55271 9.66983 6.77643Z" fill="#0A79B8"/>
</g>
<defs>
<clipPath id="clip0_5167_13008">
<rect width="22" height="22" fill="white"/>
</clipPath>
</defs>
</svg>
