<svg width="22" height="22" viewBox="0 0 22 22" fill="none" xmlns="http://www.w3.org/2000/svg">
<path d="M16.4625 12.2626L15.5257 9.35963C15.3825 8.92886 14.9827 8.63544 14.5232 8.63544H10.1552C9.69577 8.63544 9.29597 8.92886 9.15276 9.35963L8.21592 12.2626C8.13238 12.5061 8.15028 12.7746 8.25769 13.0056C8.28155 13.0617 8.31139 13.1179 8.34719 13.1741C8.54411 13.4613 8.86634 13.6299 9.2184 13.6299H15.4601C15.8121 13.6299 16.1343 13.4613 16.3313 13.1741C16.3671 13.1179 16.3969 13.0617 16.4208 13.0056C16.5282 12.7746 16.5461 12.5061 16.4625 12.2626ZM11.2174 10.8205L10.8236 12.0629C10.7639 12.2564 10.5849 12.3813 10.3999 12.3813C10.3522 12.3813 10.3044 12.375 10.2627 12.3563C10.024 12.2751 9.89866 12.0129 9.97623 11.7632L10.4655 10.2024C10.5252 10.0151 10.6983 9.88404 10.8952 9.88404H13.0851C13.3298 9.88404 13.5327 10.0963 13.5327 10.3523C13.5327 10.6082 13.3298 10.8205 13.0851 10.8205H11.2174Z" fill="#0A79B8"/>
<path d="M12.8942 16.639L12.0289 13.7423C12.017 13.7048 12.005 13.6673 11.9871 13.6299C11.832 13.2615 11.468 13.0056 11.0742 13.0056H7.0523C6.61669 13.0056 6.22286 13.3115 6.09755 13.7423L5.22634 16.6453C5.13684 16.9637 5.19054 17.307 5.38149 17.5755C5.57244 17.8439 5.8708 18 6.19303 18H11.9334C12.2557 18 12.554 17.8439 12.745 17.5755C12.9359 17.307 12.9896 16.9637 12.8942 16.639ZM10.1015 15.1906H8.2338L7.83996 16.433C7.78029 16.6265 7.60128 16.7514 7.41629 16.7514C7.36856 16.7514 7.32082 16.7452 7.27905 16.7264C7.04036 16.6453 6.91505 16.3831 6.99263 16.1333L7.48193 14.5726C7.54161 14.3853 7.71465 14.2542 7.91157 14.2542H10.1015C10.3462 14.2542 10.5491 14.4665 10.5491 14.7224C10.5491 14.9784 10.3462 15.1906 10.1015 15.1906Z" fill="#0A79B8"/>
<path d="M19.297 17.5755C19.106 17.8439 18.8136 18 18.4914 18H13.5446C13.7833 17.6192 13.8788 17.1697 13.8251 16.7139C13.831 16.7202 13.837 16.7264 13.843 16.7264C13.8847 16.7452 13.9325 16.7514 13.9802 16.7514C14.1652 16.7514 14.3442 16.6265 14.4039 16.433L14.7977 15.1906H16.6654C16.9101 15.1906 17.113 14.9784 17.113 14.7224C17.113 14.4665 16.9101 14.2542 16.6654 14.2542H14.4755C14.2786 14.2542 14.1055 14.3853 14.0458 14.5726L13.6222 15.9211L12.936 13.6299L12.8882 13.4738C12.8763 13.4426 12.8703 13.4051 12.8524 13.3739C13.0374 13.1429 13.3119 13.0056 13.6102 13.0056H17.6321C18.0677 13.0056 18.4616 13.3053 18.5928 13.7423L19.4581 16.639C19.5476 16.9699 19.4939 17.307 19.297 17.5755Z" fill="#0A79B8"/>
<path d="M6.28947 4C8.14298 4 9.68569 5.38352 10.0143 7.21146C9.42782 7.49276 8.92566 7.91863 8.49474 8.5112C7.89462 9.33643 7.86934 10.3144 7.33253 11.7259C7 11.8271 6.65064 11.8797 6.28947 11.8797C4.19661 11.8797 2.5 10.1157 2.5 7.93983C2.5 5.76392 4.19661 4 6.28947 4ZM7.36316 6.13408C6.41716 5.70656 5.31604 6.14435 4.88579 7.11904H4.39474V7.77567H4.71842C4.71053 7.82985 4.71053 7.88402 4.71053 7.93983C4.71053 7.99565 4.71842 8.04982 4.71842 8.10399H4.39474V8.76063H4.88579C5.31604 9.73532 6.41716 10.1731 7.36316 9.74559L7.65211 9.61426L7.39947 9.0118L7.11053 9.14313C6.95144 9.21639 6.77926 9.25387 6.60526 9.25311C6.22199 9.25286 5.85955 9.0717 5.62 8.76063H6.60526V8.10399H5.35316C5.33843 7.99509 5.33843 7.88458 5.35316 7.77567H6.60526V7.11904H5.62C5.85955 6.80797 6.22199 6.62681 6.60526 6.62656C6.77766 6.62649 6.94816 6.66395 7.10579 6.73654L7.39474 6.86787L7.65211 6.2654L7.36316 6.13408Z" fill="#0A79B8"/>
</svg>
