<svg width="22" height="22" viewBox="0 0 22 22" fill="none" xmlns="http://www.w3.org/2000/svg">
<g clip-path="url(#clip0_5167_12249)">
<path d="M5.34044 5.34044C8.46104 2.21985 13.539 2.21985 16.6596 5.34044C19.7801 8.46104 19.7801 13.539 16.6596 16.6596C13.539 19.7801 8.46104 19.7801 5.34044 16.6596C2.21985 13.539 2.21985 8.46104 5.34044 5.34044ZM12.0562 15.053H10.07C9.88716 15.053 9.73895 15.2198 9.73895 15.4256C9.73895 15.6314 9.88716 15.7982 10.07 15.7982H12.0562C12.239 15.7982 12.3872 15.6314 12.3872 15.4256C12.3872 15.2198 12.239 15.053 12.0562 15.053ZM11.9432 13.5626H10.1988C10.016 13.5626 9.73895 13.7962 9.73895 14.0842C9.73895 14.3723 10.016 14.6059 10.1988 14.6059H11.9432C12.126 14.6059 12.3872 14.3723 12.3872 14.0842C12.3872 13.7962 12.126 13.5626 11.9432 13.5626ZM10.9157 5.88699C10.7192 5.8914 10.5349 5.97456 10.4131 6.11389L7.25814 9.69662C7.09713 9.87247 7.0612 10.1158 7.16554 10.3236C7.27494 10.531 7.5064 10.6633 7.76081 10.664H9.74505V12.4601C9.74505 12.7899 10.0412 13.0572 10.4065 13.0572H11.7293C12.0946 13.0572 12.3907 12.7899 12.3907 12.4601V10.664H14.3749C14.6345 10.6637 14.8699 10.5263 14.9768 10.3127C15.0837 10.0991 15.0423 9.84881 14.871 9.67273L11.4118 6.09001C11.2864 5.96116 11.1057 5.88721 10.9157 5.88699Z" fill="#0A79B8"/>
</g>
<defs>
<clipPath id="clip0_5167_12249">
<rect width="22" height="22" fill="white"/>
</clipPath>
</defs>
</svg>
