<svg width="22" height="22" viewBox="0 0 22 22" fill="none" xmlns="http://www.w3.org/2000/svg">
<g clip-path="url(#clip0_5167_12606)">
<path fill-rule="evenodd" clip-rule="evenodd" d="M16.54 4V4.0117C18.2183 4.10676 19.5617 4.60442 19.9214 6.02649C20.125 6.83184 19.9008 7.66793 19.6181 8.27745C19.319 8.92221 18.9706 9.42572 18.5572 9.91514C17.7383 10.8841 16.7478 11.6759 15.6538 12.4129C14.5742 13.1409 13.3729 13.7603 12.1091 14.2514C11.5049 14.4862 10.8085 14.718 10.0453 14.8876C9.32684 15.0471 8.43851 15.1696 7.65508 14.9939C6.92047 14.8288 6.35189 14.4509 6.24417 13.6975C6.12784 12.8857 6.52534 12.2115 6.88545 11.6824C7.62007 10.6028 8.63719 9.82113 9.78889 9.18461C10.9406 8.54795 12.2833 8.01505 14.0446 8.08882C12.6061 8.24836 11.6234 8.6814 10.6631 9.31417C9.82925 9.86386 8.83394 10.6884 8.52947 11.7885C8.3161 12.5596 8.66983 13.0743 9.1942 13.3204C9.72375 13.5693 10.5333 13.5855 11.2112 13.5208C12.5735 13.3908 13.7256 12.8974 14.6628 12.378C16.1133 11.5734 17.3901 10.48 18.2539 9.04322C18.545 8.5589 18.808 8.00965 18.9304 7.41692C19.2648 5.79843 18.4706 4.89831 17.3327 4.54205C16.1731 4.17858 14.4737 4.36556 13.2869 4.68344C10.8885 5.32595 8.98009 6.49837 7.28192 7.88835C6.45961 8.56175 5.69102 9.34415 4.99647 10.2098C4.30459 11.0717 3.68675 12.0159 3.28242 13.1083C3.06342 13.7008 2.90213 14.3688 2.99116 15.0879C3.22841 17.0097 5.22571 17.5851 7.46843 17.4564C10.3164 17.2924 12.4641 16.3007 14.4178 15.2176C12.6465 16.3285 10.5018 17.3579 7.99323 17.7626C5.17957 18.2168 2.192 17.6965 2 15.0407V14.5697C2.19244 12.7783 3.03463 11.4621 3.88869 10.3512C4.80061 9.16482 5.83272 8.23247 6.97863 7.35845C8.12484 6.48382 9.4178 5.73425 10.8382 5.14287C12.2782 4.54355 13.8952 4.09252 15.7585 4H16.54ZM17.4093 7.27273C17.2587 7.56126 17.0228 7.86822 16.8445 8.16801C17.3243 8.21602 17.8644 8.21602 18.3636 8.24866C17.7402 8.423 17.1045 8.58775 16.4678 8.7516C16.2563 9.07482 16.0462 9.39945 15.8399 9.72727C15.6394 9.52259 15.4886 9.27797 15.2876 9.07354C14.6674 9.22702 14.0695 9.39842 13.4545 9.55625C13.9564 9.26081 14.4678 8.97318 14.9738 8.68132C14.8206 8.46883 14.6349 8.28207 14.4839 8.06765C14.8418 8.08942 15.1935 8.10017 15.5512 8.11783C15.6672 8.12359 15.804 8.15278 15.9029 8.1378C16.0045 8.12231 16.1796 7.99111 16.2921 7.92672C16.6688 7.71 17.0497 7.48048 17.4093 7.27273Z" fill="#0A79B8"/>
</g>
<defs>
<clipPath id="clip0_5167_12606">
<rect width="22" height="22" fill="white"/>
</clipPath>
</defs>
</svg>
