<svg width="22" height="22" viewBox="0 0 22 22" fill="none" xmlns="http://www.w3.org/2000/svg">
<g clip-path="url(#clip0_5167_12999)">
<path d="M7.51197 15.8005C8.83135 15.8005 9.89402 16.2499 10.6704 17.1361C10.8628 17.3558 11.1371 17.3559 11.3296 17.1361C12.106 16.2499 13.1686 15.8005 14.488 15.8005H19.3C19.5912 15.8005 20 16.1363 20 16.5505C20 16.9648 19.5912 17.3006 19.3 17.3006H14.488C13.4147 17.3006 12.5742 17.6389 11.9897 18.3061C11.4154 18.9617 10.5907 18.9688 10.0102 18.3061C9.42581 17.6389 8.58526 17.3006 7.51197 17.3006H2.7C2.40877 17.3006 2 16.9648 2 16.5505C2 16.1363 2.40877 15.8005 2.7 15.8005H7.51197ZM8.89062 13.3005C9.7523 13.3005 10.5187 13.929 11 14.8988C11.4813 13.929 12.2477 13.3005 13.1094 13.3005H18.3828C18.6739 13.3005 18.9102 13.4298 18.9102 13.87V14.8956H14.4879C13.2537 14.8956 12.0265 15.2655 11 16.3005C9.97319 15.2652 8.74585 14.8956 7.51215 14.8956H3.08984V13.87C3.08984 13.4298 3.32609 13.3005 3.61719 13.3005H8.89062ZM14.6914 8.63678V10.1555C14.6914 10.3552 14.5786 10.538 14.4 10.6273L12.0677 11.7931C11.8093 11.9225 11.5727 12.0891 11.3646 12.2881C11.1607 12.4829 10.8393 12.4829 10.6354 12.2881C10.4273 12.0891 10.1907 11.9225 9.9323 11.7931L7.60004 10.6273C7.42145 10.538 7.30859 10.3552 7.30859 10.1555V8.63678L10.5655 9.56737C10.8439 9.647 11.146 9.64992 11.4345 9.56737L14.6914 8.63678ZM16.8008 8.03421V11.2102C16.8008 11.5013 16.5645 11.7376 16.2734 11.7376C15.9823 11.7376 15.7461 11.5013 15.7461 11.2102V8.3355L16.8008 8.03421ZM11.1448 3.32035L18.5277 5.42973C19.0355 5.57482 19.0364 6.29847 18.5277 6.44384L11.1448 8.55322C11.0506 8.58015 10.9502 8.58036 10.8551 8.55322L3.47231 6.44384C2.96444 6.29875 2.96356 5.5751 3.47231 5.42973L10.8551 3.32035C10.9498 3.29328 11.0502 3.29328 11.1448 3.32035Z" fill="#0A79B8"/>
</g>
<defs>
<clipPath id="clip0_5167_12999">
<rect width="22" height="22" fill="white"/>
</clipPath>
</defs>
</svg>
