<svg width="22" height="22" viewBox="0 0 22 22" fill="none" xmlns="http://www.w3.org/2000/svg">
<path d="M9.60487 2.64032C10.3209 1.78736 11.6764 1.78596 12.3947 2.63972L13.1839 3.57733C13.3252 3.7458 13.5586 3.8179 13.7756 3.76186L14.9874 3.4488C16.0923 3.16481 17.186 3.92945 17.2444 5.02403L17.3089 6.22784C17.3205 6.44398 17.4642 6.63382 17.6749 6.71131L18.8468 7.14257C19.9108 7.53315 20.3328 8.76821 19.7092 9.69025L19.0243 10.7012C18.9013 10.8828 18.9013 11.1173 19.0243 11.2986L19.7089 12.3091C20.3328 13.2305 19.9118 14.4662 18.8468 14.8579L17.6749 15.2886C17.4642 15.3662 17.3204 15.556 17.3089 15.7724L17.2444 16.9761C17.1859 18.0736 16.0881 18.8347 14.9882 18.5515L13.7753 18.2379C13.5583 18.1824 13.3261 18.254 13.184 18.423L12.3951 19.3605C11.6751 20.2143 10.3218 20.2121 9.60491 19.3601L8.81607 18.423C8.67351 18.254 8.44098 18.182 8.22434 18.2379L7.0126 18.5511C5.90823 18.8356 4.81362 18.0705 4.7552 16.9761L4.69071 15.7721C4.67918 15.5559 4.53581 15.3662 4.32517 15.2886L3.15326 14.8576C2.08724 14.4663 1.66761 13.2284 2.29115 12.3092L2.97563 11.2986C3.09829 11.1173 3.09829 10.8825 2.97523 10.7008L2.29115 9.69109C1.66731 8.76976 2.0879 7.53413 3.15326 7.14228L4.32517 6.71138C4.53581 6.63393 4.67918 6.44423 4.69071 6.22812L4.7552 5.0241C4.81373 3.92812 5.91068 3.164 7.0126 3.44908L8.22434 3.76193C8.44135 3.81836 8.67432 3.7459 8.81567 3.5774L9.60487 2.64032ZM11 8C8.85774 8 6.99439 9.20101 6.03909 10.9701C5.98697 11.0666 5.98697 11.1834 6.03909 11.2799C6.9944 13.049 8.8577 14.25 11 14.25C13.1423 14.25 15.0056 13.049 15.9609 11.2799C16.013 11.1834 16.013 11.0666 15.9609 10.9701C15.0056 9.201 13.1423 8 11 8ZM11 8.72791C12.3162 8.72791 13.3833 9.80112 13.3833 11.125C13.3833 12.4489 12.3162 13.5221 11 13.5221C9.68375 13.5221 8.61674 12.4489 8.61674 11.125C8.61674 9.80114 9.68375 8.72791 11 8.72791ZM11 9.90341C10.8997 9.90341 10.8024 9.91572 10.7092 9.93875C10.8046 10.0498 10.8625 10.1945 10.8625 10.3529C10.8625 10.7029 10.5804 10.9867 10.2323 10.9867C10.0749 10.9867 9.93102 10.9285 9.82056 10.8325C9.79767 10.9262 9.78543 11.0242 9.78543 11.125C9.78543 11.7997 10.3292 12.3466 11 12.3466C11.6707 12.3466 12.2145 11.7997 12.2145 11.125C12.2145 10.4504 11.6708 9.90341 11 9.90341Z" fill="#0A79B8"/>
</svg>
