<svg width="22" height="22" viewBox="0 0 22 22" fill="none" xmlns="http://www.w3.org/2000/svg">
<path d="M9.60487 2.64032C10.3209 1.78736 11.6764 1.78596 12.3947 2.63972L13.1839 3.57733C13.3252 3.7458 13.5586 3.8179 13.7756 3.76186L14.9874 3.4488C16.0923 3.16481 17.186 3.92945 17.2444 5.02403L17.3089 6.22784C17.3205 6.44398 17.4642 6.63382 17.6749 6.71131L18.8468 7.14257C19.9108 7.53315 20.3328 8.76821 19.7092 9.69025L19.0243 10.7012C18.9013 10.8828 18.9013 11.1173 19.0243 11.2986L19.7089 12.3091C20.3328 13.2305 19.9118 14.4662 18.8468 14.8579L17.6749 15.2886C17.4642 15.3662 17.3204 15.556 17.3089 15.7724L17.2444 16.9761C17.1859 18.0736 16.0881 18.8347 14.9882 18.5515L13.7753 18.2379C13.5583 18.1824 13.3261 18.254 13.184 18.423L12.3951 19.3605C11.6751 20.2143 10.3218 20.2121 9.60491 19.3601L8.81607 18.423C8.67351 18.254 8.44098 18.182 8.22434 18.2379L7.0126 18.5511C5.90823 18.8356 4.81362 18.0705 4.7552 16.9761L4.69071 15.7721C4.67918 15.5559 4.53581 15.3662 4.32517 15.2886L3.15326 14.8576C2.08724 14.4663 1.66761 13.2284 2.29115 12.3092L2.97563 11.2986C3.09829 11.1173 3.09829 10.8825 2.97523 10.7008L2.29115 9.69109C1.66731 8.76976 2.0879 7.53413 3.15326 7.14228L4.32517 6.71138C4.53581 6.63393 4.67918 6.44423 4.69071 6.22812L4.7552 5.0241C4.81373 3.92812 5.91068 3.164 7.0126 3.44908L8.22434 3.76193C8.44135 3.81836 8.67432 3.7459 8.81567 3.5774L9.60487 2.64032ZM10.6661 6.4H8.90142V9.21411L7.62353 9.85368V10.8059L8.90142 10.1806V11.076L7.62353 11.7013V12.6536L8.90142 12.0282V15.6098C9.77363 15.6288 10.5672 15.5648 11.2823 15.4179C11.9973 15.2711 12.6058 15.0437 13.1078 14.7357C13.6098 14.4278 13.9978 14.0393 14.2716 13.5703C14.5454 13.1013 14.6824 12.5541 14.6824 11.9287C14.6824 11.7013 14.6469 11.4408 14.5759 11.147L13.1154 11.4881C13.1458 11.6018 13.1636 11.699 13.1687 11.7795C13.1737 11.86 13.1763 11.9335 13.1763 11.9998C13.1763 12.3125 13.1027 12.592 12.9557 12.8383C12.8086 13.0847 12.6185 13.2979 12.3852 13.4779C12.1519 13.6579 11.8832 13.7977 11.5789 13.8972C11.2746 13.9967 10.9704 14.0559 10.6661 14.0748V11.2181L13.0241 10.0527V9.1004L10.6661 10.2658V9.37045L13.0241 8.20501V7.25276L10.6661 8.4182V6.4Z" fill="#0A79B8"/>
</svg>
