<svg width="22" height="22" viewBox="0 0 22 22" fill="none" xmlns="http://www.w3.org/2000/svg">
<path fill-rule="evenodd" clip-rule="evenodd" d="M14.9999 10.9558C12.7907 10.9558 10.9999 12.7566 10.9999 14.9779C10.9999 17.1993 12.7907 19 14.9999 19C17.209 19 18.9999 17.1993 18.9999 14.9779C18.9999 12.7566 17.209 10.9558 14.9999 10.9558ZM12.0474 7.28019C9.32827 7.30235 7.62589 7.31421 6.94024 7.31576L6.73079 7.31585C6.71281 7.31581 6.6966 7.31575 6.68215 7.31567L6.61665 7.31499C6.60188 7.31469 6.59352 7.31387 6.59352 7.31387C3.37466 9.54944 3.01937 12.7102 3.00072 13.6425L3.00007 13.7602C3.00117 13.8621 3.00668 13.9154 3.00924 13.9109C3.00924 15.464 3.42784 16.646 4.26504 17.4568C6.88678 17.4662 9.0029 17.4719 10.6134 17.4741C10.2208 16.7591 9.99988 15.9386 9.99988 15.0663C9.99988 12.3821 12.0917 10.1893 14.7256 10.0461C14.1018 9.03979 13.2088 8.11744 12.0474 7.28019ZM15.9043 13.0286L17.8573 14.9003C17.9275 14.9681 17.9679 15.0659 17.968 15.1687C17.9656 15.2751 17.9202 15.3747 17.8443 15.4407L15.8913 17.1478C15.7954 17.2349 15.6627 17.2543 15.5495 17.1979C15.4364 17.1387 15.3643 17.0134 15.3639 16.8758V15.8021H14.3848C14.205 15.8021 14.0593 15.6419 14.0593 15.4443V14.7285C14.0593 14.5309 14.205 14.3706 14.3848 14.3706H15.3639V13.297C15.3641 13.1565 15.439 13.0291 15.5554 12.9713C15.6718 12.9135 15.8083 12.9359 15.9043 13.0286ZM13.4994 14.3725C13.6565 14.3725 13.7838 14.5138 13.7838 14.6128V15.5566C13.7838 15.6555 13.6565 15.8054 13.4994 15.8054C13.3424 15.8054 13.2151 15.6555 13.2151 15.5566V14.6128C13.2151 14.5138 13.3424 14.3725 13.4994 14.3725ZM12.7682 14.3725C12.8804 14.3725 12.9713 14.4527 12.9713 14.5516V15.6263C12.9713 15.7252 12.8804 15.8054 12.7682 15.8054C12.656 15.8054 12.5651 15.7252 12.5651 15.6263V14.5516C12.5651 14.4527 12.656 14.3725 12.7682 14.3725ZM9.31944 3C8.83207 3 8.40441 3.2683 8.16325 3.67183L6.65274 3.67264C6.626 3.67264 6.59936 3.67572 6.57332 3.68181C6.38488 3.72592 6.26768 3.91527 6.31154 4.10474L6.83251 6.35534H11.9173L12.4992 4.11386C12.5068 4.08481 12.5106 4.05491 12.5106 4.02489C12.5106 3.83035 12.3537 3.67264 12.1603 3.67264L10.4756 3.67183C10.2345 3.2683 9.80681 3 9.31944 3Z" fill="#0A79B8"/>
</svg>
