<svg width="22" height="22" viewBox="0 0 22 22" fill="none" xmlns="http://www.w3.org/2000/svg">
<path fill-rule="evenodd" clip-rule="evenodd" d="M15 10.9121C12.7909 10.9121 11 12.703 11 14.9121C11 17.1213 12.7909 18.9121 15 18.9121C17.2091 18.9121 19 17.1213 19 14.9121C19 12.703 17.2091 10.9121 15 10.9121ZM12.0475 7.25669C9.32839 7.27873 7.62601 7.29051 6.94037 7.29206L6.73091 7.29215C6.71293 7.29211 6.69672 7.29205 6.68227 7.29197L6.61677 7.29129C6.602 7.29099 6.59364 7.29018 6.59364 7.29018C3.37478 9.51347 3.01949 12.6569 3.00084 13.5841L3.00019 13.7011C3.00129 13.8024 3.0068 13.8554 3.00936 13.851C3.00936 15.3956 3.42796 16.571 4.26516 17.3774C6.8869 17.3867 9.00302 17.3925 10.6135 17.3946C10.221 16.6836 10 15.8676 10 15C10 12.3306 12.0919 10.1498 14.7257 10.0074C14.102 9.00662 13.2089 8.08934 12.0475 7.25669ZM15.9044 12.9735L17.8574 14.8349C17.9277 14.9024 17.968 14.9996 17.9681 15.1019C17.9657 15.2077 17.9204 15.3068 17.8444 15.3724L15.8914 17.0701C15.7955 17.1567 15.6629 17.176 15.5496 17.1199C15.4366 17.061 15.3644 16.9365 15.3641 16.7996V15.7318H14.3849C14.2052 15.7318 14.0594 15.5725 14.0594 15.3759V14.6641C14.0594 14.4675 14.2052 14.3082 14.3849 14.3082H15.3641V13.2404C15.3642 13.1007 15.4391 12.9741 15.5555 12.9166C15.672 12.859 15.8084 12.8813 15.9044 12.9735ZM13.4996 14.31C13.6566 14.31 13.7839 14.4506 13.7839 14.549V15.4876C13.7839 15.586 13.6566 15.7351 13.4996 15.7351C13.3425 15.7351 13.2152 15.586 13.2152 15.4876V14.549C13.2152 14.4506 13.3425 14.31 13.4996 14.31ZM12.7683 14.31C12.8805 14.31 12.9715 14.3898 12.9715 14.4882V15.557C12.9715 15.6554 12.8805 15.7351 12.7683 15.7351C12.6562 15.7351 12.5652 15.6554 12.5652 15.557V14.4882C12.5652 14.3898 12.6562 14.31 12.7683 14.31ZM9.31956 3C8.83219 3 8.40454 3.26682 8.16337 3.66814L6.65286 3.66895C6.62612 3.66895 6.59948 3.67201 6.57344 3.67807C6.38501 3.72193 6.26781 3.91024 6.31167 4.09868L6.83263 6.33691H11.9175L12.4994 4.10774C12.5069 4.07885 12.5107 4.04912 12.5107 4.01926C12.5107 3.82579 12.3539 3.66895 12.1604 3.66895L10.4758 3.66814C10.2346 3.26682 9.80693 3 9.31956 3Z" fill="#0A79B8"/>
</svg>
