<svg width="22" height="22" viewBox="0 0 22 22" fill="none" xmlns="http://www.w3.org/2000/svg">
<path d="M16.5 8V9.2C17.1667 9.86667 17.5 10.5333 17.5 11.2V18C17.5 19.3333 16.8333 20 15.5 20H6.5C5.16667 20 4.5 19.3333 4.5 18V11.2C4.5 10.5333 4.83333 9.86667 5.5 9.2V8H16.5ZM11 10.5C9.067 10.5 7.5 12.067 7.5 14C7.49974 14.9283 7.86841 15.8187 8.52484 16.4752C9.18128 17.1316 10.0717 17.5003 11 17.5C12.933 17.5 14.5 15.933 14.5 14C14.5 12.067 12.933 10.5 11 10.5ZM10.7586 11.8V12.8007L11.9278 12.2228V12.695L10.7586 13.2728V13.7168L11.9278 13.139V13.6111L10.7586 14.189V15.6054C10.9095 15.596 11.0603 15.5667 11.2112 15.5174C11.3621 15.468 11.4953 15.3987 11.611 15.3095C11.7267 15.2202 11.8209 15.1145 11.8939 14.9923C11.9668 14.8702 12.0032 14.7316 12.0032 14.5766C12.0032 14.5437 12.002 14.5073 11.9995 14.4673C11.9969 14.4274 11.9881 14.3792 11.9731 14.3229L12.6972 14.1537C12.7324 14.2994 12.75 14.4286 12.75 14.5413C12.75 14.8514 12.6821 15.1227 12.5463 15.3553C12.4106 15.5878 12.2182 15.7804 11.9693 15.9331C11.7204 16.0858 11.4186 16.1986 11.0641 16.2714C10.7096 16.3442 10.3161 16.3759 9.88362 16.3665V14.5907L9.25 14.9007V14.4286L9.88362 14.1185V13.6745L9.25 13.9846V13.5124L9.88362 13.1953V11.8H10.7586ZM16.5896 5.80982C16.8 5.80982 16.9706 5.98037 16.9706 6.19076V6.95265C16.9706 7.16304 16.8 7.33359 16.5896 7.33359H5.35152C5.14113 7.33359 4.97058 7.16304 4.97058 6.95265V6.19076C4.97058 5.98037 5.14113 5.80982 5.35152 5.80982H16.5896ZM9.20292 2.01875C10.1464 1.88639 11.0435 2.46684 11.3059 3.3794C11.3048 3.39014 11.3075 3.40094 11.3135 3.40988C11.3584 3.57119 11.3815 3.73772 11.3824 3.9051C11.3843 4.31878 11.247 4.72115 10.9924 5.04793H7.94886C7.69426 4.72115 7.55695 4.31878 7.55884 3.9051C7.55809 2.95584 8.25945 2.15112 9.20292 2.01875ZM12.5294 3.52416C13.438 3.52398 14.2212 4.16097 14.4029 5.04793H11.8871C12.0576 4.69088 12.1464 4.30053 12.1471 3.9051C12.1468 3.79298 12.1391 3.681 12.1241 3.56987C12.2571 3.53964 12.393 3.52431 12.5294 3.52416Z" fill="#0A79B8"/>
</svg>
