<svg width="22" height="22" viewBox="0 0 22 22" fill="none" xmlns="http://www.w3.org/2000/svg">
<g clip-path="url(#clip0_5167_12750)">
<path d="M3.52492 17.9218C2.38332 18.2439 2 18.6679 2 18.789C2 18.8504 2.1805 19.1679 3.01432 19.4878C3.86271 19.8133 5.05158 20 6.27611 20C7.50069 20 8.68956 19.8133 9.53795 19.4878C10.3718 19.1679 10.5522 18.8504 10.5522 18.789C10.5522 18.6679 10.169 18.2438 9.02735 17.9218C8.23436 18.5326 7.27022 18.8653 6.27607 18.8653C5.28197 18.8653 4.31795 18.5327 3.52492 17.9218ZM6.27616 11.1839C4.47263 11.1839 3.00537 12.6952 3.00537 14.5529C3.00537 16.4106 4.47263 17.9218 6.27616 17.9218C8.07969 17.9218 9.54695 16.4106 9.54695 14.5529C9.54695 12.6952 8.07969 11.1839 6.27616 11.1839ZM6.40431 9.17552C5.9586 9.6577 5.32492 9.95954 4.62299 9.9604L4.62208 10.5267C5.08918 10.3108 5.60941 10.1904 6.15776 10.1904H6.53506C6.58947 10.1904 6.64387 10.1916 6.69822 10.1939C8.83687 10.284 10.4975 12.0907 10.4074 14.2294L10.3098 16.5468C10.469 16.8295 10.6312 17.1377 10.7966 17.4714C10.8281 17.5349 10.8809 17.6422 10.9551 17.7933L12.6048 17.7941V12.3111H16.26V17.7939H17.4498C18.1407 17.7939 18.7012 17.2263 18.7012 16.5263V9.95017C18.0751 9.90064 17.5139 9.61384 17.1087 9.17552C16.6624 9.65839 16.0278 9.9604 15.3247 9.9604C14.6216 9.9604 13.987 9.65839 13.5406 9.17552C13.0943 9.65839 12.4595 9.9604 11.7564 9.9604C11.0534 9.9604 10.4188 9.65839 9.97239 9.17552C9.52609 9.65839 8.89148 9.9604 8.18835 9.9604C7.48523 9.9604 6.85087 9.65839 6.40431 9.17552ZM5.37912 12.2935H6.24939V13.3062L7.41224 12.7214V13.1992L6.24939 13.784V14.2334L7.41224 13.6485V14.1264L6.24939 14.7112V16.1447C6.39943 16.1352 6.54948 16.1055 6.69952 16.0556C6.84957 16.0057 6.98211 15.9355 7.09714 15.8452C7.21218 15.7549 7.30596 15.6479 7.37848 15.5243C7.451 15.4006 7.48726 15.2604 7.48726 15.1035C7.48726 15.0702 7.48601 15.0333 7.48351 14.9929C7.48101 14.9525 7.47226 14.9038 7.45725 14.8467L8.17747 14.6755C8.21248 14.8229 8.22999 14.9537 8.22999 15.0678C8.22999 15.3816 8.16247 15.6562 8.02743 15.8916C7.89238 16.1269 7.70108 16.3218 7.4535 16.4764C7.20593 16.6309 6.90584 16.745 6.55323 16.8187C6.20062 16.8924 5.80925 16.9245 5.37912 16.915V15.1177L4.74893 15.4315V14.9537L5.37912 14.6399V14.1906L4.74893 14.5044V14.0265L5.37912 13.7056V12.2935ZM4.62087 8.62223C5.24028 8.62223 5.74432 8.11167 5.74432 7.48424C5.74432 7.11464 6.04002 6.81511 6.40491 6.81511C6.7698 6.81511 7.0655 7.11464 7.0655 7.48424C7.0655 8.11167 7.56928 8.62223 8.18895 8.62223C8.80862 8.62223 9.3124 8.11167 9.3124 7.48424C9.3124 7.11464 9.6081 6.81511 9.97299 6.81511C10.3379 6.81511 10.6336 7.11464 10.6336 7.48424C10.6336 8.11167 11.1376 8.62223 11.757 8.62223C12.3764 8.62223 12.8806 8.11167 12.8806 7.48424C12.8806 7.11464 13.1763 6.81511 13.5412 6.81511C13.9061 6.81511 14.2018 7.11464 14.2018 7.48424C14.2018 8.11167 14.7059 8.62223 15.3253 8.62223C15.9447 8.62223 16.4487 8.11167 16.4487 7.48424C16.4487 7.11464 16.7444 6.81511 17.1093 6.81511C17.4742 6.81511 17.7699 7.11464 17.7699 7.48424C17.7699 8.11167 18.2739 8.62223 18.8935 8.62223C19.4466 8.62223 19.9075 8.21521 20 7.68143L16.5898 3H6.69746L3.50641 7.62364C3.57365 8.18571 4.04798 8.62223 4.62087 8.62223Z" fill="#0A79B8"/>
</g>
<defs>
<clipPath id="clip0_5167_12750">
<rect width="22" height="22" fill="white"/>
</clipPath>
</defs>
</svg>
