<svg width="22" height="22" viewBox="0 0 22 22" fill="none" xmlns="http://www.w3.org/2000/svg">
<path d="M12.2523 2.08597L12.2869 2.09146C14.4092 2.39551 16.3591 3.45611 17.7776 5.07826C19.2108 6.71743 20 8.82036 20 11.0001C20 13.404 19.064 15.6641 17.364 17.3639C15.6641 19.0638 13.4041 20 11 20C8.59605 20 6.33589 19.0638 4.63603 17.3639C2.93617 15.6641 2 13.404 2 11.0001C2 8.52895 3.01102 6.19585 4.76141 4.51273L2.52542 4.50765L2.52789 3.45419L6.63692 3.4638V5.57278C7.83072 4.61174 9.34807 4.03619 11 4.03619C14.846 4.03619 17.9638 7.154 17.9638 11.0001C17.9638 14.846 14.846 17.9639 11 17.9639C7.15396 17.9639 4.03618 14.846 4.03618 11.0001C4.03618 9.34194 4.61598 7.8195 5.58347 6.62363V5.18496C3.98152 6.67733 3.05331 8.77532 3.05331 11.0001C3.05331 15.3819 6.61824 18.9467 11 18.9467C15.3819 18.9467 18.9467 15.3819 18.9467 11.0002C18.9467 7.07009 16.0179 3.6882 12.1339 3.13366L12.0871 3.12624L12.2523 2.08597ZM13.1118 10.5409C13.0002 10.6005 12.9289 10.7265 12.9286 10.865V11.9451H10.3571C10.1796 11.9451 10.0357 12.1063 10.0357 12.3051V13.0252C10.0357 13.2241 10.1796 13.3853 10.3571 13.3853H12.9286V14.4654C12.9287 14.6067 13.0027 14.7349 13.1177 14.7931C13.2326 14.8512 13.3674 14.8287 13.4621 14.7354L15.3907 12.8524C15.4427 12.8012 15.4781 12.7331 15.4926 12.6586L15.5 12.5824C15.4976 12.4754 15.4529 12.3751 15.3779 12.3087L13.4493 10.5913C13.3546 10.5037 13.2236 10.4841 13.1118 10.5409ZM8.53786 7.71456L6.60929 9.5976C6.55727 9.64879 6.52187 9.71691 6.50737 9.79141L6.5 9.86763C6.50237 9.97465 6.54714 10.0749 6.62214 10.1413L8.55071 11.8587C8.64538 11.9463 8.77636 11.9659 8.88821 11.9091C8.99984 11.8495 9.07108 11.7235 9.07143 11.585V10.5049H11.6429C11.8204 10.5049 11.9643 10.3437 11.9643 10.1449V9.42478C11.9643 9.22593 11.8204 9.06473 11.6429 9.06473H9.07143V7.9846C9.07127 7.84328 8.99732 7.71513 8.88234 7.65694C8.76737 7.59875 8.63264 7.62129 8.53786 7.71456ZM8.5322 2.34278L8.82045 3.35586C8.64041 3.40708 8.45982 3.46559 8.28336 3.52972C8.09343 3.5988 7.90337 3.67639 7.71852 3.7603L7.28319 2.80105C7.49248 2.70601 7.70795 2.61812 7.92342 2.53984C8.12337 2.46706 8.32812 2.40073 8.5322 2.34278ZM11 2V3.05346C10.5806 3.05346 10.1597 3.08628 9.74879 3.15124L9.58441 2.11083C10.0494 2.03735 10.5258 2 11 2Z" fill="#0A79B8"/>
</svg>
