<svg width="22" height="22" viewBox="0 0 22 22" fill="none" xmlns="http://www.w3.org/2000/svg">
<path fill-rule="evenodd" clip-rule="evenodd" d="M16.1968 10.5686L20.8705 14.2205C20.9641 14.2911 21.0126 14.4069 20.9972 14.5235C20.9818 14.6401 20.905 14.7392 20.7963 14.7829C20.7766 14.7908 20.4488 14.797 19.9246 14.801L19.9223 20.3719C19.9223 20.4427 19.8652 20.5 19.7948 20.5H12.2011C12.1307 20.5 12.0736 20.4427 12.0736 20.3719L12.0722 14.7453C11.4714 14.7272 11.0897 14.7045 11.0682 14.6767C10.9583 14.5347 10.9839 14.3301 11.1253 14.2198L15.799 10.5686C15.916 10.4771 16.0798 10.4771 16.1968 10.5686ZM16.1315 13L14.2707 14.9274C13.2431 15.9919 13.2431 17.7178 14.2707 18.7823C15.2984 19.8468 16.9646 19.8468 17.9922 18.7823C19.0199 17.7178 19.0199 15.9919 17.9922 14.9274L16.1315 13ZM16.5696 13.5V15.9545H17.8861L15.5165 19.5V17.0455H14.2L16.5696 13.5ZM14 3C15.1046 3 16 3.89543 16 5V8.8C14.1251 10.2999 12.2502 11.7998 10.3753 13.2998C10.1381 13.4895 10 13.7768 10 14.0806V14.8C10 15.3302 10.4298 15.76 10.96 15.76V18.117L10.0068 17.2499L7.81437 18.9979L6.08017 17.2732L4 18.9403V5C4 3.89543 4.89543 3 6 3H14ZM9.65209 11.7159H6.79235C6.35475 11.7159 6 12.0706 6 12.5082C6 12.9458 6.35475 13.3006 6.79235 13.3006H9.65209C10.0897 13.3006 10.4444 12.9458 10.4444 12.5082C10.4444 12.0706 10.0897 11.7159 9.65209 11.7159ZM11.701 8.54647H6.79235C6.35475 8.54647 6 8.90122 6 9.33882C6 9.77642 6.35475 10.1312 6.79235 10.1312H11.701C12.1386 10.1312 12.4934 9.77642 12.4934 9.33882C12.4934 8.90122 12.1386 8.54647 11.701 8.54647ZM13.2076 5.37706H6.79235C6.35475 5.37706 6 5.73181 6 6.16941C6 6.60701 6.35475 6.96176 6.79235 6.96176H13.2076C13.6453 6.96176 14 6.60701 14 6.16941C14 5.73181 13.6453 5.37706 13.2076 5.37706Z" fill="#0A79B8"/>
</svg>
