<svg width="22" height="22" viewBox="0 0 22 22" fill="none" xmlns="http://www.w3.org/2000/svg">
<path d="M18.6824 12.1032H16.4588V8.15484H16.7765C16.9671 8.15484 17.0941 8.02323 17.0941 7.82581V7.16774C17.0941 6.97032 16.9671 6.83871 16.7765 6.83871H8.51765C8.32706 6.83871 8.2 6.97032 8.2 7.16774V7.82581C8.2 8.02323 8.32706 8.15484 8.51765 8.15484H8.83529V12.1032H6.61176C6.42118 12.1032 6.29412 12.2348 6.29412 12.4323V13.0903C6.29412 13.2877 6.42118 13.4194 6.61176 13.4194H6.92941V19.671C6.92941 19.8684 7.05647 20 7.24706 20H11.0588C11.2494 20 11.3765 19.8684 11.3765 19.671V16.0516C11.3765 15.7226 11.6941 15.3935 12.0118 15.3935H13.2824C13.6 15.3935 13.9176 15.7226 13.9176 16.0516V19.671C13.9176 19.8684 14.0447 20 14.2353 20H18.0471C18.2376 20 18.3647 19.8684 18.3647 19.671V13.4194H18.6824C18.8729 13.4194 19 13.2877 19 13.0903V12.4323C19 12.2348 18.8729 12.1032 18.6824 12.1032ZM9.47059 18.6839H8.2V17.3677H9.47059V18.6839ZM9.47059 16.0516H8.2V14.7355H9.47059V16.0516ZM12.6471 11.4452C11.9482 11.4452 11.3765 10.8529 11.3765 10.129C11.3765 9.40516 11.9482 8.8129 12.6471 8.8129C13.3459 8.8129 13.9176 9.40516 13.9176 10.129C13.9176 10.8529 13.3459 11.4452 12.6471 11.4452ZM17.0941 18.6839H15.8235V17.3677H17.0941V18.6839ZM17.0941 14.7355V16.0516H15.8235V14.7355H17.0941ZM5.23529 3C7.1313 3 8.73632 4.29053 9.27635 6.06983L8.11309 6.07097C7.81023 6.07097 7.56471 6.31649 7.56471 6.61935V8.2759C7.56471 8.42627 7.66919 8.55224 7.80952 8.58516L7.95519 8.60194C8.09552 8.63486 8.2 8.76083 8.2 8.9112V10.3484C8.2 10.4034 8.20253 10.4578 8.20748 10.5115C7.44304 11.2927 6.39346 11.7742 5.23529 11.7742C2.89621 11.7742 1 9.81002 1 7.3871C1 4.96417 2.89621 3 5.23529 3ZM5.15 4.6L3.62971 6.17478C2.79009 7.0445 2.7901 8.4546 3.62972 9.32431C4.46935 10.194 5.83065 10.194 6.67028 9.32431C7.5099 8.4546 7.50991 7.0445 6.67029 6.17478L5.15 4.6ZM5.50797 5.00852V7.01396H6.58356L4.64751 9.91071V7.90527H3.57192L5.50797 5.00852Z" fill="#0A79B8"/>
</svg>
