<svg width="22" height="22" viewBox="0 0 22 22" fill="none" xmlns="http://www.w3.org/2000/svg">
<g clip-path="url(#clip0_5167_12200)">
<path fill-rule="evenodd" clip-rule="evenodd" d="M12.2852 13.9139V15.3839H11.7675V14.4383H10.2327V15.3839H9.71482V13.9139H12.2852ZM13.3196 12.8645V16.9226H12.8017V13.3855H9.19692V16.9226H8.67902V12.8583L13.3196 12.8645ZM14.3568 11.8027V18.482H13.8389L13.839 12.3271H8.15709L8.16103 18.482H7.64322V11.8027H14.3568ZM9.71482 8.10798V6.61622H10.2327V7.58375H11.7675V6.61622H12.2852V8.10798H9.71482ZM8.67902 9.16402V5.07748H9.19692V8.63961H12.802V5.07748H13.32V9.16402H8.67902ZM7.64322 10.2193V3.53874H8.16103V9.69494H13.843L13.8389 3.53874H14.3568V10.2193H7.64322ZM17.9821 15.3838H18.5V6.61622H17.9821V15.3838ZM16.9464 16.9226H17.4642V5.07748H16.9464V16.9226ZM15.9106 18.4794H16.4284V3.53874H15.9106V18.4794ZM14.8748 20V11.2765H7.12531V20H6.60732V2H7.12531V10.7487H14.8748V2H15.3926V20H14.8748ZM3.5 15.3839H4.0179V6.61631H3.5V15.3839ZM4.5358 16.9226H5.05371V5.07748H4.5358V16.9226ZM5.57161 18.462H6.0896V3.53731H5.57161V18.462Z" fill="#0A79B8"/>
</g>
<defs>
<clipPath id="clip0_5167_12200">
<rect width="22" height="22" fill="white"/>
</clipPath>
</defs>
</svg>
