<svg width="22" height="22" viewBox="0 0 22 22" fill="none" xmlns="http://www.w3.org/2000/svg">
<g clip-path="url(#clip0_5167_12454)">
<path d="M5.8 5C5.1375 5 4.6 5.5375 4.6 6.2V7.4H3.4C3.18 7.4 3 7.58 3 7.8C3 8.02 3.18 8.2 3.4 8.2H4.6H9.8C10.02 8.2 10.2 8.38 10.2 8.6C10.2 8.82 10.02 9 9.8 9H4.6H4.2C3.98 9 3.8 9.18 3.8 9.4C3.8 9.62 3.98 9.8 4.2 9.8H4.6H9C9.22 9.8 9.4 9.98 9.4 10.2C9.4 10.42 9.22 10.6 9 10.6H4.6H3.4C3.18 10.6 3 10.78 3 11C3 11.22 3.18 11.4 3.4 11.4H4.6H8.2C8.42 11.4 8.6 11.58 8.6 11.8C8.6 12.02 8.42 12.2 8.2 12.2H4.6V15.4C4.6 16.725 5.675 17.8 7 17.8C8.325 17.8 9.4 16.725 9.4 15.4H12.6C12.6 16.725 13.675 17.8 15 17.8C16.325 17.8 17.4 16.725 17.4 15.4H18.2C18.6425 15.4 19 15.0425 19 14.6C19 14.1575 18.6425 13.8 18.2 13.8V12.2V11.4V10.9325C18.2 10.5075 18.0325 10.1 17.7325 9.8L15.8 7.8675C15.5 7.5675 15.0925 7.4 14.6675 7.4H13.4V6.2C13.4 5.5375 12.8625 5 12.2 5H5.8ZM16.6 10.9325V11.4H13.4V9H14.6675L16.6 10.9325ZM7 14.2C7.66274 14.2 8.2 14.7373 8.2 15.4C8.2 16.0627 7.66274 16.6 7 16.6C6.33726 16.6 5.8 16.0627 5.8 15.4C5.8 14.7373 6.33726 14.2 7 14.2ZM13.8 15.4C13.8 14.7373 14.3373 14.2 15 14.2C15.6627 14.2 16.2 14.7373 16.2 15.4C16.2 16.0627 15.6627 16.6 15 16.6C14.3373 16.6 13.8 16.0627 13.8 15.4Z" fill="#0A79B8"/>
</g>
<defs>
<clipPath id="clip0_5167_12454">
<rect width="22" height="22" fill="white"/>
</clipPath>
</defs>
</svg>
