<svg width="22" height="22" viewBox="0 0 22 22" fill="none" xmlns="http://www.w3.org/2000/svg">
<g clip-path="url(#clip0_5167_13049)">
<path d="M15.4623 9.74427C15.0663 10.1689 14.9339 10.7678 15.1187 11.3219L15.3634 12.056C13.578 11.5893 11.84 12.9452 11.84 14.7773C11.84 16.3282 13.1017 17.5898 14.6526 17.5898C16.4833 17.5898 17.841 15.8535 17.3739 14.0665L18.1083 14.3113C18.6363 14.4872 19.2449 14.3792 19.6858 13.9683C19.728 14.2319 19.7502 14.502 19.7502 14.7773C19.7502 17.5882 17.4634 19.875 14.6526 19.875C11.8417 19.875 9.55488 17.5882 9.55488 14.7773C9.55488 11.6363 12.3748 9.2493 15.4623 9.74427ZM14.6368 3V8.62521C12.7309 8.63006 11.0259 9.50588 9.89973 10.875H8.55471C8.26348 10.875 8.02737 11.1111 8.02737 11.4023C8.02737 11.6936 8.26348 11.9297 8.55471 11.9297H9.20025C8.86423 12.5704 8.63782 13.2772 8.54624 14.0251C8.25894 14.0296 8.02737 14.2636 8.02737 14.552C8.02737 14.8273 8.23845 15.0531 8.5076 15.0769C8.57647 16.506 9.13525 17.8086 10.0191 18.8203H3.52735C3.23611 18.8203 3 18.5842 3 18.293V4.33594C3 3.59931 3.59931 3 4.33594 3H14.6368ZM14.6526 13.0195C14.9455 13.0195 15.2217 13.092 15.4649 13.2193L14.2797 14.4045C14.0737 14.6104 14.0737 14.9443 14.2797 15.1502C14.4856 15.3562 14.8194 15.3562 15.0254 15.1502L16.2107 13.965C16.338 14.2082 16.4104 14.4844 16.4104 14.7773C16.4104 15.7466 15.6218 16.5352 14.6526 16.5352C13.6833 16.5352 12.8947 15.7466 12.8947 14.7773C12.8947 13.8081 13.6833 13.0195 14.6526 13.0195ZM6.58223 13.6693L5.91798 14.3336L5.7635 14.1791C5.55756 13.9732 5.22364 13.9732 5.01773 14.1791C4.81179 14.385 4.81179 14.7189 5.01773 14.9249L5.54508 15.4522C5.75102 15.6581 6.0849 15.6581 6.29085 15.4522L7.32796 14.4151C7.53391 14.2092 7.53391 13.8753 7.328 13.6693C7.12205 13.4634 6.78814 13.4634 6.58223 13.6693ZM18.1111 8.58429C18.3882 8.30719 18.8605 8.41927 18.9842 8.79041L19.398 10.0318L20.6395 10.4456C21.0113 10.5696 21.1222 11.0422 20.8455 11.3188L18.9811 13.1832C18.8806 13.2838 18.7458 13.3377 18.6081 13.3377L18.572 13.337C18.453 13.3312 18.368 13.2774 16.9499 12.8134C16.7924 12.761 16.6689 12.6374 16.6164 12.4799L16.1192 10.9884C16.0561 10.7989 16.1054 10.59 16.2466 10.4487L18.1111 8.58429ZM6.58223 10.5197L5.91798 11.1839L5.7635 11.0294C5.55756 10.8235 5.22364 10.8235 5.01773 11.0294C4.81179 11.2354 4.81179 11.5693 5.01773 11.7752L5.54508 12.3026C5.75102 12.5085 6.0849 12.5085 6.29085 12.3026L7.32796 11.2654C7.53391 11.0595 7.53391 10.7256 7.328 10.5197C7.12205 10.3137 6.78814 10.3137 6.58223 10.5197ZM6.58223 7.32046L5.91798 7.98466L5.7635 7.83022C5.55756 7.62428 5.22364 7.62428 5.01773 7.83022C4.81179 8.03617 4.81179 8.37005 5.01773 8.57599L5.54508 9.10334C5.75102 9.30932 6.08494 9.30928 6.29085 9.10334L7.32796 8.06623C7.53391 7.86032 7.53391 7.5264 7.328 7.32046C7.12205 7.11451 6.78814 7.11451 6.58223 7.32046ZM11.8946 7.71094H8.55471C8.26344 7.71094 8.02737 7.94705 8.02737 8.23828C8.02737 8.52952 8.26348 8.76562 8.55471 8.76562H11.8946C12.1858 8.76562 12.4219 8.52952 12.4219 8.23828C12.4219 7.94705 12.1858 7.71094 11.8946 7.71094Z" fill="#0A79B8"/>
</g>
<defs>
<clipPath id="clip0_5167_13049">
<rect width="22" height="22" fill="white"/>
</clipPath>
</defs>
</svg>
