<svg width="22" height="22" viewBox="0 0 22 22" fill="none" xmlns="http://www.w3.org/2000/svg">
<path fill-rule="evenodd" clip-rule="evenodd" d="M12.3323 3.36365C12.9273 3.36365 13.4661 3.60484 13.856 3.99479C14.2216 4.36039 14.4564 4.85675 14.4843 5.40766C14.1264 5.01207 13.8822 4.61949 13.6044 4.33964C13.2329 3.96561 12.7998 3.77923 12.3256 3.77923L11.763 3.77837L8.13152 3.77819L7.02572 3.77923C6.54543 3.77923 6.11062 3.9739 5.79588 4.28865C5.48113 4.60339 5.28646 5.03821 5.28646 5.51849V16.4815C5.28646 16.9618 5.48113 17.3966 5.79588 17.7114C6.11062 18.0261 6.54543 18.2208 7.02572 18.2208H12.3251C12.8054 18.2208 13.2402 18.0261 13.5549 17.7114C13.8218 17.4445 14.0024 17.0913 14.0511 16.6972C14.3857 17.0853 14.1799 17.5672 13.8748 17.9264C13.4862 18.3841 12.9386 18.6364 12.3323 18.6364H7.01849C6.42345 18.6364 5.88474 18.3952 5.49479 18.0052C5.10484 17.6153 4.86365 17.0766 4.86365 16.4815V5.51849C4.86365 4.92345 5.10484 4.38474 5.49479 3.99479C5.88474 3.60484 6.42345 3.36365 7.01849 3.36365H12.3323Z" stroke="#0A79B8" stroke-width="0.727273"/>
<path fill-rule="evenodd" clip-rule="evenodd" d="M14.0789 6.63635C16.5206 6.63635 18.5 8.59002 18.5 11C18.5 13.41 16.5206 15.3636 14.0789 15.3636C11.6373 15.3636 9.6579 13.41 9.6579 11C9.6579 8.59002 11.6373 6.63635 14.0789 6.63635ZM14.1213 8.79999H13.2389V10.207L12.6 10.5268V11.003L13.2389 10.6903V11.138L12.6 11.4506V11.9268L13.2389 11.6141V13.4049C13.6751 13.4144 14.0719 13.3824 14.4294 13.309C14.7869 13.2355 15.0911 13.1218 15.3421 12.9679C15.5932 12.8139 15.7871 12.6196 15.924 12.3851C16.061 12.1506 16.1294 11.877 16.1294 11.5644C16.1294 11.4507 16.1117 11.3204 16.0762 11.1735L15.3459 11.3441C15.3612 11.4009 15.37 11.4495 15.3726 11.4897C15.3751 11.53 15.3764 11.5667 15.3764 11.5999C15.3764 11.7562 15.3396 11.896 15.2661 12.0192C15.1925 12.1423 15.0975 12.2489 14.9808 12.3389C14.8642 12.429 14.7298 12.4988 14.5777 12.5486C14.4256 12.5983 14.2734 12.6279 14.1213 12.6374V11.209L15.3003 10.6263V10.1502L14.1213 10.7329V10.2852L15.3003 9.70249V9.22637L14.1213 9.80909V8.79999Z" fill="#0A79B8"/>
</svg>
