<svg width="22" height="22" viewBox="0 0 22 22" fill="none" xmlns="http://www.w3.org/2000/svg">
<g clip-path="url(#clip0_5167_12756)">
<path d="M16.0532 3.30949C16.9462 3.30949 17.6702 4.01578 17.6702 4.88703L17.67 9.22449H16.861L16.8617 8.71255H2.30851V12.7747C2.30851 13.2103 2.67049 13.5635 3.11702 13.5635L13.0484 13.5633C13.1644 13.8498 13.3212 14.1154 13.5117 14.3529L3.11702 14.3522C2.22397 14.3522 1.5 13.6459 1.5 12.7747V4.88703C1.5 4.01578 2.14681 3.30949 3.11702 3.30949H16.0532ZM7.32128 11.7887C7.4695 11.7887 7.69858 11.9662 7.69858 12.1831C7.69858 12.4 7.4695 12.5775 7.32128 12.5775H3.48085C3.33262 12.5775 3.11702 12.4 3.11702 12.1831C3.11702 11.9662 3.33262 11.7887 3.48085 11.7887H7.32128ZM10.7979 10.4084C10.9461 10.4084 11.2021 10.5859 11.2021 10.8028C11.2021 11.0197 10.9461 11.1972 10.7979 11.1972H3.48085C3.33262 11.1972 3.11702 11.0197 3.11702 10.8028C3.11702 10.5859 3.33262 10.4084 3.48085 10.4084H10.7979ZM16.0532 4.09826H3.11702C2.67049 4.09826 2.30851 4.4514 2.30851 4.88703V5.55748H16.8617V4.88703C16.8617 4.4514 16.4997 4.09826 16.0532 4.09826Z" fill="#0A79B8"/>
<path d="M16.8863 10.043C17.0012 10.0044 17.126 10.0044 17.2409 10.043L20.1271 11.0145C20.3503 11.0896 20.4998 11.2963 20.4998 11.5297V13.7153C20.4998 16.3024 17.137 18.6905 17.0639 18.6905C16.9908 18.6905 13.6274 16.4716 13.6274 13.7153V11.5297C13.6274 11.2968 13.7775 11.0896 14.0002 11.0145L16.8863 10.043ZM17.0636 11.5916C16.3948 11.5916 15.8508 12.078 15.8508 12.6761V13.2184H15.6992C15.4486 13.2184 15.2445 13.4008 15.2445 13.6251V15.5231C15.2445 15.7474 15.4486 15.9298 15.6992 15.9298H18.428C18.6786 15.9298 18.8828 15.7474 18.8828 15.5231V13.6251C18.8828 13.4008 18.6786 13.2184 18.428 13.2184H18.2764V12.6761C18.2764 12.078 17.7325 11.5916 17.0636 11.5916ZM17.0636 13.9414C17.2866 13.9414 17.4679 14.1036 17.4679 14.3029C17.4679 14.4362 17.386 14.5515 17.2657 14.6142V15.026C17.2657 15.1258 17.1754 15.2067 17.0636 15.2067C16.9518 15.2067 16.8615 15.1258 16.8615 15.026V14.6142C16.7412 14.5515 16.6594 14.4362 16.6594 14.3029C16.6594 14.1036 16.8407 13.9414 17.0636 13.9414ZM17.0636 11.9531C17.5095 11.9531 17.8721 12.2774 17.8721 12.6761V13.2184H16.2551V12.6761C16.2551 12.2774 16.6177 11.9531 17.0636 11.9531Z" fill="#0A79B8"/>
</g>
<defs>
<clipPath id="clip0_5167_12756">
<rect width="22" height="22" fill="white"/>
</clipPath>
</defs>
</svg>
