<svg width="22" height="22" viewBox="0 0 22 22" fill="none" xmlns="http://www.w3.org/2000/svg">
<path fill-rule="evenodd" clip-rule="evenodd" d="M2 13.4391V7.83368C2 6.65529 2.95528 5.70001 4.13367 5.70001H16.9357C18.1141 5.70001 19.0694 6.65529 19.0694 7.83368V9.9325L16.65 9.1441C16.4895 9.09186 16.3151 9.09186 16.1546 9.1441L12.652 10.2855C12.5213 8.89331 11.6229 7.81559 10.5347 7.81559C9.35668 7.81559 8.40101 9.07879 8.40101 10.6365C8.40101 12.1927 9.35668 13.4572 10.5347 13.4572C10.9233 13.4572 11.2877 13.3196 11.6016 13.0793V14.111C11.6016 14.6133 11.6869 15.1024 11.8347 15.5728H4.13367C2.95528 15.5728 2 14.6175 2 13.4391ZM3.42252 12.0465V13.0953C3.42252 13.6845 3.90016 14.1621 4.48935 14.1621H5.55619C5.55619 12.9943 4.60052 12.0465 3.42252 12.0465ZM3.42252 8.17709V9.22583C4.60052 9.22583 5.55619 8.27826 5.55619 7.11025H4.48935C3.90016 7.11025 3.42252 7.58789 3.42252 8.17709ZM16.6429 7.15002H15.5C15.5 8.26973 16.4214 9.17812 17.5571 9.17812V8.0643C17.5571 7.55936 17.1478 7.15002 16.6429 7.15002ZM16.5234 10.2027C16.4008 10.1615 16.2677 10.1615 16.1451 10.2027L13.0661 11.2391C12.8286 11.3192 12.6685 11.5403 12.6685 11.7887V14.1204C12.6685 17.0609 16.2566 19.4281 16.3346 19.4281C16.4126 19.4281 20.0001 16.8805 20.0001 14.1204V11.7887C20.0001 11.5397 19.8406 11.3192 19.6025 11.2391L16.5234 10.2027ZM15.0405 13.0118C15.0405 12.3737 15.6207 11.8547 16.3343 11.8547C17.0478 11.8547 17.6281 12.3737 17.6281 13.0118V13.5903H17.7898C18.0572 13.5903 18.275 13.7849 18.275 14.0242V16.049C18.275 16.2883 18.0572 16.4829 17.7898 16.4829H14.8787C14.6113 16.4829 14.3936 16.2883 14.3936 16.049V14.0242C14.3936 13.7849 14.6113 13.5903 14.8787 13.5903H15.0405V13.0118ZM16.7656 14.7473C16.7656 14.5346 16.5721 14.3616 16.3343 14.3616C16.0964 14.3616 15.903 14.5346 15.903 14.7473C15.903 14.8894 15.9903 15.0125 16.1186 15.0794V15.5187C16.1186 15.6251 16.215 15.7115 16.3343 15.7115C16.4535 15.7115 16.5499 15.6251 16.5499 15.5187V15.0794C16.6782 15.0125 16.7656 14.8894 16.7656 14.7473ZM17.1968 13.0118C17.1968 12.5864 16.81 12.2404 16.3343 12.2404C15.8586 12.2404 15.4717 12.5864 15.4717 13.0118V13.5903H17.1968V13.0118Z" fill="#0A79B8"/>
</svg>
