<svg width="22" height="22" viewBox="0 0 22 22" fill="none" xmlns="http://www.w3.org/2000/svg">
<path d="M7.44259 15.0673C7.67945 16.1747 8.20053 17.1979 8.94733 18.0362C9.44055 18.5856 9.29565 19.4547 8.65753 19.8247C8.64638 19.8303 8.63802 19.836 8.62687 19.8416C8.18939 20.0967 7.63765 20.0406 7.26425 19.6958C6.26388 18.7707 5.58117 17.5484 5.31366 16.2083C5.53101 16.1411 5.74279 16.0541 5.94342 15.9392L7.44259 15.0673ZM5.09631 10.1053L7.54012 14.3637L5.66756 15.4542C4.4972 16.1326 3.00361 15.729 2.32927 14.5543C1.65213 13.3769 2.0534 11.8743 3.22096 11.193L5.09631 10.1053ZM8.71047 3.27338C8.72719 3.71632 8.85816 4.28822 9.10059 5.00869C9.52693 6.26743 10.2626 7.83173 11.171 9.41566C11.4497 9.89785 13.6148 13.6124 15.2505 14.63C14.3114 14.7562 13.0826 14.3833 11.9596 14.1899C10.4827 13.8675 9.17583 13.8423 8.07514 14.1731L5.53101 9.73806C6.36419 8.94469 6.99674 7.79529 7.45652 6.34592C7.52745 6.15121 7.59516 5.95076 7.6619 5.74853L7.8615 5.14053C8.09628 4.43427 8.34695 3.75506 8.71047 3.27338ZM13.938 7.8065C15.7827 11.0192 16.7636 13.9207 16.1338 14.288C15.6155 14.5908 14.1638 13.0769 12.6367 10.7417C13.4448 10.1782 13.704 9.07645 13.2024 8.20459C12.7036 7.33273 11.628 7.00753 10.7391 7.42804C9.50743 4.95263 8.94176 2.9566 9.45727 2.65663C10.0898 2.28938 12.0933 4.59379 13.938 7.8065ZM19.2636 8.35434C19.6576 8.34726 19.9859 8.64892 20.0001 9.04657C20.0143 9.44183 19.7066 9.77822 19.3132 9.7926L16.6967 9.90796L16.5825 9.90057C16.2457 9.8518 15.9811 9.56761 15.9682 9.21566C15.9539 8.8204 16.2617 8.48401 16.655 8.46964L19.2636 8.35434ZM18.8578 5.0916C19.0494 5.43437 18.9338 5.86897 18.5921 6.06946L16.3361 7.38122C16.226 7.44355 16.1044 7.4746 15.9806 7.4746C15.7261 7.4746 15.4911 7.34066 15.3583 7.11562C15.1588 6.7714 15.2776 6.33307 15.6206 6.13179L17.8766 4.82003C18.22 4.6257 18.6557 4.74304 18.8578 5.0916ZM16.0292 2.11574C16.3581 2.33155 16.4546 2.77078 16.2427 3.10478L14.8446 5.30987C14.7118 5.5209 14.4829 5.64397 14.239 5.64397C14.1003 5.64397 13.9671 5.60488 13.8477 5.52716C13.5184 5.31114 13.4209 4.86976 13.6341 4.54092L15.0331 2.33452C15.2466 1.99794 15.689 1.89729 16.0292 2.11574Z" fill="#0A79B8"/>
</svg>
