<svg width="22" height="22" viewBox="0 0 22 22" fill="none" xmlns="http://www.w3.org/2000/svg">
<path fill-rule="evenodd" clip-rule="evenodd" d="M14.4304 3.52658C14.4304 3.25679 14.663 3.03808 14.95 3.03808H15.9891C16.276 3.03808 16.5086 3.25679 16.5086 3.52658V7.43463H18.0673C18.2712 7.43487 18.4562 7.54727 18.5401 7.722C18.6241 7.89674 18.5916 8.1015 18.457 8.24555L15.7397 11.1766C15.6412 11.282 15.4993 11.3425 15.35 11.3427C15.1956 11.3391 15.0509 11.271 14.9552 11.157L12.4769 8.22601C12.3504 8.08214 12.3222 7.88308 12.4041 7.71308C12.4901 7.54343 12.6719 7.43516 12.8717 7.43463H14.4304V3.52658ZM7.2734 2.18563C7.36913 2.07164 7.51384 2.00361 7.66827 2C7.8175 2.00018 7.95944 2.06068 8.05793 2.16609L10.7752 5.09713C10.9098 5.24118 10.9423 5.44594 10.8584 5.62068C10.7744 5.79541 10.5895 5.90781 10.3856 5.90805H8.82688V7.73995C8.82688 8.00974 8.59427 8.22845 8.30732 8.22845H7.26821C6.98126 8.22845 6.74865 8.00974 6.74865 7.73995V5.90805H5.18997C4.99012 5.90752 4.80831 5.79925 4.72237 5.6296C4.6404 5.4596 4.66863 5.26054 4.79511 5.11667L7.2734 2.18563ZM19.3797 19.1681C19.3797 18.7965 19.0784 18.4952 18.7068 18.4952H11.74C11.3684 18.4952 11.0671 18.7965 11.0671 19.1681V19.3272C11.0671 19.6988 11.3684 20 11.74 20H18.7068C19.0784 20 19.3797 19.6988 19.3797 19.3272V19.1681ZM13.1979 12.9614C12.4873 10.8162 10.4434 9.26653 8.0329 9.26653C5.03238 9.26653 2.59998 11.6676 2.59998 14.6296C2.59998 17.5915 5.03238 19.9926 8.0329 19.9926C8.77316 19.9926 9.47884 19.8465 10.122 19.5818L10.7228 15.3763C10.9065 14.0907 11.9345 13.1095 13.1979 12.9614ZM7.36079 11.0096H8.3795V12.063C9.2231 12.063 9.90749 12.7708 9.90749 13.6432H8.88878C8.88878 13.3521 8.66111 13.1165 8.3795 13.1165H7.36079C7.07933 13.1165 6.85151 13.3521 6.85151 13.6432C6.85151 13.9344 7.07933 14.17 7.36079 14.17H8.3795C9.2231 14.17 9.90749 14.8778 9.90703 15.7502C9.90703 16.6227 9.22295 17.3293 8.3795 17.3304V18.3838H7.36079V17.3304C6.51718 17.3304 5.8328 16.6227 5.8328 15.7502H6.85151C6.85151 16.0413 7.07933 16.2769 7.36079 16.2769H8.37843C8.62875 16.2769 8.83657 16.0908 8.87966 15.845L8.88878 15.7502C8.88878 15.459 8.66111 15.2234 8.3795 15.2234H7.36079C6.51718 15.2234 5.8328 14.5156 5.8328 13.6432C5.8328 12.7704 6.51718 12.063 7.36079 12.063V11.0096ZM18.8255 17.0542C18.8255 16.6826 18.5243 16.3814 18.1527 16.3814H12.2942C11.9226 16.3814 11.6213 16.6826 11.6213 17.0542V17.2133C11.6213 17.5849 11.9226 17.8862 12.2942 17.8862H18.1527C18.5243 17.8862 18.8255 17.5849 18.8255 17.2133V17.0542ZM18.4113 14.9404C18.4113 14.5688 18.11 14.2676 17.7384 14.2676H12.8497C12.4781 14.2676 12.1769 14.5688 12.1769 14.9404V15.0995C12.1769 15.4711 12.4781 15.7723 12.8497 15.7723H17.7384C18.11 15.7723 18.4113 15.4711 18.4113 15.0995V14.9404Z" fill="#0A79B8"/>
</svg>
