<svg width="22" height="22" viewBox="0 0 22 22" fill="none" xmlns="http://www.w3.org/2000/svg">
<path d="M6.80556 8.15719C10.0119 8.15719 12.6111 10.7943 12.6111 14.0473C12.6111 17.3004 10.0119 19.9375 6.80556 19.9375C3.59923 19.9375 1 17.3004 1 14.0473C1 10.7943 3.59923 8.15719 6.80556 8.15719ZM3.13333 12.3333L1.8 14.3333H2.81693C2.98736 16.3828 4.70739 18 6.8 18C7.78953 18 8.69906 17.6389 9.39766 17.0417C9.49301 16.9658 9.53934 16.8439 9.51847 16.7238C9.49761 16.6037 9.41289 16.5046 9.29752 16.4653C9.18216 16.426 9.05454 16.4528 8.96471 16.5352C8.38198 17.0333 7.6278 17.3333 6.8 17.3333C5.06781 17.3333 3.64967 16.0207 3.48294 14.3333H4.46667L3.13333 12.3333ZM18.0759 4.5C19.1382 4.5 19.9993 5.36113 19.9993 6.42338V15.8722C19.9993 16.9345 19.1382 17.7956 18.0759 17.7956L12.5875 17.7955C13.2702 16.7136 13.666 15.4274 13.666 14.0473C13.666 10.2028 10.5942 7.08625 6.80488 7.08625C5.44439 7.08625 4.17639 7.488 3.10983 8.18094L3.11043 4.5H18.0759ZM6.8 10C5.81047 10 4.90094 10.3611 4.20234 10.9583C4.10699 11.0342 4.06067 11.1561 4.08153 11.2762C4.10239 11.3963 4.18711 11.4954 4.30248 11.5347C4.41785 11.574 4.54546 11.5472 4.63529 11.4648C5.21802 10.9667 5.9722 10.6667 6.8 10.6667C8.53219 10.6667 9.95033 11.9793 10.1171 13.6667H9.13333L10.4667 15.6667L11.8 13.6667H10.7831C10.6126 11.6172 8.89261 10 6.8 10ZM16.6471 10.4043C16.0137 10.4043 15.4956 10.9356 15.4956 11.5851C15.4956 12.2346 16.0137 12.7659 16.6471 12.7659C17.2805 12.7659 17.7986 12.2346 17.7986 11.5851C17.7986 10.9356 17.2805 10.4043 16.6471 10.4043Z" fill="#0A79B8"/>
</svg>
