<svg width="22" height="22" viewBox="0 0 22 22" fill="none" xmlns="http://www.w3.org/2000/svg">
<path d="M6.52436 4.01481L6.62864 4.02182C7.00375 4.07271 7.29287 4.39426 7.29287 4.78333V5.33812C7.29287 6.06896 7.88534 6.66142 8.61618 6.66142H16.193C17.7432 6.66142 19 7.91817 19 9.46844V15.4151C19 16.9654 17.7432 18.2221 16.193 18.2221L9.89676 18.2218L9.94163 18.1764C11.5355 16.4293 11.4824 13.7236 9.78224 12.0405C8.21898 10.493 5.78241 10.3239 4.02826 11.5331L4.02923 6.52453C4.02923 5.13928 5.14716 4.01481 6.52436 4.01481ZM16.0285 11.7953C15.4671 11.7953 15.0078 12.2573 15.0078 12.822C15.0078 13.3867 15.4671 13.8487 16.0285 13.8487C16.59 13.8487 17.0493 13.3867 17.0493 12.822C17.0493 12.2573 16.59 11.7953 16.0285 11.7953ZM10.0799 4.01481C10.5967 4.01481 11.0156 4.43372 11.0156 4.95048V6.04443H8.02143V5.36789C8.02143 4.62363 8.56032 4.01481 9.21909 4.01481H10.0799ZM15.1949 3C16.7452 3 18.0019 4.25674 18.0019 5.80702V6.04443H12.0136V5.80702C12.0136 4.25674 13.2704 3 14.8207 3H15.1949Z" fill="#0A79B8"/>
<path d="M10.1813 15.2812C10.1813 13.2646 8.5571 11.6238 6.56078 11.6238C4.56445 11.6238 2.94022 13.2646 2.94022 15.2812C2.94022 17.2978 4.56445 18.9385 6.56078 18.9385C8.5571 18.9385 10.1813 17.2978 10.1813 15.2812ZM7.14664 16.8591C7.15082 17.1661 6.9019 17.4109 6.58972 17.4068C6.43403 17.4048 6.29186 17.3409 6.1883 17.239C6.08474 17.1372 6.01977 16.9974 6.01769 16.8443L6.00387 15.829L4.97152 15.8154C4.81583 15.8133 4.67367 15.7494 4.57009 15.6476C4.46654 15.5457 4.40157 15.4059 4.39949 15.2528C4.39531 14.9458 4.64423 14.7009 4.95641 14.7051L5.98876 14.7186L5.97495 13.7033C5.97077 13.3963 6.21969 13.1515 6.53187 13.1556C6.84405 13.1597 7.09973 13.4112 7.10391 13.7182L7.11772 14.7335L8.15007 14.7471C8.46225 14.7512 8.71793 15.0026 8.7221 15.3097C8.72628 15.6167 8.47736 15.8615 8.16518 15.8574L7.13283 15.8438L7.14664 16.8591Z" fill="#0A79B8"/>
</svg>
