<svg width="22" height="22" viewBox="0 0 22 22" fill="none" xmlns="http://www.w3.org/2000/svg">
<path d="M7.5 7.46471C10.5376 7.46471 13 9.96302 13 13.0449C13 16.1267 10.5376 18.625 7.5 18.625C4.46243 18.625 2 16.1267 2 13.0449C2 9.96302 4.46243 7.46471 7.5 7.46471ZM9.38464 12.445C9.28542 12.5037 9.2221 12.628 9.22179 12.7646V13.83H6.93607C6.77828 13.83 6.65036 13.989 6.65036 14.1852V14.8955C6.65036 15.0916 6.77828 15.2506 6.93607 15.2506H9.22179V16.3161C9.22193 16.4555 9.28766 16.5819 9.38986 16.6392C9.49206 16.6966 9.61182 16.6744 9.69607 16.5824L11.4104 14.725C11.4566 14.6745 11.4881 14.6073 11.5009 14.5338L11.5075 14.4586C11.5054 14.3531 11.4656 14.2542 11.3989 14.1887L9.68464 12.4947C9.6005 12.4082 9.48407 12.3889 9.38464 12.445ZM18.0766 4C19.1389 4 20 4.86113 20 5.92338V14.6725C20 15.7347 19.1389 16.5959 18.0766 16.5959L12.9781 16.596C13.625 15.571 14 14.3523 14 13.0449C14 9.40269 11.0899 6.45013 7.5 6.45013C6.21105 6.45013 5.00973 6.83078 3.99928 7.48731L4 4H18.0766ZM5.31893 9.65709L3.60464 11.5145C3.5584 11.565 3.52694 11.6322 3.51405 11.7057L3.5075 11.7809C3.50961 11.8864 3.5494 11.9853 3.61607 12.0508L5.33036 13.7448C5.4145 13.8313 5.53093 13.8506 5.63036 13.7945C5.72958 13.7358 5.7929 13.6115 5.79321 13.4749V12.4095H8.07893C8.23672 12.4095 8.36464 12.2505 8.36464 12.0543V11.344C8.36464 11.1479 8.23672 10.9889 8.07893 10.9889H5.79321V9.92345C5.79307 9.78405 5.72734 9.65765 5.62514 9.60026C5.52294 9.54286 5.40318 9.56509 5.31893 9.65709ZM16.8242 9.59357C16.2242 9.59357 15.7333 10.0969 15.7333 10.7122C15.7333 11.3275 16.2242 11.8308 16.8242 11.8308C17.4243 11.8308 17.9152 11.3275 17.9152 10.7122C17.9152 10.0969 17.4243 9.59357 16.8242 9.59357Z" fill="#0A79B8"/>
</svg>
