<svg width="22" height="22" viewBox="0 0 22 22" fill="none" xmlns="http://www.w3.org/2000/svg">
<path d="M7.5 8.46471C10.5376 8.46471 13 10.963 13 14.0449C13 17.1267 10.5376 19.625 7.5 19.625C4.46243 19.625 2 17.1267 2 14.0449C2 10.963 4.46243 8.46471 7.5 8.46471ZM18.0766 5C19.1389 5 20 5.86113 20 6.92338V15.6725C20 16.7347 19.1389 17.5959 18.0766 17.5959L12.9781 17.596C13.625 16.571 14 15.3523 14 14.0449C14 10.4027 11.0899 7.45013 7.5 7.45013C6.21105 7.45013 5.00973 7.83078 3.99928 8.48731L4 5H18.0766ZM9.24896 11.5084L7.5 13.2829L5.75104 11.5084L5 12.2704L6.74896 14.0449L5 15.8193L5.75104 16.5813L7.5 14.8068L9.24896 16.5813L10 15.8193L8.25104 14.0449L10 12.2704L9.24896 11.5084ZM16.8242 10.5936C16.2242 10.5936 15.7333 11.0969 15.7333 11.7122C15.7333 12.3275 16.2242 12.8308 16.8242 12.8308C17.4243 12.8308 17.9152 12.3275 17.9152 11.7122C17.9152 11.0969 17.4243 10.5936 16.8242 10.5936Z" fill="#0A79B8"/>
</svg>
