<svg width="22" height="22" viewBox="0 0 22 22" fill="none" xmlns="http://www.w3.org/2000/svg">
<path d="M18.7712 14.8758L15.1053 5.90389C15.0584 5.79501 14.9822 5.7005 14.8768 5.62037C14.7712 5.54006 14.6598 5.5 14.5426 5.5H11.5624C11.6385 5.5 11.7059 5.52715 11.7645 5.58154C11.8231 5.63608 11.8553 5.70041 11.8613 5.77488L11.9932 7.425C11.9991 7.50522 11.9757 7.57111 11.9231 7.62258C11.8702 7.67414 11.8058 7.69988 11.7296 7.69988H10.2702C10.194 7.69988 10.1297 7.67414 10.0769 7.62258C10.0241 7.57114 10.0007 7.50522 10.0067 7.425L10.1385 5.77488C10.1443 5.70041 10.1765 5.63608 10.2352 5.58154C10.2938 5.52724 10.3612 5.5 10.4374 5.5H7.45715C7.33996 5.5 7.22859 5.54006 7.12307 5.62037C7.01764 5.70041 6.94152 5.79501 6.89456 5.90389L3.22856 14.8758C3.07618 15.231 3 15.5632 3 15.8727C3 16.2909 3.13477 16.5 3.40441 16.5H9.59337C9.51719 16.5 9.45281 16.4728 9.4 16.4184C9.34725 16.3639 9.32382 16.2996 9.32976 16.225L9.50552 14.0252C9.51137 13.9507 9.54361 13.8863 9.60221 13.8318C9.66077 13.7773 9.72824 13.7503 9.80441 13.7503H12.1955C12.2718 13.7503 12.339 13.7773 12.3978 13.8318C12.4564 13.8863 12.4886 13.9507 12.4944 14.0252L12.6704 16.225C12.6764 16.2996 12.6527 16.3638 12.6002 16.4184C12.5475 16.4728 12.483 16.5 12.4067 16.5H18.5956C18.8651 16.5 19 16.2909 19 15.8727C19 15.5634 18.9237 15.2311 18.7712 14.8758ZM12.3275 11.8593C12.3332 11.9281 12.3098 11.9853 12.2571 12.0311C12.2045 12.077 12.1428 12.0999 12.0725 12.0999H9.92746C9.8571 12.0999 9.79545 12.077 9.74283 12.0311C9.69002 11.9852 9.66662 11.9279 9.67244 11.8593V11.8249L9.88349 9.07504C9.88934 9.00054 9.92158 8.93613 9.98017 8.88168C10.0388 8.82723 10.1062 8.80005 10.1824 8.80005H11.8174C11.8937 8.80005 11.9611 8.82713 12.0197 8.88168C12.0783 8.93613 12.1105 9.00054 12.1165 9.07504L12.3274 11.8249L12.3275 11.8593Z" fill="#0A79B8"/>
</svg>
