<svg width="22" height="22" viewBox="0 0 22 22" fill="none" xmlns="http://www.w3.org/2000/svg">
<path d="M6.80556 8.15719C10.0119 8.15719 12.6111 10.7943 12.6111 14.0473C12.6111 17.3004 10.0119 19.9375 6.80556 19.9375C3.59923 19.9375 1 17.3004 1 14.0473C1 10.7943 3.59923 8.15719 6.80556 8.15719ZM18.0759 4.5C19.1382 4.5 19.9993 5.36113 19.9993 6.42338V15.8722C19.9993 16.9345 19.1382 17.7956 18.0759 17.7956L12.5875 17.7955C13.2702 16.7136 13.666 15.4274 13.666 14.0473C13.666 10.2028 10.5942 7.08625 6.80488 7.08625C5.44439 7.08625 4.17639 7.488 3.10983 8.18094L3.11043 4.5H18.0759ZM9.07195 12.5334L8.24441 13.221V16.9H9.7V13.1614L9.07195 12.5334ZM6.26086 13.0858H5.97203V16.9H7.42761V13.8997L7.22604 14.0672L6.26086 13.0858ZM5.15561 14.3151H3.7V16.9H5.15561V14.3151ZM9.7 10.9H7.93573L8.48485 11.4491L7.30839 12.4267L6.31247 11.4138L3.7 13.2489L4.1929 13.9506L6.21053 12.5333L7.25001 13.5902L9.09385 12.0581L9.7 12.6643V10.9ZM16.6471 10.4043C16.0137 10.4043 15.4956 10.9356 15.4956 11.5851C15.4956 12.2346 16.0137 12.7659 16.6471 12.7659C17.2805 12.7659 17.7986 12.2346 17.7986 11.5851C17.7986 10.9356 17.2805 10.4043 16.6471 10.4043Z" fill="#0A79B8"/>
</svg>
