<svg width="22" height="22" viewBox="0 0 22 22" fill="none" xmlns="http://www.w3.org/2000/svg">
<g clip-path="url(#clip0_5167_13025)">
<path d="M17.7864 6.65717L20 6.77318L19.8861 8.94617L15.1769 13.5314C15.3095 13.9779 15.3807 14.4508 15.3807 14.9403C15.3807 17.6688 13.1688 19.8807 10.4403 19.8807C7.71187 19.8807 5.5 17.6688 5.5 14.9403C5.5 12.2119 7.71187 10 10.4403 10C11.432 10 12.3554 10.2922 13.1292 10.7951L17.7864 6.65717ZM10.3142 11.9761H9.09134V13.9426L8.20579 14.3896V15.055L9.09134 14.618V15.2437L8.20579 15.6807V16.3461L9.09134 15.9091V18.4119C9.69577 18.4252 10.2457 18.3805 10.7412 18.2778C11.2367 18.1752 11.6584 18.0163 12.0063 17.8011C12.3542 17.5859 12.623 17.3145 12.8128 16.9867C13.0025 16.659 13.0974 16.2766 13.0974 15.8396C13.0974 15.6807 13.0728 15.4986 13.0236 15.2933L12.0116 15.5317C12.0326 15.6112 12.0449 15.679 12.0485 15.7353C12.052 15.7916 12.0537 15.8429 12.0537 15.8892C12.0537 16.1077 12.0028 16.3031 11.9009 16.4752C11.799 16.6474 11.6672 16.7963 11.5055 16.9222C11.3439 17.048 11.1576 17.1456 10.9468 17.2151C10.7359 17.2847 10.5251 17.326 10.3142 17.3393V15.343L11.9483 14.5286V13.8632L10.3142 14.6776V14.0519L11.9483 13.2375V12.572L10.3142 13.3864V11.9761ZM4.24717 6.91492L6.34751 9.13796C5.35944 9.92842 4.37137 11.0789 4.08421 12.695L4.07495 13.2286H2V12.7169C2 10.5559 2.7946 8.51502 4.24717 6.91492ZM19.508 10.5408C19.6907 11.2433 19.7853 11.9729 19.7853 12.7169V13.2286H17.0221L19.508 10.5408ZM11.4137 4C13.3328 4.10819 15.1368 4.81264 16.603 6.02287C15.1557 7.31953 14.0702 8.29202 13.3466 8.94035C13.2627 9.01545 12.7502 8.65022 12.2759 8.44631C11.8274 8.25348 11.4137 8.16965 11.4137 8.14989V4ZM10.3716 4V7.95228C9.90456 7.95228 8.42245 7.95228 7.43438 8.49572L4.98397 6.19129C6.48431 4.87806 8.36512 4.11312 10.3716 4Z" fill="#0A79B8"/>
</g>
<defs>
<clipPath id="clip0_5167_13025">
<rect width="22" height="22" fill="white"/>
</clipPath>
</defs>
</svg>
