<svg width="22" height="22" viewBox="0 0 22 22" fill="none" xmlns="http://www.w3.org/2000/svg">
<path d="M4.34662 9.56005L2.81434 10.2718C2.47104 10.4309 2.21148 10.7155 2.08588 11.0672C1.96028 11.4189 1.96866 11.804 2.13612 12.1473L4.12055 16.4093C4.36337 16.92 4.87413 17.2215 5.40163 17.2215C5.60259 17.2215 5.80354 17.1796 5.99612 17.0875L7.41118 16.426L4.34662 9.55168V9.56005Z" fill="#0A79B8"/>
<path d="M17.6431 12.767L13.6157 4.12592C13.3812 3.61516 12.9291 3.25512 12.3848 3.12952C11.8406 3.00392 11.2796 3.12952 10.8107 3.52306L5.39325 8.78975L8.60853 16.0074L9.50445 15.8315L16.3537 15.2789C16.8979 15.1784 17.3584 14.8351 17.618 14.3327C17.8776 13.8304 17.8859 13.2526 17.6515 12.7502L17.6431 12.767Z" fill="#0A79B8"/>
<path d="M15.6319 5.35673C15.5649 5.35673 15.4895 5.34836 15.4142 5.32324C15.0876 5.20602 14.9202 4.84597 15.0374 4.51942L15.4393 3.41417C15.5565 3.08762 15.9166 2.92016 16.2431 3.03738C16.5697 3.1546 16.7371 3.51465 16.6199 3.8412L16.218 4.94645C16.1259 5.19764 15.8831 5.35673 15.6319 5.35673Z" fill="#0A79B8" stroke="#0A79B8" stroke-width="0.5"/>
<path d="M17.9026 8.01942C17.6682 8.01942 17.4421 7.88545 17.3332 7.65938C17.1825 7.3412 17.3249 6.97278 17.6347 6.82207L18.698 6.32805C19.0162 6.17734 19.3846 6.31968 19.5354 6.62949C19.6861 6.94766 19.5437 7.31608 19.2339 7.4668L18.1705 7.96081C18.0868 8.00268 17.9947 8.01942 17.9026 8.01942Z" fill="#0A79B8" stroke="#0A79B8" stroke-width="0.5"/>
<path d="M19.7371 11.6534C19.6701 11.6534 19.5948 11.645 19.5194 11.6199L18.4142 11.218C18.0876 11.1008 17.9202 10.7407 18.0374 10.4142C18.1546 10.0876 18.5146 9.92016 18.8412 10.0374L19.9465 10.4393C20.273 10.5565 20.4405 10.9166 20.3232 11.2431C20.2311 11.4943 19.9883 11.6534 19.7287 11.6534H19.7371Z" fill="#0A79B8" stroke="#0A79B8" stroke-width="0.5"/>
<path d="M10.7771 16.5851L9.61329 16.6772L8.31545 16.9284L7.20183 17.4475L8.00565 19.1724C8.2066 19.5994 8.63363 19.8506 9.07741 19.8506C9.24487 19.8506 9.41233 19.8171 9.57142 19.7418L10.7102 19.2143C11.2963 18.938 11.5558 18.2346 11.2795 17.6485L10.7771 16.5767V16.5851Z" fill="#0A79B8"/>
</svg>
