<svg width="22" height="22" viewBox="0 0 22 22" fill="none" xmlns="http://www.w3.org/2000/svg">
<path fill-rule="evenodd" clip-rule="evenodd" d="M18.6459 14.7329V17.5777C18.6459 18.3632 18.009 19 17.2235 19H14.3788V17.5777L17.2239 17.578L17.2235 14.7329H18.6459ZM4.42235 14.7329L4.422 17.578L7.26705 17.5777V19H4.42235C3.63681 19 3 18.3632 3 17.5777V14.7329H4.42235ZM13.9088 4.03981L18.0106 8.14159C18.5964 8.72738 18.5964 9.67713 18.0106 10.2629L11.143 17.1305C10.5572 17.7163 9.60746 17.7163 9.02167 17.1305L4.91989 13.0287C4.3341 12.4429 4.3341 11.4932 4.91989 10.9074L11.7875 4.03981C12.3733 3.45403 13.323 3.45403 13.9088 4.03981ZM5.59974 11.9434C5.47545 12.0677 5.47545 12.2692 5.59974 12.3935L9.5599 16.3536C9.68419 16.4779 9.88571 16.4779 10.01 16.3536C10.1343 16.2294 10.1343 16.0278 10.01 15.9035L6.04984 11.9434C5.92555 11.8191 5.72403 11.8191 5.59974 11.9434ZM9.12253 8.16828C7.78594 9.50486 7.78594 11.6719 9.12253 13.0085C10.4591 14.345 12.6261 14.345 13.9627 13.0085C15.2993 11.6719 15.2993 9.50486 13.9627 8.16828C12.6261 6.8317 10.4591 6.8317 9.12253 8.16828ZM12.47 8.67846L12.97 9.17851L12.3755 9.77308L13.387 10.0979L13.1064 10.3784L12.0949 10.0536L11.8311 10.3174L12.8426 10.6422L12.5621 10.9228L11.5506 10.5979L10.709 11.4395C10.8008 11.5202 10.9045 11.5889 11.02 11.6459C11.1355 11.7028 11.2528 11.7377 11.372 11.7508C11.4911 11.7639 11.6078 11.7549 11.722 11.724C11.8363 11.6931 11.9395 11.6316 12.0316 11.5395C12.0511 11.52 12.072 11.4976 12.0943 11.4725C12.1166 11.4473 12.1402 11.4136 12.1651 11.3715L12.6794 11.6849C12.613 11.7915 12.5463 11.8783 12.4793 11.9453C12.2951 12.1296 12.0951 12.252 11.8793 12.3126C11.6635 12.3731 11.4391 12.3777 11.2062 12.3261C10.9732 12.2746 10.7338 12.1692 10.4879 12.0098C10.242 11.8505 9.9983 11.6444 9.75673 11.3917L10.8119 10.3365L10.2655 10.1587L10.5461 9.87814L11.0924 10.056L11.3562 9.79222L10.8099 9.61435L11.0904 9.33382L11.6409 9.5075L12.47 8.67846ZM7.26705 3.35415V4.7765L4.422 4.77615L4.42235 7.6212H3V4.7765C3 3.99095 3.63681 3.35415 4.42235 3.35415H7.26705ZM16.5182 3L17.4232 3.90497L19.0558 5.53759L16.4921 5.5637L16.5182 3Z" fill="#0A79B8"/>
</svg>
