<svg width="22" height="22" viewBox="0 0 22 22" fill="none" xmlns="http://www.w3.org/2000/svg">
<g clip-path="url(#clip0_5167_13052)">
<path d="M3.35 11.5662H18.6534C18.8467 11.5662 19.0034 11.4095 19.0034 11.2162V10.5826C19.0034 10.3893 18.8467 10.2326 18.6534 10.2326H3.35C3.1567 10.2326 3 10.3893 3 10.5826V11.2162C3 11.4095 3.1567 11.5662 3.35 11.5662ZM7.27152 3.34884V3.99843C7.27152 4.19109 7.11534 4.34727 6.92268 4.34727H4.67478C4.48212 4.34727 4.32594 4.50345 4.32594 4.6961V6.68304C4.32594 6.8757 4.16976 7.03188 3.97711 7.03188H3.34884C3.15618 7.03188 3 6.8757 3 6.68304V3.62029C3 3.27771 3.2732 3 3.61022 3H6.92268C7.11534 3 7.27152 3.15618 7.27152 3.34884ZM7.33254 18.4499V17.8003C7.33254 17.6077 7.17636 17.4515 6.98371 17.4515H4.7358C4.54314 17.4515 4.38697 17.2953 4.38697 17.1026V15.1157C4.38697 14.9231 4.23079 14.7669 4.03813 14.7669H3.40986C3.2172 14.7669 3.06102 14.9231 3.06102 15.1157V18.1785C3.06102 18.521 3.33423 18.7987 3.67124 18.7987H6.98371C7.17636 18.7987 7.33254 18.6426 7.33254 18.4499ZM14.7359 3.34884V3.98478C14.7359 4.17744 14.892 4.33362 15.0847 4.33362H17.3094C17.502 4.33362 17.6582 4.4898 17.6582 4.68246V6.68304C17.6582 6.8757 17.8144 7.03188 18.007 7.03188H18.6585C18.8512 7.03188 19.0074 6.8757 19.0074 6.68304V3.62029C19.0074 3.27771 18.7342 3 18.3972 3H15.0847C14.892 3 14.7359 3.15618 14.7359 3.34884ZM14.7359 18.4499V17.8003C14.7359 17.6077 14.892 17.4515 15.0847 17.4515H17.256C17.4487 17.4515 17.6049 17.2953 17.6049 17.1026V15.1157C17.6049 14.9231 17.761 14.7669 17.9537 14.7669H18.6585C18.8512 14.7669 19.0074 14.9231 19.0074 15.1157V18.1785C19.0074 18.521 18.7342 18.7987 18.3972 18.7987H15.0847C14.892 18.7987 14.7359 18.6426 14.7359 18.4499Z" fill="#0A79B8"/>
</g>
<defs>
<clipPath id="clip0_5167_13052">
<rect width="22" height="22" fill="white"/>
</clipPath>
</defs>
</svg>
