<svg width="22" height="22" viewBox="0 0 22 22" fill="none" xmlns="http://www.w3.org/2000/svg">
<path fill-rule="evenodd" clip-rule="evenodd" d="M4.45455 14.6364L4.454 17.546L7.36364 17.5455V19H4.45455C3.65122 19 3 18.3488 3 17.5455V14.6364H4.45455ZM19 14.6364V17.5455C19 18.3488 18.3488 19 17.5455 19H14.6364V17.5455L17.546 17.546L17.5455 14.6364H19ZM10.2727 11.7273V16.0909H5.90909V11.7273H10.2727ZM13.1818 16.0909H11.7273V14.6364H13.1818V13.1818H16.0909V16.0909H14.6364V14.6364H13.1818V16.0909ZM13.1818 11.7273V13.1818H11.7273V11.7273H13.1818ZM10.2727 5.90909V10.2727H5.90909V5.90909H10.2727ZM16.0909 5.90909V10.2727H11.7273V5.90909H16.0909ZM7.36364 3V4.45455L4.454 4.454L4.45455 7.36364H3V4.45455C3 3.65122 3.65122 3 4.45455 3H7.36364ZM17.5455 3C18.3488 3 19 3.65122 19 4.45455V7.36364H17.5455L17.546 4.454L14.6364 4.45455V3H17.5455Z" fill="#0A79B8"/>
</svg>
