<svg width="22" height="22" viewBox="0 0 22 22" fill="none" xmlns="http://www.w3.org/2000/svg">
<g clip-path="url(#clip0_5167_12871)">
<path fill-rule="evenodd" clip-rule="evenodd" d="M18.6459 14.733V17.5777C18.6459 18.3632 18.009 19 17.2235 19H14.3788V17.5777L17.2239 17.578L17.2235 14.733H18.6459ZM4.42235 14.733L4.422 17.578L7.26705 17.5777V19H4.42235C3.63681 19 3 18.3632 3 17.5777V14.733H4.42235ZM13.9088 4.03982L18.0106 8.1416C18.5964 8.72739 18.5964 9.67714 18.0106 10.2629L11.143 17.1305C10.5572 17.7163 9.60746 17.7163 9.02167 17.1305L4.91989 13.0287C4.3341 12.443 4.3341 11.4932 4.91989 10.9074L11.7875 4.03982C12.3733 3.45404 13.323 3.45404 13.9088 4.03982ZM9.12253 8.16829C7.78594 9.50487 7.78594 11.6719 9.12253 13.0085C10.4591 14.3451 12.6261 14.3451 13.9627 13.0085C15.2993 11.6719 15.2993 9.50487 13.9627 8.16829C12.6261 6.83171 10.4591 6.83171 9.12253 8.16829ZM12.47 8.67847L12.97 9.17852L12.3755 9.77309L13.387 10.0979L13.1064 10.3785L12.0949 10.0536L11.8311 10.3174L12.8426 10.6422L12.5621 10.9228L11.5506 10.5979L10.709 11.4396C10.8008 11.5202 10.9045 11.589 11.02 11.6459C11.1355 11.7028 11.2528 11.7378 11.372 11.7508C11.4911 11.7639 11.6078 11.755 11.722 11.7241C11.8363 11.6931 11.9395 11.6316 12.0316 11.5395C12.0511 11.52 12.072 11.4976 12.0943 11.4725C12.1166 11.4473 12.1402 11.4137 12.1651 11.3715L12.6794 11.6849C12.613 11.7915 12.5463 11.8784 12.4793 11.9454C12.2951 12.1296 12.0951 12.252 11.8793 12.3126C11.6635 12.3732 11.4391 12.3777 11.2062 12.3261C10.9732 12.2746 10.7338 12.1692 10.4879 12.0098C10.242 11.8505 9.9983 11.6444 9.75673 11.3917L10.8119 10.3366L10.2655 10.1587L10.5461 9.87815L11.0924 10.056L11.3562 9.79224L10.8099 9.61436L11.0904 9.33383L11.6409 9.50751L12.47 8.67847ZM13.0251 4.62506C12.9008 4.74935 12.9008 4.95087 13.0251 5.07516L16.9852 9.03532C17.1095 9.15961 17.311 9.15961 17.4353 9.03532C17.5596 8.91103 17.5596 8.70951 17.4353 8.58522L13.4752 4.62506C13.3509 4.50077 13.1493 4.50077 13.0251 4.62506ZM7.26705 3.35416V4.77651L4.422 4.77616L4.42235 7.62121H3V4.77651C3 3.99096 3.63681 3.35416 4.42235 3.35416H7.26705ZM17.787 4.26881L17.7609 6.83251L15.2233 4.29492L17.787 4.26881Z" fill="#0A79B8"/>
</g>
<defs>
<clipPath id="clip0_5167_12871">
<rect width="22" height="22" fill="white"/>
</clipPath>
</defs>
</svg>
