<svg width="22" height="22" viewBox="0 0 22 22" fill="none" xmlns="http://www.w3.org/2000/svg">
<path fill-rule="evenodd" clip-rule="evenodd" d="M4.45455 14.6364L4.454 17.546L7.36364 17.5455V19H4.45455C3.65122 19 3 18.3488 3 17.5455V14.6364H4.45455ZM19 14.6364V17.5455C19 18.3488 18.3488 19 17.5455 19H14.6364V17.5455L17.546 17.546L17.5455 14.6364H19ZM11 6.5C13.9992 6.5 16.6079 8.18139 17.9453 10.6581C18.0182 10.7933 18.0182 10.9567 17.9453 11.0919C16.6078 13.5686 13.9992 15.25 11 15.25C8.00079 15.25 5.39217 13.5686 4.05473 11.0919C3.98176 10.9567 3.98176 10.7933 4.05473 10.6581C5.39214 8.18142 8.00083 6.5 11 6.5ZM11 7.51907C9.15725 7.51907 7.66344 9.0216 7.66344 10.875C7.66344 12.7284 9.15725 14.2309 11 14.2309C12.8427 14.2309 14.3366 12.7284 14.3366 10.875C14.3366 9.02157 12.8427 7.51907 11 7.51907ZM11 9.16478C11.9391 9.16478 12.7003 9.9305 12.7003 10.875C12.7003 11.8195 11.939 12.5852 11 12.5852C10.0609 12.5852 9.29961 11.8196 9.29961 10.875C9.29961 10.7338 9.31674 10.5967 9.34879 10.4655C9.50343 10.5999 9.70481 10.6814 9.92521 10.6814C10.4125 10.6814 10.8075 10.2841 10.8075 9.79401C10.8075 9.57233 10.7265 9.36978 10.5928 9.21425C10.7233 9.18201 10.8596 9.16478 11 9.16478ZM7.36364 3V4.45455L4.454 4.454L4.45455 7.36364H3V4.45455C3 3.65122 3.65122 3 4.45455 3H7.36364ZM17.5455 3C18.3488 3 19 3.65122 19 4.45455V7.36364H17.5455L17.546 4.454L14.6364 4.45455V3H17.5455Z" fill="#0A79B8"/>
</svg>
