<svg width="22" height="22" viewBox="0 0 22 22" fill="none" xmlns="http://www.w3.org/2000/svg">
<g clip-path="url(#clip0_5167_12317)">
<path d="M5.5615 15.6985L5.56065 18.6112L8.4492 18.6103V20.0662H5.5615C4.76408 20.0662 4.11765 19.4197 4.11765 18.6223V15.6985H5.5615ZM20 15.6985V18.6223C20 19.4197 19.3536 20.0662 18.5562 20.0662H15.6684V18.6103L18.557 18.6112L18.5562 15.6985H20ZM11.3369 12.7868V17.1544H7.00535V12.7868H11.3369ZM14.2246 17.1544H12.7807V15.6985H14.2246V14.2426H17.1123V17.1544H15.6684V15.6985H14.2246V17.1544ZM10.5423 13.5809H7.79947V16.3603H10.5423V13.5809ZM14.2246 12.7868V14.2426H12.7807V12.7868H14.2246ZM17.1123 6.96324V11.3309H12.7807V6.96324H17.1123ZM16.3177 7.75735H13.5749V10.5368H16.3177V7.75735ZM7.11329 2C7.16207 2 7.20562 2.01697 7.24395 2.0509C7.28227 2.08484 7.3084 2.12896 7.32234 2.18326L7.47912 3.29299C7.75089 3.3948 7.99826 3.53394 8.22124 3.71041L9.29783 3.29299C9.35358 3.27262 9.4041 3.26923 9.44939 3.28281C9.49469 3.29638 9.53127 3.32692 9.55914 3.37443L10.4371 4.8405C10.465 4.88801 10.4755 4.93891 10.4685 4.99321C10.4615 5.04751 10.4371 5.09163 10.3953 5.12557L9.48598 5.81787C9.49991 5.9129 9.50688 6.05204 9.50688 6.23529C9.50688 6.41855 9.49991 6.55769 9.48598 6.65271L10.3953 7.34502C10.4371 7.37896 10.4615 7.42308 10.4685 7.47738C10.4755 7.53167 10.465 7.58258 10.4371 7.63009L9.55914 9.09615C9.53127 9.14367 9.49469 9.17421 9.44939 9.18778C9.4041 9.20136 9.35358 9.19796 9.29783 9.1776L8.22124 8.76018C7.94251 8.95701 7.69514 9.09615 7.47912 9.1776L7.32234 10.2873C7.3084 10.3416 7.28227 10.3857 7.24395 10.4197C7.20562 10.4536 7.16207 10.4706 7.11329 10.4706H5.3573C5.30852 10.4706 5.26497 10.4536 5.22664 10.4197C5.18832 10.3857 5.16567 10.3416 5.1587 10.2873L4.99146 9.1776C4.6988 9.06222 4.45491 8.92308 4.2598 8.76018L3.17275 9.1776C3.06126 9.22511 2.97416 9.19796 2.91145 9.09615L2.03345 7.63009C2.00557 7.58258 1.99512 7.53167 2.00209 7.47738C2.00906 7.42308 2.03345 7.37896 2.07526 7.34502L2.99506 6.65271C2.98113 6.55769 2.97416 6.41855 2.97416 6.23529C2.97416 6.05204 2.98113 5.9129 2.99506 5.81787L2.07526 5.12557C2.03345 5.09163 2.00906 5.04751 2.00209 4.99321C1.99512 4.93891 2.00557 4.88801 2.03345 4.8405L2.91145 3.37443C2.97416 3.27262 3.06126 3.24548 3.17275 3.29299L4.2598 3.71041C4.51066 3.52715 4.75454 3.38801 4.99146 3.29299L5.1587 2.18326C5.16567 2.12896 5.18832 2.08484 5.22664 2.0509C5.26497 2.01697 5.30852 2 5.3573 2H7.11329ZM18.5562 4.05147C19.3536 4.05147 20 4.6979 20 5.49532V8.41912H18.5562L18.557 5.50647L15.6684 5.50735V4.05147H18.5562ZM6.23529 4.73869C5.96353 4.73869 5.71093 4.80656 5.4775 4.94231C5.24406 5.07805 5.05766 5.26131 4.9183 5.49208C4.77893 5.72285 4.70925 5.97059 4.70925 6.23529C4.70925 6.5 4.77893 6.74604 4.9183 6.97342C5.05766 7.20079 5.24406 7.38235 5.4775 7.5181C5.71093 7.65385 5.96353 7.72172 6.23529 7.72172C6.50706 7.72172 6.7614 7.65385 6.99832 7.5181C7.23524 7.38235 7.42338 7.20079 7.56274 6.97342C7.70211 6.74604 7.77179 6.5 7.77179 6.23529C7.77179 5.97059 7.70211 5.72285 7.56274 5.49208C7.42338 5.26131 7.23524 5.07805 6.99832 4.94231C6.7614 4.80656 6.50706 4.73869 6.23529 4.73869Z" fill="#0A79B8"/>
</g>
<defs>
<clipPath id="clip0_5167_12317">
<rect width="22" height="22" fill="white"/>
</clipPath>
</defs>
</svg>
