<svg width="22" height="22" viewBox="0 0 22 22" fill="none" xmlns="http://www.w3.org/2000/svg">
<path d="M10.0427 3C13.9322 3 17.0853 6.13577 17.0853 10.0039C17.0853 11.5986 16.5494 13.0687 15.647 14.2461L18.7933 17.375C19.136 17.7157 19.1375 18.2698 18.7968 18.6124L18.6114 18.7968C18.2701 19.1362 17.7187 19.1362 17.3774 18.7968L14.2118 15.6493C13.0446 16.5033 11.6029 17.0079 10.0427 17.0079C6.1531 17.0079 3 13.8721 3 10.0039C3 6.13577 6.1531 3 10.0427 3ZM10.0427 5.00113C7.2644 5.00113 5.01219 7.24096 5.01219 10.0039C5.01219 12.7669 7.2644 15.0068 10.0427 15.0068C12.8209 15.0068 15.0731 12.7669 15.0731 10.0039C15.0731 7.24096 12.8209 5.00113 10.0427 5.00113ZM9.95199 11.8151C10.12 11.8151 10.2613 11.8719 10.376 11.9855C10.4906 12.0991 10.548 12.2391 10.548 12.4055C10.548 12.5905 10.488 12.7358 10.368 12.8415C10.248 12.9471 10.1093 13 9.952 13C9.78931 13 9.64731 12.9478 9.526 12.8434C9.40463 12.7391 9.34399 12.5932 9.34399 12.4055C9.34399 12.2391 9.40261 12.0991 9.51999 11.9855C9.6373 11.8719 9.7813 11.8151 9.95199 11.8151ZM10.048 7C10.4346 7 10.776 7.07072 11.072 7.21202C11.368 7.35338 11.5966 7.54559 11.758 7.78863C11.9193 8.03174 12 8.2959 12 8.58123C12 8.80582 11.954 9.00268 11.862 9.17172C11.77 9.34082 11.6606 9.48679 11.534 9.60962C11.4073 9.73248 11.18 9.93923 10.852 10.2298C10.7613 10.3118 10.6886 10.3838 10.634 10.4458C10.5793 10.5079 10.5386 10.5647 10.512 10.6162C10.4853 10.6678 10.4646 10.7193 10.45 10.7708C10.4353 10.8223 10.4133 10.9128 10.384 11.0423C10.3333 11.3171 10.1746 11.4544 9.90798 11.4544C9.7693 11.4544 9.65261 11.4095 9.55798 11.3197C9.4633 11.2299 9.41599 11.0964 9.41599 10.9194C9.41599 10.6975 9.45061 10.5053 9.51999 10.3428C9.58931 10.1803 9.6813 10.0376 9.79599 9.91481C9.91061 9.79194 10.0653 9.64599 10.26 9.47689C10.4306 9.32896 10.554 9.21731 10.63 9.14201C10.706 9.06671 10.77 8.98288 10.822 8.89035C10.874 8.7979 10.9 8.69753 10.9 8.58917C10.9 8.37782 10.8206 8.19949 10.662 8.05416C10.5033 7.9089 10.2986 7.83619 10.048 7.83619C9.75461 7.83619 9.53861 7.90951 9.39999 8.05614C9.2613 8.20278 9.14399 8.41876 9.04798 8.70409C8.95731 9.00268 8.78529 9.15191 8.53197 9.15191C8.38259 9.15191 8.25659 9.09977 8.15397 8.99538C8.05132 8.89102 8 8.77808 8 8.65653C8 8.40556 8.08132 8.15125 8.244 7.89366C8.40662 7.63606 8.644 7.42273 8.95599 7.25362C9.268 7.08457 9.632 7 10.048 7Z" fill="#0A79B8"/>
</svg>
