<svg width="22" height="22" viewBox="0 0 22 22" fill="none" xmlns="http://www.w3.org/2000/svg">
<path fill-rule="evenodd" clip-rule="evenodd" d="M16.9085 4.95163C17.1151 4.95163 17.3022 5.03539 17.4376 5.17082C17.5731 5.30625 17.6568 5.49334 17.6568 5.7V8.424H3.25146V5.7C3.25146 5.49334 3.33523 5.30625 3.47066 5.17082C3.60608 5.03539 3.79318 4.95163 3.99983 4.95163H16.9085Z" stroke="#0A79B8" stroke-width="0.503268"/>
<path fill-rule="evenodd" clip-rule="evenodd" d="M17.9086 7.9799L17.9086 10.1755C15.9652 8.74456 13.2077 8.90786 11.4502 10.6654C10.1081 12.0074 9.69565 13.9325 10.2127 15.633L4.30401 15.633C3.58383 15.633 3 15.0492 3 14.329V7.9799H17.9086ZM9.3075 9.07319H4.72023V9.61984H9.3075V9.07319ZM16.6046 4.7C17.3248 4.7 17.9086 5.28382 17.9086 6.00401V6.33995H3V6.00401C3 5.28382 3.58383 4.7 4.30401 4.7L16.6046 4.7Z" fill="#0A79B8"/>
<path d="M12.1089 11.3243C13.6832 9.75 16.2449 9.75 17.8192 11.3243C19.3934 12.8985 19.3934 15.4602 17.8192 17.0345C16.2449 18.6088 13.6832 18.6088 12.1089 17.0345C10.5347 15.4602 10.5347 12.8985 12.1089 11.3243ZM15.4969 16.2241H14.4949C14.4026 16.2241 14.3279 16.3082 14.3279 16.412C14.3279 16.5158 14.4026 16.6 14.4949 16.6H15.4969C15.5891 16.6 15.6639 16.5158 15.6639 16.412C15.6639 16.3082 15.5891 16.2241 15.4969 16.2241ZM15.4399 15.4722H14.5599C14.4676 15.4722 14.3279 15.59 14.3279 15.7353C14.3279 15.8807 14.4676 15.9985 14.5599 15.9985H15.4399C15.5321 15.9985 15.6639 15.8807 15.6639 15.7353C15.6639 15.59 15.5321 15.4722 15.4399 15.4722ZM14.9215 11.6C14.8224 11.6022 14.7294 11.6442 14.668 11.7145L13.0764 13.5219C12.9951 13.6106 12.977 13.7333 13.0296 13.8382C13.0848 13.9428 13.2016 14.0095 13.33 14.0099H14.331V14.916C14.331 15.0823 14.4803 15.2172 14.6646 15.2172H15.332C15.5162 15.2172 15.6656 15.0823 15.6656 14.916V14.0099H16.6666C16.7976 14.0097 16.9164 13.9404 16.9703 13.8327C17.0242 13.7249 17.0033 13.5986 16.9169 13.5098L15.1718 11.7024C15.1085 11.6374 15.0174 11.6001 14.9215 11.6Z" fill="#0A79B8"/>
</svg>
