<svg width="22" height="22" viewBox="0 0 22 22" fill="none" xmlns="http://www.w3.org/2000/svg">
<path fill-rule="evenodd" clip-rule="evenodd" d="M16.9085 4.95163C17.1151 4.95163 17.3022 5.03539 17.4376 5.17082C17.5731 5.30625 17.6568 5.49334 17.6568 5.7V8.424H3.25146V5.7C3.25146 5.49334 3.33523 5.30625 3.47066 5.17082C3.60608 5.03539 3.79318 4.95163 3.99983 4.95163H16.9085Z" stroke="#0A79B8" stroke-width="0.503268"/>
<path fill-rule="evenodd" clip-rule="evenodd" d="M17.9086 7.9799L17.9086 10.1755C15.9652 8.74456 13.2077 8.90786 11.4502 10.6654C10.1081 12.0074 9.69565 13.9325 10.2127 15.633L4.30401 15.633C3.58383 15.633 3 15.0492 3 14.329V7.9799H17.9086ZM9.3075 9.07319H4.72023V9.61984H9.3075V9.07319ZM16.6046 4.7C17.3248 4.7 17.9086 5.28382 17.9086 6.00401V6.33995H3V6.00401C3 5.28382 3.58383 4.7 4.30401 4.7L16.6046 4.7Z" fill="#0A79B8"/>
<path d="M17.8192 11.3243C16.2449 9.75 13.6832 9.75 12.1089 11.3243C10.5347 12.8985 10.5347 15.4602 12.1089 17.0345C13.6832 18.6088 16.2449 18.6088 17.8192 17.0345C19.3934 15.4602 19.3934 12.8985 17.8192 11.3243ZM15.5851 15.9364C15.5851 16.2799 15.3075 16.5575 14.964 16.5575C14.7927 16.5575 14.6372 16.4881 14.5247 16.3756C14.4123 16.2632 14.3429 16.1077 14.3429 15.9364V14.8005H13.207C13.0357 14.8005 12.8802 14.7311 12.7677 14.6186C12.6553 14.5062 12.5859 14.3507 12.5859 14.1794C12.5859 13.8359 12.8635 13.5583 13.207 13.5583H14.3429V12.4224C14.3429 12.0789 14.6205 11.8013 14.964 11.8013C15.3075 11.8013 15.5851 12.0789 15.5851 12.4224V13.5583H16.721C17.0645 13.5583 17.3421 13.8359 17.3421 14.1794C17.3421 14.5229 17.0645 14.8005 16.721 14.8005H15.5851V15.9364Z" fill="#0A79B8"/>
</svg>
