<svg width="22" height="22" viewBox="0 0 22 22" fill="none" xmlns="http://www.w3.org/2000/svg">
<path fill-rule="evenodd" clip-rule="evenodd" d="M12.953 3C14.033 3 14.9086 3.87555 14.9086 4.9556L14.9082 5.58061C15.2597 5.49924 15.6251 5.45633 16.0002 5.45633C18.7615 5.45633 21 7.78196 21 10.6508C21 13.5196 18.7615 15.8452 16.0002 15.8452C15.6251 15.8452 15.2597 15.8023 14.9082 15.7209L14.9086 18.0547L13.0985 16.5383L11.2089 18.1111L9.46043 16.4583L7.46745 18.1091L5.89097 16.4802L4 18.0547V4.9556C4 3.87555 4.87555 3 5.9556 3H12.953ZM15.9994 6.4C13.7402 6.4 11.9087 8.30279 11.9087 10.65C11.9087 12.9972 13.7402 14.9 15.9994 14.9C18.2587 14.9 20.0901 12.9972 20.0901 10.65C20.0901 8.30279 18.2587 6.4 15.9994 6.4ZM9.02555 11.7159H6.97407C6.53646 11.7159 6.18171 12.0706 6.18171 12.5082C6.18171 12.9458 6.53646 13.3006 6.97407 13.3006H9.02555C9.46315 13.3006 9.8179 12.9458 9.8179 12.5082C9.8179 12.0706 9.46315 11.7159 9.02555 11.7159ZM16.3441 7.62209C16.4671 7.68052 16.5662 7.7796 16.6246 7.9026L16.9359 8.55774C17.0754 8.85139 17.3517 9.0565 17.6731 9.10503L18.3538 9.20779C18.6896 9.25848 18.9207 9.57183 18.87 9.90766C18.8506 10.0363 18.7909 10.1554 18.6995 10.248L18.1696 10.7847C17.9496 11.0074 17.8496 11.3221 17.9006 11.6309L18.0293 12.4104C18.0827 12.7339 17.8637 13.0395 17.5402 13.0929C17.4095 13.1145 17.2753 13.0917 17.159 13.0281L16.559 12.7005C16.2669 12.5409 15.9137 12.5409 15.6216 12.7005L15.0217 13.0281C14.7339 13.1853 14.3733 13.0795 14.2161 12.7917C14.1526 12.6754 14.1298 12.5412 14.1514 12.4104L14.28 11.6309C14.331 11.3221 14.231 11.0074 14.0111 10.7847L13.4811 10.248C13.2425 10.0063 13.2449 9.61691 13.4866 9.37828C13.5791 9.28689 13.6983 9.2272 13.8269 9.20779L14.5075 9.10503C14.829 9.0565 15.1053 8.85139 15.2448 8.55774L15.556 7.9026C15.6962 7.6075 16.049 7.48191 16.3441 7.62209ZM10.7019 8.54647H6.97407C6.53646 8.54647 6.18171 8.90122 6.18171 9.33882C6.18171 9.77642 6.53646 10.1312 6.97407 10.1312H10.7019C11.1395 10.1312 11.4942 9.77642 11.4942 9.33882C11.4942 8.90122 11.1395 8.54647 10.7019 8.54647ZM11.9345 5.37706H6.97407C6.53646 5.37706 6.18171 5.73181 6.18171 6.16941C6.18171 6.60701 6.53646 6.96176 6.97407 6.96176H11.9345C12.3721 6.96176 12.7269 6.60701 12.7269 6.16941C12.7269 5.73181 12.3721 5.37706 11.9345 5.37706Z" fill="#0A79B8"/>
</svg>
