<svg width="22" height="22" viewBox="0 0 22 22" fill="none" xmlns="http://www.w3.org/2000/svg">
<path fill-rule="evenodd" clip-rule="evenodd" d="M14.4197 3.02526C14.737 3.05196 15.0524 3.11094 15.3549 3.27021C15.7876 3.49791 16.1402 3.85532 16.3649 4.29366C16.5221 4.60028 16.5803 4.91986 16.6066 5.24136C16.6266 5.48498 16.6306 5.77046 16.6314 6.09446L16.6316 9.9C16.6316 10.0834 12.8 8.8 11.8 11.8C11.5 13.8 11.9507 13.7999 11 15C9.98929 16.2759 10.1314 19 10 19H7.30066C6.87747 19 6.51241 19 6.21187 18.9747C5.8946 18.948 5.57922 18.889 5.27664 18.7298C4.84407 18.5021 4.49136 18.1447 4.26665 17.7063C4.10948 17.3998 4.05128 17.0802 4.02493 16.7586C4.00499 16.515 4.001 16.2295 4.0002 15.9055L4 6.34464C4 5.91582 4 5.5459 4.02493 5.24136C4.05128 4.91986 4.10948 4.60028 4.26665 4.29366C4.49136 3.85532 4.84407 3.49791 5.27664 3.27021C5.57922 3.11094 5.8946 3.05196 6.21187 3.02526C6.45229 3.00505 6.73402 3.00101 7.05375 3.0002L13.3309 3C13.7541 3 14.1192 3 14.4197 3.02526ZM9.39737 10.6H7.55526C7.04658 10.6 6.8 10.8686 6.8 11.2C6.8 11.5314 7.04658 11.8 7.55526 11.8H9.39737C9.90607 11.8 10.1833 11.5314 10.1833 11.2C10.1833 10.8686 9.90607 10.6 9.39737 10.6ZM13.0816 8.4H7.55526C7.04658 8.4 6.8 8.66863 6.8 9C6.8 9.33138 7.04658 9.6 7.55526 9.6H13.0816C13.5903 9.6 13.8 9.33138 13.8 9C13.8 8.66863 13.5903 8.4 13.0816 8.4ZM13.0816 6.2H7.55526C7.04658 6.2 6.8 6.46863 6.8 6.8C6.8 7.13137 7.04658 7.4 7.55526 7.4H13.0816C13.5903 7.4 13.8 7.13137 13.8 6.8C13.8 6.46863 13.5903 6.2 13.0816 6.2ZM15.0526 12.6C14.6166 12.6 14.2632 12.9582 14.2632 13.4C14.2632 13.8418 14.6166 14.2 15.0526 14.2C15.4887 14.2 15.8421 13.8418 15.8421 13.4C15.8421 12.9582 15.4887 12.6 15.0526 12.6ZM17.0224 14.733C17.2742 14.3517 17.4211 13.8932 17.4211 13.4C17.4211 12.0745 16.3607 11 15.0526 11C13.7446 11 12.6842 12.0745 12.6842 13.4C12.6842 13.8932 12.8311 14.3517 13.0828 14.733C11.9017 15.4233 11.1053 16.715 11.1053 18.1959C11.1053 18.64 11.4605 19 11.8988 19H18.2065C18.6447 19 19 18.64 19 18.1959C19 16.715 18.2036 15.4233 17.0224 14.733ZM15.0526 15.8C14.0213 15.8 13.1431 16.4686 12.8183 17.4H17.287C16.9622 16.4686 16.0839 15.8 15.0526 15.8Z" fill="#0A79B8"/>
</svg>
