<svg width="22" height="22" viewBox="0 0 22 22" fill="none" xmlns="http://www.w3.org/2000/svg">
<g clip-path="url(#clip0_5167_13028)">
<path fill-rule="evenodd" clip-rule="evenodd" d="M15.1667 13.5C16.1686 13.5 17.0328 14.0894 17.4316 14.9403L17.375 14.9375C17.9963 14.9375 18.5 15.4412 18.5 16.0625C18.5 16.6838 17.9963 17.1875 17.375 17.1875C16.9445 17.9691 16.1176 18.5 15.1667 18.5C14.2158 18.5 13.3889 17.9691 12.9662 17.1876L4.625 17.1875C4.00368 17.1875 3.5 16.6838 3.5 16.0625C3.5 15.4412 4.00368 14.9375 4.625 14.9375L12.9031 14.9373C13.3025 14.088 14.1659 13.5 15.1667 13.5ZM6.83333 8.5C7.80904 8.5 8.65419 9.05895 9.06606 9.87411L17.375 9.875C17.9963 9.875 18.5 10.3787 18.5 11C18.5 11.6213 17.9963 12.125 17.375 12.125L9.06606 12.1259C8.65419 12.9411 7.80904 13.5 6.83333 13.5C5.85723 13.5 5.01178 12.9406 4.6001 12.1249L4.625 12.125C4.00368 12.125 3.5 11.6213 3.5 11C3.5 10.3871 3.99012 9.88867 4.59981 9.87528C5.01178 9.05941 5.85723 8.5 6.83333 8.5ZM15.1667 3.5C16.156 3.5 17.0111 4.07465 17.4164 4.90836L17.375 4.90625C17.9963 4.90625 18.5 5.40993 18.5 6.03125C18.5 6.64988 18.0007 7.15188 17.3831 7.15622C16.966 7.95518 16.13 8.5 15.1667 8.5C14.2034 8.5 13.3673 7.95518 12.9499 7.15686L4.625 7.15625C4.00368 7.15625 3.5 6.65257 3.5 6.03125C3.5 5.40993 4.00368 4.90625 4.625 4.90625L12.9179 4.90634C13.3236 4.07372 14.1782 3.5 15.1667 3.5Z" fill="#0A79B8"/>
</g>
<defs>
<clipPath id="clip0_5167_13028">
<rect width="22" height="22" fill="white"/>
</clipPath>
</defs>
</svg>
