<svg width="22" height="22" viewBox="0 0 22 22" fill="none" xmlns="http://www.w3.org/2000/svg">
<g clip-path="url(#clip0_5167_12894)">
<path fill-rule="evenodd" clip-rule="evenodd" d="M12.1848 2C12.5926 2 12.923 2.33047 12.923 2.73828V4.5207C13.373 4.6543 13.809 4.83359 14.2238 5.05859L15.4859 3.79648C15.7742 3.5082 16.2418 3.5082 16.5301 3.79648L18.207 5.47344C18.4953 5.76172 18.4953 6.22929 18.207 6.51758L16.9414 7.77618C17.1664 8.19102 17.3457 8.62696 17.4793 9.07696H19.2617C19.6695 9.07696 20 9.40743 20 9.81524V12.1848C20 12.5926 19.6695 12.923 19.2617 12.923H17.4793C17.3457 13.373 17.1664 13.809 16.9414 14.2238L18.2035 15.4859C18.4918 15.7742 18.4918 16.2418 18.2035 16.5301L16.5266 18.207C16.2383 18.4953 15.7707 18.4953 15.4824 18.207L14.2238 16.9414C13.809 17.1664 13.373 17.3457 12.923 17.4793V19.2617C12.923 19.6695 12.5926 20 12.1848 20H9.81524C9.40743 20 9.07696 19.6695 9.07696 19.2617V17.4793C8.62696 17.3457 8.19102 17.1664 7.77618 16.9414L6.51407 18.2035C6.22578 18.4918 5.75821 18.4918 5.46993 18.2035L3.79297 16.5266C3.50469 16.2383 3.50469 15.7707 3.79297 15.4824L5.0586 14.2238C4.8336 13.809 4.65431 13.373 4.52071 12.923H2.73828C2.33047 12.923 2 12.5926 2 12.1848V9.81524C2 9.40743 2.33047 9.07696 2.73828 9.07696H4.52071C4.65431 8.62696 4.8336 8.19102 5.0586 7.77618L3.79649 6.51407C3.50821 6.22578 3.50821 5.75821 3.79649 5.46993L5.47345 3.79297C5.76173 3.50469 6.2293 3.50469 6.51759 3.79297L7.77618 5.0586C8.19102 4.8336 8.62696 4.65431 9.07696 4.52071V2.73828C9.07696 2.33047 9.40743 2 9.81524 2H12.1848ZM11 5.9C8.19055 5.9 5.9 8.1853 5.9 11C5.9 13.8095 8.18531 16.1 11 16.1C13.8147 16.1 16.1 13.8147 16.1 11C16.1 8.19055 13.8147 5.9 11 5.9ZM13.9641 8.73908C14.2187 8.95122 14.2531 9.32956 14.0409 9.58413L11.0409 13.1841C10.8223 13.4465 10.4291 13.4737 10.1764 13.244L8.1964 11.444C7.95121 11.2211 7.93314 10.8416 8.15604 10.5964C8.37894 10.3512 8.75841 10.3331 9.00361 10.5561L10.5194 11.9342L13.1191 8.8159C13.3312 8.56134 13.7095 8.52694 13.9641 8.73908Z" fill="#0A79B8"/>
</g>
<defs>
<clipPath id="clip0_5167_12894">
<rect width="22" height="22" fill="white"/>
</clipPath>
</defs>
</svg>
