<svg width="22" height="22" viewBox="0 0 22 22" fill="none" xmlns="http://www.w3.org/2000/svg">
<path d="M16.6286 8.35362C17.6385 8.35362 18.4571 9.1723 18.4571 10.1822L18.4581 12.7804C19.3998 13.5667 20 14.7564 20 16.0879C20 18.4556 18.1021 20.375 15.7609 20.375C14.0284 20.375 12.5387 19.324 11.8812 17.8181L3.82857 17.8182C2.81868 17.8182 2 16.9995 2 15.9896V10.1822C2 9.1723 2.81868 8.35362 3.82857 8.35362H16.6286ZM15.7609 12.7386C13.9318 12.7386 12.4491 14.2382 12.4491 16.0879C12.4491 17.9377 13.9318 19.4372 15.7609 19.4372C17.5899 19.4372 19.0727 17.9377 19.0727 16.0879C19.0727 14.2382 17.5899 12.7386 15.7609 12.7386ZM17.3391 14.3L18.1671 14.9971L15.9594 17.7243L15.6274 18.1343L15.2158 17.8079L13.5875 16.5164L14.2467 15.6521L15.4628 16.6167L17.3391 14.3ZM3.3715 14.4377V15.5516C3.3715 16.0565 3.78084 16.4658 4.28578 16.4658H5.42864C5.42864 15.3463 4.50725 14.4377 3.3715 14.4377ZM10.2286 10.3817C9.09282 10.3817 8.17143 11.5927 8.17143 13.086C8.17143 14.5779 9.09282 15.7901 10.2286 15.7901C11.3643 15.7901 12.2857 14.5779 12.2857 13.0858C12.2857 11.5925 11.3643 10.3817 10.2286 10.3817ZM5.42864 9.70556H4.28578C3.78084 9.70556 3.3715 10.1149 3.3715 10.6198V11.7337C4.50725 11.7337 5.42864 10.8253 5.42864 9.70556ZM16.1714 9.70556H15.0285C15.0285 10.8253 15.9499 11.7337 17.0856 11.7337V10.6198C17.0856 10.1149 16.6763 9.70556 16.1714 9.70556ZM17.0164 5.92681C17.3758 5.92681 17.6672 6.2182 17.6672 6.57766V6.73205C17.6672 7.0915 17.3758 7.3829 17.0164 7.3829H3.50662C3.14717 7.3829 2.85577 7.0915 2.85577 6.73205V6.57766C2.85577 6.2182 3.14717 5.92681 3.50662 5.92681H17.0164ZM16.0289 3.5C16.3884 3.5 16.6798 3.79139 16.6798 4.15085V4.30524C16.6798 4.66469 16.3884 4.95609 16.0289 4.95609H4.49405C4.13459 4.95609 3.8432 4.66469 3.8432 4.30524V4.15085C3.8432 3.79139 4.13459 3.5 4.49405 3.5H16.0289Z" fill="#0A79B8"/>
</svg>
