<svg width="22" height="22" viewBox="0 0 22 22" fill="none" xmlns="http://www.w3.org/2000/svg">
<path d="M17.7483 6.90164H4.25159C3.6993 6.90164 3.25159 7.34936 3.25159 7.90164V11.3984C3.25159 11.9507 3.6993 12.3984 4.25159 12.3984H17.7483C18.3006 12.3984 18.7483 11.9507 18.7483 11.3984V7.90164C18.7483 7.34936 18.3006 6.90164 17.7483 6.90164Z" stroke="#0A79B8" stroke-width="0.503268"/>
<path fill-rule="evenodd" clip-rule="evenodd" d="M19 9.3V15.696C19 16.4162 18.4162 17 17.696 17H4.30401C3.58383 17 3 16.4162 3 15.696V9.3H19ZM9.76923 10.4H4.84615V10.95H9.76923V10.4ZM19 7.65H3V7.30401C3 6.58383 3.58383 6 4.30401 6H17.696C18.4162 6 19 6.58383 19 7.30401V7.65Z" fill="#0A79B8"/>
</svg>
