<svg width="22" height="22" viewBox="0 0 22 22" fill="none" xmlns="http://www.w3.org/2000/svg">
<g clip-path="url(#clip0_5167_13031)">
<path fill-rule="evenodd" clip-rule="evenodd" d="M15.4636 3C16.5883 3 17.5 3.91171 17.5 5.03636V18.9403L15.3429 17.3346L13.0911 19L11.0073 17.2499L8.63224 18.9979L6.75352 17.2732L4.5 18.9403V5.03636C4.5 3.91171 5.41171 3 6.53636 3H15.4636ZM10.5944 12.2286H7.93896C7.47562 12.2286 7.1 12.6042 7.1 13.0675C7.1 13.5309 7.47562 13.9065 7.93896 13.9065H10.5944C11.0577 13.9065 11.4333 13.5309 11.4333 13.0675C11.4333 12.6042 11.0577 12.2286 10.5944 12.2286ZM14.061 8.87273H7.93896C7.47562 8.87273 7.1 9.24835 7.1 9.71169C7.1 10.175 7.47562 10.5507 7.93896 10.5507H14.061C14.5244 10.5507 14.9 10.175 14.9 9.71169C14.9 9.24835 14.5244 8.87273 14.061 8.87273ZM14.061 5.51688H7.93896C7.47562 5.51688 7.1 5.8925 7.1 6.35585C7.1 6.81919 7.47562 7.19481 7.93896 7.19481H14.061C14.5244 7.19481 14.9 6.81919 14.9 6.35585C14.9 5.8925 14.5244 5.51688 14.061 5.51688Z" fill="#0A79B8"/>
</g>
<defs>
<clipPath id="clip0_5167_13031">
<rect width="22" height="22" fill="white"/>
</clipPath>
</defs>
</svg>
