<svg width="22" height="22" viewBox="0 0 22 22" fill="none" xmlns="http://www.w3.org/2000/svg">
<path d="M3 10.7458V16C3 17.1046 3.89543 18 5 18H17C18.1046 18 19 17.1046 19 16V10.7458C19 9.64119 18.1046 8.74576 17 8.74576H5C3.89543 8.74576 3 9.64119 3 10.7458ZM4.3334 15.6777V14.6947C5.4376 14.6947 6.3334 15.5831 6.3334 16.6777H5.3334C4.78112 16.6777 4.3334 16.23 4.3334 15.6777ZM4.3334 12.0507V11.0677C4.3334 10.5154 4.78112 10.0677 5.3334 10.0677H6.3334C6.3334 11.1625 5.4376 12.0507 4.3334 12.0507ZM11 16.017C9.8958 16.017 9 14.8317 9 13.373C9 11.9129 9.8958 10.7288 11 10.7288C12.1042 10.7288 13 11.9127 13 13.3728C13 14.8317 12.1042 16.017 11 16.017ZM16.6666 16.6777H15.6666C15.6666 15.5831 16.5624 14.6947 17.6666 14.6947V15.6777C17.6666 16.23 17.2189 16.6777 16.6666 16.6777ZM17.6666 12.0507C16.5624 12.0507 15.6666 11.1625 15.6666 10.0677H16.6666C17.2189 10.0677 17.6666 10.5154 17.6666 11.0677V12.0507ZM4.54386 6.37288H17.5201C17.9133 6.37288 18.232 6.69159 18.232 7.08475C18.232 7.4779 17.9133 7.79661 17.5201 7.79661H4.54386C4.15071 7.79661 3.832 7.4779 3.832 7.08475C3.832 6.69159 4.15071 6.37288 4.54386 6.37288ZM5.50386 4H16.5601C16.9533 4 17.272 4.31871 17.272 4.71186C17.272 5.10502 16.9533 5.42373 16.5601 5.42373H5.50386C5.11071 5.42373 4.792 5.10502 4.792 4.71186C4.792 4.31871 5.11071 4 5.50386 4Z" fill="#0A79B8"/>
</svg>
