<svg width="22" height="22" viewBox="0 0 22 22" fill="none" xmlns="http://www.w3.org/2000/svg">
<g clip-path="url(#clip0_5167_12618)">
<path d="M16 12.2C18.2091 12.2 20 13.9909 20 16.2C20 18.4091 18.2091 20.2 16 20.2C13.7909 20.2 12 18.4091 12 16.2C12 13.9909 13.7909 12.2 16 12.2ZM15.9856 13.8076C15.6421 13.8076 15.3645 14.0852 15.3645 14.4287V15.5646H14.2286C13.8851 15.5646 13.6075 15.8422 13.6075 16.1857C13.6075 16.357 13.6769 16.5125 13.7894 16.625C13.9018 16.7374 14.0573 16.8068 14.2286 16.8068H15.3645V17.9427C15.3645 18.114 15.4339 18.2695 15.5464 18.382C15.6588 18.4944 15.8143 18.5638 15.9856 18.5638C16.3291 18.5638 16.6067 18.2862 16.6067 17.9427V16.8068H17.7426C18.0861 16.8068 18.3637 16.5292 18.3637 16.1857C18.3637 15.8422 18.0861 15.5646 17.7426 15.5646H16.6067V14.4287C16.6067 14.0852 16.3291 13.8076 15.9856 13.8076ZM16 7.74576C17.1046 7.74576 18 8.64119 18 9.74576L18.0005 11.5344C17.3879 11.2667 16.7113 11.1182 16 11.1182C14.2864 11.1182 12.7741 11.9802 11.8732 13.2943C11.9557 13.0079 12 12.6971 12 12.3728C12 10.9127 11.1042 9.7288 10 9.7288C8.8958 9.7288 8 10.9129 8 12.373C8 13.8317 8.8958 15.017 10 15.017C10.5052 15.017 10.9668 14.7688 11.319 14.3598C11.1125 14.9064 11 15.4992 11 16.1182C11 16.419 11.0266 16.7137 11.0775 16.9999L4 17C2.89543 17 2 16.1046 2 15V9.74576C2 8.64119 2.89543 7.74576 4 7.74576H16ZM3.3334 13.6947V14.6777C3.3334 15.23 3.78112 15.6777 4.3334 15.6777H5.3334C5.3334 14.5831 4.4376 13.6947 3.3334 13.6947ZM5.3334 9.06765H4.3334C3.78112 9.06765 3.3334 9.51537 3.3334 10.0677V11.0507C4.4376 11.0507 5.3334 10.1625 5.3334 9.06765ZM15.6666 9.06765H14.6666C14.6666 10.1625 15.5624 11.0507 16.6666 11.0507V10.0677C16.6666 9.51537 16.2189 9.06765 15.6666 9.06765ZM16.5201 5.37288C16.9133 5.37288 17.232 5.69159 17.232 6.08475C17.232 6.4779 16.9133 6.79661 16.5201 6.79661H3.54386C3.15071 6.79661 2.832 6.4779 2.832 6.08475C2.832 5.69159 3.15071 5.37288 3.54386 5.37288H16.5201ZM15.5601 3C15.9533 3 16.272 3.31871 16.272 3.71186C16.272 4.10502 15.9533 4.42373 15.5601 4.42373H4.50386C4.11071 4.42373 3.792 4.10502 3.792 3.71186C3.792 3.31871 4.11071 3 4.50386 3H15.5601Z" fill="#0A79B8"/>
</g>
<defs>
<clipPath id="clip0_5167_12618">
<rect width="22" height="22" fill="white"/>
</clipPath>
</defs>
</svg>
