<svg width="22" height="22" viewBox="0 0 22 22" fill="none" xmlns="http://www.w3.org/2000/svg">
<path fill-rule="evenodd" clip-rule="evenodd" d="M18.0588 7.36L18.0592 10.4679C18.6502 11.2538 19 12.2285 19 13.2842C19 15.8887 16.8709 18 14.2446 18C12.3066 18 10.6394 16.8504 9.89855 15.2013L4.30401 15.2C3.58383 15.2 3 14.6162 3 13.896V7.36H18.0588ZM14.2446 9.6C12.1928 9.6 10.5294 11.2495 10.5294 13.2842C10.5294 15.3189 12.1928 16.9684 14.2446 16.9684C16.2964 16.9684 17.9598 15.3189 17.9598 13.2842C17.9598 11.2495 16.2964 9.6 14.2446 9.6ZM15.7056 11.1324L16.6345 11.8992L14.1579 14.8991L13.7855 15.3502L13.3238 14.991L11.4971 13.5704L12.2366 12.6196L13.6009 13.6808L15.7056 11.1324ZM9.37104 8.48H4.73756V9.04H9.37104V8.48ZM16.7548 4C17.475 4 18.0588 4.58383 18.0588 5.30401V5.68H3V5.30401C3 4.58383 3.58383 4 4.30401 4H16.7548Z" fill="#0A79B8"/>
</svg>
