<svg width="22" height="22" viewBox="0 0 22 22" fill="none" xmlns="http://www.w3.org/2000/svg">
<path d="M7.10563 8.37723L11.4504 9.85528C11.7864 9.96948 12.0115 10.284 12.0115 10.639V13.9642C12.0115 18.1575 7.36135 20.1825 7.16356 20.267C7.06011 20.3116 6.94922 20.3332 6.83915 20.3332C6.72909 20.3332 6.61819 20.3116 6.51392 20.2678C6.31613 20.1834 1.666 18.1575 1.666 13.9642V10.639C1.666 10.2848 1.89193 9.96948 2.22709 9.85528L6.57185 8.37723C6.74481 8.31848 6.93267 8.31848 7.10563 8.37723ZM18.0759 4.5C19.1382 4.5 19.9993 5.36113 19.9993 6.42338V15.8722C19.9993 16.9345 19.1382 17.7956 18.0759 17.7956L12.1137 17.7959C12.597 16.8996 12.8925 15.9676 13 15C13.1064 14.0426 13.1149 12.2748 13.0258 9.69645C13.0122 9.27758 12.7388 8.91164 12.341 8.77976L7.63246 7.21082C7.22192 7.07397 6.77808 7.07397 6.36755 7.21082L3.10991 8.296L3.11043 4.5H18.0759ZM6.55517 10.9H5.30517V12.8933L4.4 13.3464V14.0209L5.30517 13.5779V14.2121L4.4 14.6551V15.3296L5.30517 14.8867V17.4236C5.92299 17.437 6.48513 17.3917 6.9916 17.2877C7.49806 17.1837 7.9291 17.0226 8.2847 16.8045C8.6403 16.5863 8.91509 16.3112 9.10905 15.979C9.30302 15.6467 9.4 15.2591 9.4 14.8162C9.4 14.6551 9.37486 14.4705 9.32457 14.2625L8.29009 14.5041C8.31164 14.5846 8.32421 14.6534 8.3278 14.7105C8.33139 14.7675 8.33319 14.8195 8.33319 14.8665C8.33319 15.088 8.28111 15.286 8.17694 15.4605C8.07277 15.635 7.93808 15.786 7.77285 15.9135C7.60762 16.041 7.41724 16.14 7.20172 16.2105C6.98621 16.281 6.77069 16.3229 6.55517 16.3363V14.3128L8.22543 13.4873V12.8128L6.55517 13.6383V13.0041L8.22543 12.1785V11.504L6.55517 12.3296V10.9ZM16.6471 10.4043C16.0137 10.4043 15.4956 10.9356 15.4956 11.5851C15.4956 12.2346 16.0137 12.7659 16.6471 12.7659C17.2805 12.7659 17.7986 12.2346 17.7986 11.5851C17.7986 10.9356 17.2805 10.4043 16.6471 10.4043Z" fill="#0A79B8"/>
</svg>
