<svg width="22" height="22" viewBox="0 0 22 22" fill="none" xmlns="http://www.w3.org/2000/svg">
<path d="M20.9722 5.01137C20.9814 5.02585 20.9905 5.04034 21 5.05526C20.9955 5.06226 20.9909 5.06925 20.9863 5.07646C20.9284 5.17934 20.9165 5.28072 20.9074 5.39793C20.8982 5.49219 20.8751 5.54939 20.8054 5.6112C20.7705 5.63257 20.7705 5.63257 20.7341 5.64594C20.6216 5.69085 20.5127 5.74309 20.4032 5.79565C20.3641 5.81434 20.3249 5.83285 20.2857 5.85133C20.2507 5.86792 20.2157 5.88466 20.1807 5.90144C20.1552 5.91358 20.1297 5.92556 20.1042 5.93754C20.0151 5.98048 19.945 6.02285 19.874 6.09398C19.8509 6.10869 19.8278 6.12334 19.8045 6.13787C19.7962 6.14664 19.7879 6.15541 19.7794 6.16444C19.7462 6.19924 19.711 6.22896 19.6742 6.25948C19.5583 6.35892 19.4838 6.45558 19.4396 6.60694C19.4138 6.68149 19.362 6.7193 19.3041 6.76695C19.2947 6.77595 19.2854 6.78494 19.2757 6.79421C19.1996 6.865 19.1189 6.90916 19.0278 6.9544C18.9039 7.0165 18.8137 7.08508 18.7203 7.19122C18.711 7.2018 18.7016 7.21238 18.692 7.22328C18.6603 7.26071 18.6299 7.29899 18.6004 7.33837C18.5475 7.40651 18.4948 7.44953 18.4217 7.4921C18.3885 7.51197 18.3591 7.53402 18.3285 7.55788C18.2751 7.59623 18.2203 7.61683 18.159 7.63652C17.9864 7.69264 17.8198 7.8171 17.6916 7.95197C17.664 7.96088 17.6362 7.96899 17.6082 7.97666C17.5147 8.00586 17.4478 8.04969 17.3719 8.1129C17.3534 8.12757 17.3349 8.1422 17.3163 8.15679C17.3029 8.1674 17.3029 8.1674 17.2893 8.17822C17.1407 8.29485 17.1407 8.29485 17.0583 8.33143C16.983 8.37278 16.9573 8.44599 16.9204 8.5224C16.8783 8.60593 16.8315 8.64839 16.7554 8.69941C16.6198 8.80234 16.5692 8.97109 16.5248 9.13242C16.5026 9.21084 16.4774 9.26531 16.4267 9.32718C16.3873 9.34789 16.3515 9.3452 16.3076 9.34729C16.2172 9.35345 16.1331 9.36589 16.0545 9.41601C16.0149 9.43337 15.9889 9.42966 15.9464 9.42461C15.706 9.39897 15.706 9.39897 15.4942 9.50285C15.4344 9.56177 15.4012 9.63458 15.3677 9.71213C15.3451 9.76362 15.316 9.80237 15.2798 9.84471C15.1001 10.0675 15.0332 10.3827 15.0446 10.671C15.082 10.9621 15.2804 11.3074 15.4675 11.5217C15.4767 11.5265 15.4859 11.5313 15.4953 11.5363C15.4971 11.5519 15.4989 11.5676 15.5007 11.5837C15.5102 11.6451 15.524 11.6674 15.5622 11.7137C15.5736 11.7275 15.5849 11.7413 15.5966 11.7556C15.6092 11.7703 15.6217 11.785 15.6343 11.7996C15.6406 11.8071 15.6469 11.8145 15.6534 11.8222C15.7334 11.9162 15.8165 12.0064 15.9019 12.095C15.9658 12.1612 16.024 12.2286 16.0785 12.3037C16.1065 12.3404 16.1361 12.3743 16.167 12.4084C16.416 12.6844 16.416 12.6844 16.4418 12.8866C16.4515 12.9631 16.4733 13.0189 16.5094 13.0853C16.524 13.1163 16.524 13.1163 16.5292 13.1739C16.5335 13.1961 16.5335 13.1961 16.5379 13.2187C16.5852 13.2443 16.5852 13.2443 16.6352 13.2626C16.6569 13.2873 16.6569 13.2873 16.663 13.3211C16.6545 13.3835 16.6376 13.4421 16.6074 13.4967C16.5691 13.5013 16.5691 13.5013 16.524 13.4967C16.5156 13.4846 16.5073 13.4725 16.4988 13.4601C16.4887 13.448 16.4787 13.436 16.4684 13.4235C16.4417 13.4216 16.4417 13.4216 16.4119 13.4254C16.3211 13.4313 16.2619 13.3735 16.1903 13.3211C16.1073 13.2645 16.0288 13.253 15.9311 13.2407C15.8733 13.2316 15.8269 13.2135 15.7733 13.1895C15.6189 13.1375 15.4488 13.1828 15.3007 13.2333C15.2918 13.2363 15.2829 13.2393 15.2738 13.2424C15.1459 13.2855 15.0577 13.3195 14.9879 13.4455C14.9317 13.5471 14.8792 13.5831 14.7725 13.6137C14.763 13.6216 14.7535 13.6294 14.7438 13.6375C14.7046 13.6667 14.681 13.6628 14.6335 13.6576C14.5983 13.6388 14.5672 13.6198 14.5344 13.5973C14.5158 13.5851 14.4971 13.5729 14.4784 13.5607C14.4692 13.5548 14.4601 13.5488 14.4507 13.5426C14.299 13.4443 14.138 13.3945 13.9662 13.3504C13.9559 13.3477 13.9455 13.3451 13.9348 13.3423C13.6568 13.2744 13.3126 13.2505 13.0595 13.4075C12.9417 13.4927 12.8798 13.5793 12.8283 13.7188C12.8125 13.76 12.8125 13.76 12.7864 13.8057C12.7582 13.8817 12.7789 13.9627 12.7932 14.0412C12.8238 14.2724 12.7336 14.5226 12.6318 14.7256C12.6198 14.7421 12.6073 14.7583 12.5944 14.7741C12.542 14.8445 12.5099 14.9248 12.4761 15.0063C12.4717 15.0168 12.4672 15.0273 12.4626 15.0382C12.4587 15.0477 12.4548 15.0572 12.4508 15.067C12.4371 15.0913 12.4371 15.0913 12.3954 15.1206C12.3402 15.1219 12.2864 15.1131 12.2356 15.0904C12.1325 15.0497 12.045 15.0843 11.9478 15.1281C11.8831 15.1643 11.8394 15.198 11.8107 15.2696C11.7462 15.3996 11.6069 15.4836 11.478 15.5302C11.4463 15.5406 11.4145 15.5503 11.3825 15.5598C11.2886 15.5907 11.1967 15.6283 11.1047 15.6649C11.0802 15.6745 11.0555 15.6836 11.0308 15.6926C10.9455 15.7248 10.8904 15.7728 10.8247 15.8375C10.7762 15.8778 10.7526 15.8951 10.6906 15.9C10.6183 15.9083 10.5687 15.9456 10.5093 15.9874C10.3059 16.1236 10.0745 16.2143 9.83076 16.1986C9.74671 16.1956 9.70796 16.2071 9.64484 16.2663C9.61218 16.3025 9.58602 16.3372 9.5597 16.3788C9.44664 16.4175 9.33781 16.4057 9.2226 16.3879C8.78998 16.3332 8.41812 16.3347 8.01671 16.5251C7.98995 16.5369 7.96316 16.5487 7.93635 16.5604C7.8095 16.6178 7.70978 16.6823 7.61359 16.7884C7.60282 16.7984 7.59205 16.8084 7.58096 16.8187C7.44646 16.9466 7.37793 17.1113 7.36338 17.3004C7.36195 17.3179 7.36051 17.3355 7.35904 17.3535C7.36999 17.478 7.41349 17.568 7.4785 17.6712C7.54391 17.7776 7.56706 17.8611 7.55799 17.9881C7.51851 18.0051 7.50362 18.0032 7.46291 17.987C7.4487 17.9792 7.43449 17.9714 7.41985 17.9634C7.40568 17.9558 7.3915 17.9482 7.3769 17.9403C7.33558 17.9149 7.33558 17.9149 7.30354 17.8819C7.24739 17.8436 7.20237 17.8568 7.13836 17.8674C7.11459 17.8708 7.0908 17.8741 7.06701 17.8774C7.0557 17.8789 7.04439 17.8805 7.03274 17.8821C6.99626 17.8863 6.96121 17.8854 6.92464 17.8829C6.85791 17.8805 6.8144 17.9097 6.7574 17.9435C6.70443 17.9677 6.66791 17.9581 6.61274 17.9442C6.60183 17.8959 6.59582 17.8653 6.61187 17.818C6.6485 17.6955 6.63283 17.5634 6.58494 17.4467C6.56487 17.4084 6.54352 17.3713 6.52119 17.3343C6.5042 17.305 6.49102 17.2774 6.47895 17.2456C6.41051 17.0753 6.26869 16.9292 6.11231 16.8469C5.98991 16.8385 5.86697 16.8518 5.74516 16.8641C5.71489 16.8671 5.68461 16.8699 5.65432 16.8726C5.63495 16.8745 5.61557 16.8764 5.5962 16.8784C5.57016 16.8809 5.57016 16.8809 5.5436 16.8835C5.49847 16.888 5.49847 16.888 5.45898 16.9201C5.43298 16.9278 5.43298 16.9278 5.40347 16.9337C5.38683 16.937 5.38683 16.937 5.36986 16.9405C5.35791 16.9428 5.34596 16.9451 5.33366 16.9475C5.3213 16.95 5.30894 16.9525 5.2962 16.955C5.25665 16.963 5.21707 16.9708 5.17749 16.9786C5.13811 16.9864 5.09874 16.9942 5.05937 17.0021C5.03489 17.007 5.0104 17.0119 4.9859 17.0167C4.91985 17.0299 4.85623 17.0465 4.79174 17.0664C4.67081 17.0838 4.56043 17.0128 4.45813 16.9521C4.39078 16.915 4.33493 16.9158 4.2602 16.9232C4.2093 16.919 4.1908 16.8958 4.15231 16.8616C4.11179 16.8442 4.11179 16.8442 4.06717 16.8305C3.8784 16.7626 3.68833 16.6622 3.54426 16.515C3.46761 16.4431 3.38681 16.4383 3.28867 16.4289C3.21377 16.4202 3.13694 16.4074 3.08195 16.3495C3.03001 16.3449 2.97833 16.344 2.92622 16.3428C2.83918 16.3298 2.78607 16.2752 2.72314 16.2142C2.70519 16.197 2.70519 16.197 2.68687 16.1795C2.66396 16.1572 2.64121 16.1348 2.61867 16.1122C2.55868 16.0531 2.50603 16.0144 2.42965 15.9827C2.37678 15.9578 2.33682 15.9182 2.2977 15.8735C2.2733 15.8497 2.25148 15.8391 2.22098 15.8256C2.16439 15.797 2.1383 15.7652 2.1089 15.7058C2.0936 15.6556 2.09223 15.6065 2.08979 15.554C2.08398 15.4687 2.07273 15.407 2.01594 15.3428C1.97795 15.2762 1.99591 15.1904 2.00465 15.116C2.02699 14.9659 2.02699 14.9659 1.98293 14.8298C1.96945 14.8196 1.95598 14.8093 1.94209 14.7987C1.92488 14.7837 1.9078 14.7684 1.89084 14.753C1.87871 14.7426 1.87871 14.7426 1.86635 14.7319C1.84479 14.711 1.84479 14.711 1.81699 14.6671C1.78509 14.6602 1.78509 14.6602 1.74922 14.6598C1.69336 14.6577 1.66308 14.6502 1.62238 14.6086C1.61173 14.5822 1.61173 14.5822 1.605 14.5519C1.58725 14.4884 1.55976 14.4384 1.52594 14.3827C1.43934 14.2376 1.40645 14.137 1.41468 13.9654C1.41833 13.8688 1.40847 13.7748 1.34632 13.6994C1.33331 13.6873 1.33331 13.6873 1.32004 13.675C1.25667 13.5957 1.27031 13.5122 1.27789 13.4148C1.2812 13.3786 1.28495 13.3426 1.28876 13.3065C1.29005 13.2897 1.29134 13.2729 1.29267 13.2555C1.29976 13.1632 1.29976 13.1632 1.31656 13.1456C1.32847 13.0572 1.29151 12.9963 1.25227 12.9216C1.24591 12.9091 1.23954 12.8966 1.23298 12.8837C1.20199 12.8236 1.17025 12.7663 1.13151 12.7112C1.09353 12.6547 1.07403 12.5948 1.05419 12.5293C1.05119 12.5195 1.04819 12.5097 1.0451 12.4996C1.02364 12.4237 1.01404 12.3523 1.0342 12.2751C1.04205 12.235 1.04205 12.235 1.01683 12.1882C0.996845 12.1361 0.996845 12.1361 1.00553 12.0922C1.01184 12.0777 1.01815 12.0633 1.02465 12.0483C1.03153 12.0314 1.03841 12.0145 1.0455 11.9971C1.05238 11.9802 1.05926 11.9633 1.06635 11.9459C1.07036 11.9299 1.07438 11.9139 1.07851 11.8975C1.09415 11.8581 1.09415 11.8581 1.12369 11.8371C1.17684 11.8262 1.22275 11.8272 1.27486 11.8435C1.30353 11.8709 1.30353 11.8709 1.33046 11.902C1.3468 11.9081 1.36315 11.9141 1.37998 11.9203C1.43053 11.9474 1.43485 11.9507 1.45296 12.0026C1.45854 12.0227 1.46404 12.0428 1.46947 12.063C1.48848 12.1295 1.5145 12.1554 1.56851 12.1946C1.58913 12.2097 1.58913 12.2097 1.61016 12.2251C1.65121 12.2539 1.69268 12.2815 1.73483 12.3084C1.7739 12.3347 1.81024 12.3645 1.84674 12.3946C1.90247 12.4366 1.93847 12.4453 2.00763 12.4435C2.04258 12.4433 2.0767 12.4456 2.11151 12.4488C2.1226 12.4498 2.13369 12.4509 2.14512 12.4519C2.17841 12.458 2.17841 12.458 2.21072 12.4764C2.26741 12.4929 2.30515 12.4644 2.3539 12.436C2.36376 12.4305 2.37362 12.425 2.38378 12.4193C2.40361 12.4082 2.42338 12.3969 2.4431 12.3856C2.4661 12.3726 2.48951 12.3604 2.513 12.3484C2.69845 12.252 2.82234 12.088 2.94295 11.9167C2.95393 11.9014 2.96492 11.8861 2.97623 11.8704C3.03611 11.7861 3.07861 11.7187 3.09238 11.6131C3.10759 11.5287 3.14514 11.4726 3.19316 11.4046C3.25292 11.316 3.25292 11.316 3.29829 11.219C3.32883 11.1449 3.36386 11.0969 3.43121 11.0572C3.48613 11.0355 3.54336 11.0265 3.60117 11.0173C3.63927 11.0093 3.67171 10.996 3.70749 10.9804C3.73243 10.974 3.73243 10.974 3.75788 10.9675C3.84648 10.9449 3.93663 10.9185 4.01162 10.8629C4.08776 10.8123 4.17611 10.8058 4.26352 10.7902C4.2754 10.7868 4.28728 10.7835 4.29952 10.7801C4.35381 10.7669 4.37836 10.7691 4.42723 10.7998C4.45351 10.8203 4.47926 10.8415 4.50434 10.8636C4.57745 10.9205 4.6531 10.9263 4.74135 10.9337C4.90159 10.9498 5.05122 10.9965 5.1966 11.0698C5.22117 11.082 5.24669 11.0921 5.27219 11.102C5.33496 11.1344 5.38023 11.1794 5.43118 11.2291C5.50461 11.2973 5.55049 11.3175 5.64925 11.3214C5.7136 11.3251 5.756 11.3293 5.8091 11.368C5.83405 11.3852 5.83405 11.3852 5.8621 11.39C5.90263 11.3717 5.93495 11.3472 5.97059 11.3199C6.02103 11.2832 6.07279 11.2559 6.12795 11.2281C6.27562 11.1525 6.38889 11.0904 6.45114 10.9246C6.45539 10.9134 6.45963 10.9022 6.464 10.8907C6.4726 10.8679 6.48114 10.8451 6.48961 10.8223C6.50001 10.7943 6.51066 10.7664 6.52135 10.7385C6.58186 10.5729 6.60832 10.4006 6.63788 10.2266C6.63966 10.2163 6.64144 10.206 6.64328 10.1953C6.64801 10.1677 6.65256 10.1401 6.6571 10.1124C6.66573 10.0712 6.67555 10.0395 6.69023 10.001C6.71983 9.91038 6.71525 9.8166 6.71396 9.72205C6.71353 9.6905 6.71339 9.65896 6.7133 9.6274C6.71226 9.4287 6.711 9.2417 6.63321 9.05744C6.60353 8.97379 6.60138 8.88706 6.59623 8.79867C6.59453 8.77336 6.59453 8.77336 6.59279 8.74753C6.58282 8.59465 6.58282 8.59465 6.58494 8.52254C6.59884 8.50791 6.59884 8.50791 6.63973 8.50648C6.66464 8.50673 6.66464 8.50673 6.69006 8.50699C6.70671 8.50712 6.72336 8.50726 6.74051 8.50739C6.75339 8.50756 6.76628 8.50773 6.77955 8.50791C6.77955 8.51756 6.77955 8.52722 6.77955 8.53717C6.79836 8.5439 6.81719 8.5506 6.83602 8.55728C6.84751 8.56141 6.85899 8.56554 6.87083 8.5698C6.90673 8.58248 6.90673 8.58248 6.95331 8.59111C7.00237 8.61048 7.02001 8.62591 7.0567 8.66335C7.17506 8.77985 7.32685 8.84642 7.48463 8.87782C7.5363 8.88968 7.58484 8.90781 7.63444 8.92669C7.80751 8.99018 7.95902 8.97914 8.13454 8.93451C8.27257 8.90018 8.37466 8.8891 8.50678 8.95004C8.64327 9.01152 8.76344 9.01431 8.90984 9.00715C9.16274 8.99611 9.16274 8.99611 9.28878 9.04955C9.35154 9.07547 9.41085 9.08056 9.47787 9.08258C9.49407 9.08313 9.51028 9.08368 9.52698 9.08424C9.55221 9.08501 9.55221 9.08501 9.57794 9.08578C9.86696 9.09462 9.86696 9.09462 9.89331 9.12236C9.92605 9.12724 9.95863 9.1314 9.99149 9.13516C10.069 9.14447 10.1444 9.1573 10.2208 9.17448C10.3267 9.19742 10.4318 9.2016 10.5397 9.20508C10.6189 9.20779 10.6957 9.2139 10.7743 9.22568C10.8891 9.24236 11.001 9.243 11.1166 9.2394C11.1317 9.23913 11.1468 9.23887 11.1624 9.2386C11.2657 9.23391 11.3597 9.2093 11.4587 9.18008C11.548 9.15408 11.6371 9.13623 11.7287 9.1222C11.7722 9.11539 11.8127 9.10736 11.8544 9.09259C11.9006 9.07654 11.9431 9.07214 11.9915 9.0675C12.0921 9.05464 12.1745 9.02385 12.267 8.98103C12.3364 8.95083 12.3982 8.94518 12.4724 8.94257C12.7021 8.93418 12.8741 8.88053 13.0664 8.74398C13.2578 8.60874 13.4612 8.49738 13.6743 8.4055C13.6947 8.3963 13.6947 8.3963 13.7155 8.38692C13.9035 8.30749 14.1102 8.2962 14.3103 8.28754C14.5727 8.28645 14.5727 8.28645 14.815 8.20068C14.8849 8.1604 14.9438 8.14469 15.0229 8.13799C15.0631 8.12785 15.082 8.11686 15.1155 8.09301C15.1818 8.04702 15.2503 8.02794 15.3268 8.00775C15.3397 8.00414 15.3526 8.00052 15.3659 7.9968C15.4291 7.97941 15.4921 7.96421 15.5564 7.9518C15.6063 7.94159 15.6445 7.92886 15.6873 7.89894C15.6987 7.89124 15.71 7.88355 15.7217 7.87562C15.7342 7.86702 15.7466 7.85842 15.7594 7.84956C15.7904 7.82936 15.8213 7.80923 15.8524 7.78921C15.9106 7.75175 15.9106 7.75175 15.9684 7.71361C16.0249 7.67697 16.0815 7.65875 16.1454 7.64194C16.1768 7.63259 16.1768 7.63259 16.1957 7.60988C16.2289 7.5749 16.2679 7.55887 16.3102 7.53776C16.3699 7.50748 16.4261 7.47643 16.4805 7.43627C16.5424 7.39112 16.6049 7.35771 16.6804 7.3482C16.7317 7.34136 16.7633 7.33557 16.7988 7.2942C16.8148 7.26924 16.8302 7.24396 16.8453 7.21842C16.8836 7.1573 16.9305 7.10618 16.9779 7.05281C17.0044 7.02257 17.0294 6.99189 17.0539 6.95988C17.1072 6.89349 17.1749 6.84481 17.2451 6.79987C17.2853 6.75504 17.2878 6.71352 17.2947 6.65346C17.3024 6.62066 17.3024 6.62066 17.3441 6.5914C17.4051 6.58384 17.4431 6.58987 17.4953 6.62157C17.5605 6.65865 17.607 6.6513 17.6777 6.63528C17.6913 6.63285 17.7049 6.63042 17.7188 6.62791C17.8094 6.60884 17.8669 6.58245 17.9318 6.5127C17.9739 6.47091 18.018 6.45618 18.0742 6.44561C18.0861 6.44326 18.098 6.44092 18.1103 6.4385C18.1351 6.43378 18.1599 6.4291 18.1847 6.42444C18.3018 6.4013 18.378 6.36664 18.4701 6.28417C18.4835 6.27723 18.497 6.27029 18.5109 6.26314C18.5565 6.23866 18.5875 6.20968 18.625 6.17364C18.652 6.15151 18.6753 6.14182 18.7072 6.12964C18.7797 6.09519 18.7972 6.02468 18.8243 5.95048C18.8688 5.85203 18.9577 5.78041 19.0539 5.74286C19.1024 5.7398 19.1488 5.74024 19.1972 5.74228C19.2769 5.74504 19.3125 5.73774 19.3736 5.68434C19.3968 5.65941 19.4194 5.63455 19.4408 5.60799C19.5314 5.52955 19.6404 5.51189 19.7533 5.49507C19.8729 5.47529 19.9741 5.44981 20.0826 5.39175C20.0989 5.38511 20.1152 5.37847 20.1321 5.37163C20.1806 5.33759 20.1891 5.30291 20.2077 5.24545C20.2627 5.25028 20.3178 5.2551 20.3745 5.26008C20.3925 5.22523 20.3925 5.22523 20.411 5.18967C20.4454 5.12313 20.4739 5.0973 20.5413 5.06989C20.5858 5.05694 20.6306 5.04705 20.6759 5.03789C20.6944 5.03411 20.6944 5.03411 20.7132 5.03025C20.8996 4.99391 20.8996 4.99391 20.9722 5.01137Z" fill="#0A79B8"/>
</svg>
