<svg width="22" height="22" viewBox="0 0 22 22" fill="none" xmlns="http://www.w3.org/2000/svg">
<g clip-path="url(#clip0_5167_13086)">
<path d="M10.6055 15.8201C10.6056 14.8841 10.8785 13.9685 11.3908 13.1853C11.9031 12.402 12.6326 11.7851 13.49 11.4099C14.3474 11.0347 15.2956 10.9176 16.2186 11.0728C17.1416 11.2281 17.9992 11.649 18.6868 12.284C18.7095 10.6388 18.6959 8.99357 18.6458 7.34835C18.6185 6.21802 17.9803 5.08325 16.911 4.52252C16.3616 4.23209 15.7923 3.95258 15.2166 3.68774C12.9416 4.42355 10.2772 5.39416 7.58989 6.59582C7.33152 6.71003 7.11018 6.89412 6.95081 7.12736C6.79144 7.36059 6.70038 7.6337 6.68788 7.91591C6.6459 9.21279 6.63293 10.5513 6.65 11.8748C6.65137 11.9136 6.64027 11.9519 6.61831 11.9839C6.59635 12.0159 6.56469 12.0401 6.52799 12.0528C6.4913 12.0655 6.45149 12.0661 6.41441 12.0545C6.37734 12.043 6.34496 12.0198 6.32202 11.9885C6.03762 11.6244 5.75981 11.2645 5.48861 10.9086C5.46859 10.8808 5.43883 10.8615 5.40526 10.8547C5.37168 10.8478 5.33675 10.8538 5.30739 10.8714C5.09647 10.997 4.88931 11.1209 4.68591 11.2431C4.57192 11.3113 4.43165 11.2202 4.43097 11.08C4.42414 9.76157 4.45691 8.43978 4.52755 7.1586C4.55724 6.61835 4.89614 6.10949 5.39748 5.86172C7.97486 4.58873 10.7246 3.54884 13.0709 2.77924C12.5249 2.5656 11.9819 2.3697 11.4519 2.18404C10.7372 1.93865 9.96114 1.93865 9.24649 2.18404C7.47795 2.79426 5.54663 3.59081 3.78696 4.52252C2.71806 5.08325 2.08054 6.21802 2.05222 7.34835C1.98259 9.60766 1.98259 11.867 2.05222 14.1263C2.07952 15.2566 2.71806 16.3914 3.78696 16.9521C5.54663 17.8838 7.47795 18.6804 9.24751 19.2902C9.96216 19.5356 10.7382 19.5356 11.4529 19.2902C11.6074 19.237 11.7633 19.182 11.9208 19.1254C11.0735 18.2339 10.6024 17.05 10.6055 15.8201Z" fill="#0A79B8"/>
<path d="M18.4596 13.3105C16.9313 11.7822 14.4445 11.7822 12.9163 13.3105C11.388 14.8387 11.388 17.3255 12.9163 18.8538C14.4445 20.382 16.9313 20.382 18.4596 18.8538C19.9878 17.3255 19.9878 14.8387 18.4596 13.3105ZM16.2908 17.7878C16.2908 18.1212 16.0213 18.3907 15.6879 18.3907C15.5216 18.3907 15.3706 18.3233 15.2615 18.2142C15.1523 18.105 15.0849 17.954 15.0849 17.7878V16.6851H13.9822C13.8159 16.6851 13.665 16.6177 13.5558 16.5085C13.4467 16.3994 13.3793 16.2484 13.3793 16.0821C13.3793 15.7487 13.6488 15.4792 13.9822 15.4792H15.0849V14.3765C15.0849 14.043 15.3544 13.7735 15.6879 13.7735C16.0213 13.7735 16.2908 14.043 16.2908 14.3765V15.4792H17.3935C17.7269 15.4792 17.9964 15.7487 17.9964 16.0821C17.9964 16.4156 17.7269 16.6851 17.3935 16.6851H16.2908V17.7878Z" fill="#0A79B8"/>
</g>
<defs>
<clipPath id="clip0_5167_13086">
<rect width="22" height="22" fill="white"/>
</clipPath>
</defs>
</svg>
