<svg width="22" height="22" viewBox="0 0 22 22" fill="none" xmlns="http://www.w3.org/2000/svg">
<g clip-path="url(#clip0_5167_13091)">
<path d="M10.6148 15.835C10.6149 14.898 10.8881 13.9815 11.4009 13.1974C11.9138 12.4132 12.6441 11.7956 13.5024 11.42C14.3608 11.0445 15.31 10.9272 16.234 11.0826C17.1579 11.238 18.0165 11.6594 18.7048 12.2951C18.7275 10.6481 18.7139 9.00112 18.6638 7.35413C18.6364 6.22258 17.9976 5.08658 16.9272 4.52524C16.3771 4.2345 15.8072 3.95468 15.2308 3.68956C12.9534 4.42616 10.2861 5.39783 7.59593 6.60078C7.33728 6.71511 7.1157 6.8994 6.95616 7.13289C6.79662 7.36638 6.70546 7.63978 6.69294 7.9223C6.65092 9.22058 6.63794 10.5605 6.65502 11.8855C6.6564 11.9243 6.64528 11.9626 6.62329 11.9947C6.60131 12.0267 6.56962 12.0509 6.53288 12.0636C6.49615 12.0764 6.45629 12.077 6.41918 12.0654C6.38207 12.0538 6.34965 12.0306 6.32669 11.9992C6.04198 11.6348 5.76388 11.2745 5.49237 10.9183C5.47233 10.8904 5.44255 10.8711 5.40894 10.8642C5.37533 10.8573 5.34035 10.8633 5.31096 10.881C5.09982 11.0067 4.89243 11.1308 4.68881 11.2531C4.5747 11.3214 4.43428 11.2302 4.43359 11.0898C4.42676 9.76996 4.45956 8.44674 4.53028 7.16417C4.56 6.62333 4.89927 6.11393 5.40115 5.86589C7.98132 4.59152 10.734 3.55051 13.0829 2.78008C12.5362 2.56621 11.9927 2.3701 11.4621 2.18424C10.7467 1.93859 9.96973 1.93859 9.25431 2.18424C7.48387 2.79511 5.55046 3.59253 3.78889 4.52524C2.71884 5.08658 2.08063 6.22258 2.05227 7.35413C1.98258 9.61587 1.98258 11.8776 2.05227 14.1394C2.07961 15.2709 2.71884 16.4069 3.78889 16.9682C5.55046 17.901 7.48387 18.6984 9.25534 19.3089C9.97076 19.5546 10.7477 19.5546 11.4631 19.3089C11.6178 19.2556 11.7739 19.2006 11.9315 19.1439C11.0833 18.2514 10.6117 17.0663 10.6148 15.835Z" fill="#0A79B8"/>
<path opacity="0.94" d="M18.4757 13.3033C20.0056 14.8332 20.0056 17.3227 18.4757 18.8526C16.9459 20.3825 14.4564 20.3825 12.9265 18.8526C11.3966 17.3227 11.3966 14.8332 12.9265 13.3033C14.4564 11.7734 16.9459 11.7734 18.4757 13.3033ZM18.2078 16.0366C18.2056 15.9403 18.1649 15.8499 18.0966 15.7902L16.3401 14.2435C16.2539 14.1645 16.1346 14.1469 16.0327 14.1981C15.9311 14.2517 15.8662 14.3652 15.8659 14.4899L15.8659 15.4627L13.376 15.4627C13.2143 15.4627 13.0833 15.6079 13.0833 15.787L13.0833 16.4355C13.0833 16.6146 13.2143 16.7597 13.376 16.7597L15.8659 16.7597L15.8659 17.7325C15.866 17.8598 15.9334 17.9752 16.0381 18.0276C16.1428 18.08 16.2655 18.0597 16.3518 17.9757L18.1083 16.2798C18.1714 16.2184 18.2077 16.1298 18.2078 16.0366Z" fill="#0A79B8"/>
</g>
<defs>
<clipPath id="clip0_5167_13091">
<rect width="22" height="22" fill="white"/>
</clipPath>
</defs>
</svg>
