<svg width="22" height="22" viewBox="0 0 22 22" fill="none" xmlns="http://www.w3.org/2000/svg">
<path d="M14.6472 5C15.1509 4.99955 15.6419 5.15785 16.0505 5.4524C16.459 5.74694 16.7645 6.16276 16.9232 6.64076L18.0176 9.92388C18.5944 10.1663 19 10.7351 19 11.3998V13.7998C18.9995 14.0795 18.9254 14.3543 18.7849 14.5962C18.6445 14.8382 18.4427 15.039 18.2 15.1782V16.1997C18.2 16.4119 18.1157 16.6154 17.9657 16.7654C17.8157 16.9154 17.6122 16.9997 17.4 16.9997H16.6C16.3878 16.9997 16.1843 16.9154 16.0343 16.7654C15.8843 16.6154 15.8 16.4119 15.8 16.1997V15.3997H6.2V16.1997C6.2 16.4119 6.11571 16.6154 5.96569 16.7654C5.81566 16.9154 5.61218 16.9997 5.4 16.9997H4.6C4.38782 16.9997 4.18434 16.9154 4.03431 16.7654C3.88429 16.6154 3.8 16.4119 3.8 16.1997V15.1782C3.3232 14.9006 3 14.3902 3 13.7998V11.3998C3 11.0844 3.09341 10.776 3.26818 10.5135C3.44297 10.2508 3.69144 10.0457 3.9824 9.92388L5.0768 6.64076C5.23556 6.16276 5.54092 5.74694 5.9495 5.4524C6.35809 5.15785 6.84911 4.99955 7.3528 5H14.6472ZM5.8008 11.399C5.48243 11.399 5.17706 11.5253 4.95187 11.7503C4.72668 11.9754 4.6001 12.2806 4.6 12.599C4.5999 12.9174 4.72626 13.2228 4.9513 13.448C5.06274 13.5594 5.19504 13.6479 5.34066 13.7083C5.48628 13.7687 5.64236 13.7997 5.8 13.7998C6.11837 13.7999 6.42374 13.6736 6.64893 13.4485C6.87412 13.2235 7.0007 12.9182 7.0008 12.5998C7.0009 12.2814 6.87454 11.9761 6.6495 11.7509C6.42445 11.5257 6.11917 11.3991 5.8008 11.399ZM16.2008 11.399C15.8824 11.399 15.577 11.5253 15.3518 11.7503C15.1266 11.9754 15.0001 12.2806 15 12.599C14.9999 12.9174 15.1262 13.2228 15.3513 13.448C15.5763 13.6732 15.8816 13.7997 16.2 13.7998C16.5184 13.7999 16.8238 13.6736 17.049 13.4485C17.2742 13.2235 17.4007 12.9182 17.4008 12.5998C17.4009 12.2814 17.2746 11.9761 17.0495 11.7509C16.8245 11.5257 16.5192 11.3991 16.2008 11.399ZM13.5 12H8.5C8.22386 12 8 12.2239 8 12.5C8 12.7761 8.22386 13 8.5 13H13.5C13.7761 13 14 12.7761 14 12.5C14 12.2239 13.7761 12 13.5 12ZM14.6464 6.59996H7.3528C7.0088 6.59996 6.7032 6.81996 6.5936 7.14715L5.7096 9.79988H16.2904L15.4056 7.14715C15.3526 6.98779 15.2506 6.84918 15.1144 6.75097C14.9781 6.65275 14.8144 6.59992 14.6464 6.59996Z" fill="#0A79B8"/>
</svg>
