<svg width="22" height="22" viewBox="0 0 22 22" fill="none" xmlns="http://www.w3.org/2000/svg">
<path d="M16.2588 6C17.2498 6 18.0533 6.80344 18.0533 7.79453L18.0528 9.98L14.5807 9.98016C13.6048 9.98016 12.7374 10.5029 12.265 11.299C12.3098 11.0776 12.3332 10.8446 12.3332 10.6041C12.3332 9.1512 11.4792 7.9732 10.4265 7.9732C9.37386 7.9732 8.51986 9.1514 8.51986 10.6043C8.51986 12.0558 9.37386 13.2351 10.4265 13.2351C11.0355 13.2351 11.5781 12.8404 11.9272 12.2266L11.9147 12.3006L11.5319 15.0486C11.5245 15.1017 11.5187 15.1549 11.5145 15.2083L4.59433 15.2083C3.60324 15.2083 2.7998 14.4049 2.7998 13.4138V7.79453C2.7998 6.80344 3.60324 6 4.59433 6H16.2588ZM4.07099 11.9194V12.9953C4.07099 13.4909 4.47271 13.8926 4.96825 13.8926H5.97768C5.97768 12.8034 5.12367 11.9194 4.07099 11.9194ZM5.97768 7.31534H4.96825C4.47271 7.31534 4.07099 7.71705 4.07099 8.2126V9.28854C5.12367 9.28854 5.97768 8.40474 5.97768 7.31534ZM15.8848 7.31534H14.8754C14.8754 8.40474 15.7294 9.28854 16.7821 9.28854V8.2126C16.7821 7.71705 16.3804 7.31534 15.8848 7.31534Z" fill="#0A79B8"/>
<path d="M19.1609 15.2083H12.8116C12.4588 15.2083 12.1729 15.4943 12.1729 15.8471V15.9863C12.1729 16.339 12.4588 16.625 12.8116 16.625H19.1609C19.5136 16.625 19.7996 16.339 19.7996 15.9863V15.8471C19.7996 15.4943 19.5136 15.2083 19.1609 15.2083Z" fill="#0A79B8"/>
<path d="M18.6528 13.2183H13.3204C12.9676 13.2183 12.6816 13.5042 12.6816 13.857V13.9962C12.6816 14.349 12.9676 14.6349 13.3204 14.6349H18.6528C19.0055 14.6349 19.2915 14.349 19.2915 13.9962V13.857C19.2915 13.5042 19.0055 13.2183 18.6528 13.2183Z" fill="#0A79B8"/>
<path d="M18.2727 11.2282H13.8301C13.4774 11.2282 13.1914 11.5141 13.1914 11.8669V12.0061C13.1914 12.3589 13.4774 12.6448 13.8301 12.6448H18.2727C18.6255 12.6448 18.9115 12.3589 18.9115 12.0061V11.8669C18.9115 11.5141 18.6255 11.2282 18.2727 11.2282Z" fill="#0A79B8"/>
</svg>
