<svg width="22" height="22" viewBox="0 0 22 22" fill="none" xmlns="http://www.w3.org/2000/svg">
<g clip-path="url(#clip0_5167_12631)">
<path fill-rule="evenodd" clip-rule="evenodd" d="M15.88 9.30451L13.7746 6.24874H5.00024C3.89567 6.24874 3.00024 7.14418 3.00024 8.24874V12.8632C3.24635 13.0044 3.51885 13.1048 3.85219 13.2275C3.96303 13.2683 4.08066 13.3116 4.20621 13.3597C4.23767 13.3718 4.27009 13.3833 4.30425 13.3948L4.56802 12.6701C4.8166 11.9872 5.73395 11.8692 6.14703 12.4689L8.23749 15.503H17.0002C18.1048 15.503 19.0002 14.6076 19.0002 13.503V8.89523C18.7611 8.76181 18.4963 8.66429 18.1749 8.54593C18.064 8.50512 17.9464 8.4618 17.8208 8.4137C17.7894 8.40165 17.757 8.39011 17.7228 8.37863L17.459 9.10332C17.2105 9.78629 16.2931 9.90423 15.88 9.30451ZM4.33364 9.55367V8.57064C4.33364 8.01835 4.78136 7.57064 5.33364 7.57064H6.33364C6.33364 8.66547 5.43784 9.55367 4.33364 9.55367ZM11.0002 13.5199C9.89604 13.5199 9.00024 12.3347 9.00024 10.876C9.00024 9.41585 9.89604 8.23178 11.0002 8.23178C12.1044 8.23178 13.0002 9.41565 13.0002 10.8758C13.0002 12.3347 12.1044 13.5199 11.0002 13.5199ZM16.6668 14.1807H15.6668C15.6668 13.0861 16.5626 12.1977 17.6668 12.1977V13.1807C17.6668 13.733 17.2191 14.1807 16.6668 14.1807Z" fill="#0A79B8"/>
<path d="M14.1861 5.436L16.5392 8.85119C16.5831 8.91501 16.6808 8.90255 16.7073 8.8297L17.2016 7.47166C17.2196 7.42209 17.2743 7.3967 17.3238 7.41469C17.5811 7.50836 17.8519 7.56888 18.1071 7.66667C19.019 8.01599 20.101 8.29231 20.3612 9.39088C20.3909 9.51598 20.5684 9.51586 20.596 9.39032C20.6591 9.10322 20.7106 8.73499 20.6931 8.33638C20.646 7.26749 19.939 6.33969 18.9337 5.9738L17.9752 5.62491C17.9258 5.60693 17.9002 5.55215 17.9182 5.50274L18.3521 4.3107C18.3785 4.238 18.3117 4.16567 18.2371 4.18619L14.2393 5.29C14.176 5.30737 14.1488 5.38201 14.1861 5.436Z" fill="#0A79B8"/>
<path d="M7.81382 16.3194L5.46071 12.9041C5.41682 12.8403 5.31914 12.8528 5.29262 12.9256L4.79833 14.2837C4.78029 14.3332 4.72572 14.3587 4.67615 14.3406C4.41873 14.2471 4.14799 14.1865 3.89295 14.0887C2.98088 13.7393 1.89885 13.463 1.63863 12.3646C1.60898 12.2393 1.43142 12.2395 1.40382 12.365C1.34074 12.6521 1.28922 13.0203 1.30677 13.4189C1.35391 14.4878 2.06086 15.4157 3.06615 15.7816L4.02472 16.1304C4.07428 16.1485 4.09968 16.2032 4.08169 16.2526L3.64787 17.4445C3.62136 17.5174 3.68818 17.5897 3.76283 17.569L7.76067 16.4654C7.82397 16.448 7.85108 16.3735 7.81382 16.3194Z" fill="#0A79B8"/>
</g>
<defs>
<clipPath id="clip0_5167_12631">
<rect width="22" height="22" fill="white"/>
</clipPath>
</defs>
</svg>
