<svg width="22" height="22" viewBox="0 0 22 22" fill="none" xmlns="http://www.w3.org/2000/svg">
<path d="M8.83 13.5034C10.2949 14.9683 10.3264 17.3205 8.90016 18.7467C7.47396 20.1729 5.12171 20.1415 3.65681 18.6766C2.19192 17.2117 2.16044 14.8594 3.58665 13.4332C5.01285 12.007 7.3651 12.0385 8.83 13.5034ZM6.12464 4.9966V6.32767H5.45202C5.07197 6.32767 4.7794 6.61716 4.7794 6.99321C4.7794 7.36925 5.07197 7.65874 5.45202 7.65874H16.8866C17.6298 7.65874 18.2318 8.25439 18.2318 8.98981V16.9762C18.2318 17.7116 17.6298 18.3073 16.8866 18.3073L10.2682 18.3079C11.2655 16.5912 11.0139 14.3675 9.51326 12.9065C7.85655 11.2935 5.245 11.1627 3.43339 12.514L3.43416 6.99321C3.43416 5.89842 4.34558 4.9966 5.45202 4.9966H6.12464ZM7.2295 15.2641L5.89597 16.6017L5.37309 16.0748C5.21416 15.9158 4.95647 15.9158 4.79753 16.0748C4.63859 16.2337 4.63859 16.4914 4.79753 16.6503L5.60818 17.461C5.76802 17.6178 6.02392 17.6178 6.18375 17.461L7.80507 15.8397C7.90788 15.7369 7.94804 15.587 7.9104 15.4466C7.87277 15.3061 7.76307 15.1964 7.62262 15.1588C7.48217 15.1211 7.33231 15.1613 7.2295 15.2641ZM15.5413 11.6519C14.7981 11.6519 14.1961 12.2476 14.1961 12.983C14.1961 13.7184 14.7981 14.3141 15.5413 14.3141C16.2846 14.3141 16.8866 13.7184 16.8866 12.983C16.8866 12.2476 16.2846 11.6519 15.5413 11.6519ZM10.4967 3C11.4198 3 12.2374 3.42026 12.7931 4.06719C13.2036 3.81761 13.6825 3.66553 14.1961 3.66553C15.6741 3.66553 16.8866 4.86527 16.8866 6.32767H15.5413C15.5413 5.58449 14.9472 4.9966 14.1961 4.9966C13.902 4.9966 13.6354 5.09015 13.4158 5.24618C13.479 5.48684 13.5235 5.73496 13.5235 5.9949L13.5175 6.10721L13.4893 6.32767H12.1441C12.1663 6.21986 12.1782 6.10871 12.1782 5.9949C12.1782 5.0778 11.4242 4.33107 10.4967 4.33107C9.56914 4.33107 8.81513 5.0778 8.81513 5.9949C8.81513 6.10871 8.82709 6.21986 8.84929 6.32767H7.50404L7.4759 6.10721C7.47226 6.07018 7.46989 6.03284 7.46989 5.9949C7.46989 4.34371 8.82791 3 10.4967 3Z" fill="#0A79B8"/>
</svg>
