<svg width="22" height="22" viewBox="0 0 22 22" fill="none" xmlns="http://www.w3.org/2000/svg">
<g clip-path="url(#clip0_5167_13055)">
<path d="M13.9554 6.75542C17.329 6.75542 20.0638 9.49025 20.0638 12.8638C20.0638 16.2374 17.329 18.9723 13.9554 18.9723C10.5818 18.9723 7.84696 16.2374 7.84696 12.8638C7.84696 9.49025 10.5818 6.75542 13.9554 6.75542ZM1.93652 13.0263C3.8674 13.7895 5.28138 14.019 6.69632 14.088C6.81346 14.8945 7.06013 15.6597 7.41372 16.3612C4.41007 16.2613 1.93652 15.7037 1.93652 14.8453V13.0263ZM13.4118 10.9269C13.3504 10.9269 13.29 10.9432 13.2369 10.9741L10.5582 12.5367C10.3926 12.6333 10.3367 12.8458 10.4333 13.0114C10.4635 13.0631 10.5065 13.1061 10.5582 13.1363L13.2369 14.6989C13.4025 14.7955 13.615 14.7396 13.7116 14.574C13.7426 14.5209 13.7589 14.4606 13.7589 14.3991L13.759 13.4549L17.2046 13.4556C17.524 13.4556 17.783 13.1966 17.783 12.8772V12.7959C17.783 12.4764 17.524 12.2174 17.2046 12.2174L13.759 12.2169L13.7589 11.2739C13.7589 11.0823 13.6035 10.9269 13.4118 10.9269ZM1.93652 9.71886C3.87002 10.6319 5.36614 10.8011 6.9319 10.8303C6.7269 11.5105 6.6167 12.2319 6.61563 12.979C3.89923 12.8132 1.93652 12.1203 1.93652 11.4043V9.71886ZM1.93652 6.30447C3.03105 7.07898 6.86189 7.61915 8.46391 7.56581C8.61329 7.56084 8.78076 7.55301 8.96256 7.54224C8.28573 8.18051 7.72703 8.94636 7.32495 9.80116C4.35649 9.65 1.93652 8.93482 1.93652 8.29776V6.30447ZM13.4298 3.62091C13.5514 3.67353 13.6798 3.72396 13.8125 3.7722C14.4917 4.07259 14.8656 4.41464 14.8656 4.70845C14.8656 5.41448 11.7257 6.43536 8.40106 6.3902C5.07644 6.34503 1.99809 5.85014 1.93652 4.70845C1.99809 3.62313 4.97186 3.03109 8.40106 3.03109C9.78982 2.99878 12.1077 3.19817 13.4298 3.62091Z" fill="#0A79B8"/>
</g>
<defs>
<clipPath id="clip0_5167_13055">
<rect width="22" height="22" fill="white"/>
</clipPath>
</defs>
</svg>
