<svg width="22" height="22" viewBox="0 0 22 22" fill="none" xmlns="http://www.w3.org/2000/svg">
<path d="M15.2236 9.66983C15.0003 9.78563 14.8578 10.0306 14.8571 10.2999V12.4002H9.71429C9.35925 12.4002 9.07143 12.7136 9.07143 13.1003V14.5004C9.07143 14.8871 9.35925 15.2005 9.71429 15.2005H14.8571V17.3008C14.8575 17.5756 15.0054 17.8248 15.2353 17.9379C15.4653 18.051 15.7347 18.0072 15.9243 17.8259L19.7814 14.1644C19.9201 14.0317 19.9998 13.8404 20 13.6393C19.9953 13.4312 19.9057 13.2363 19.7557 13.1073L15.8986 9.76785C15.7092 9.59742 15.4473 9.55938 15.2236 9.66983ZM6.77643 12.3302C6.99968 12.2144 7.14216 11.9694 7.14286 11.7001V9.59982H12.2857C12.6408 9.59982 12.9286 9.28639 12.9286 8.89974V7.49956C12.9286 7.11292 12.6408 6.79948 12.2857 6.79948H7.14286V4.69921C7.14254 4.42442 6.99463 4.17525 6.76469 4.06211C6.53474 3.94897 6.26528 3.99279 6.07571 4.17415L2.21857 7.83561C2.07985 7.96832 2.00023 8.15959 2 8.36067C2.00475 8.56876 2.09428 8.76375 2.24429 8.89274L6.10143 12.2322C6.29076 12.4026 6.55271 12.4406 6.77643 12.3302Z" fill="#0A79B8"/>
</svg>
