<svg width="22" height="22" viewBox="0 0 22 22" fill="none" xmlns="http://www.w3.org/2000/svg">
<path d="M16.1818 4.95687H17.0454V5.82049C17.0454 6.04957 17.1364 6.26924 17.2984 6.4312C17.4604 6.59316 17.68 6.68416 17.9091 6.68416C18.1381 6.68416 18.3578 6.59316 18.5198 6.4312C18.6817 6.26924 18.7727 6.04957 18.7727 5.82049V4.95687H19.6363C19.8654 4.95687 20.085 4.86588 20.247 4.70393C20.409 4.54196 20.5 4.32229 20.5 4.09324C20.5 3.86419 20.409 3.64452 20.247 3.48256C20.085 3.3206 19.8654 3.22961 19.6363 3.22961H18.7727V2.36597C18.7727 2.13692 18.6817 1.91725 18.5198 1.75529C18.3578 1.59333 18.1381 1.50234 17.9091 1.50234C17.68 1.50234 17.4604 1.59333 17.2984 1.75529C17.1364 1.91725 17.0454 2.13692 17.0454 2.36597V3.22961H16.1818C15.9527 3.22961 15.7331 3.3206 15.5711 3.48256C15.4091 3.64452 15.3182 3.86419 15.3182 4.09324C15.3182 4.32229 15.4091 4.54196 15.5711 4.70393C15.7331 4.86588 15.9527 4.95687 16.1818 4.95687ZM19.2909 8.4114C19.1797 8.43407 19.0741 8.47843 18.9801 8.5419C18.8861 8.6054 18.8055 8.68678 18.743 8.78142C18.6804 8.87606 18.6371 8.98206 18.6155 9.09345C18.594 9.20484 18.5945 9.31938 18.6173 9.43051C18.9545 11.0681 18.7546 12.7708 18.0474 14.2859C17.3401 15.8009 16.1632 17.0475 14.6913 17.8406C13.2194 18.6337 11.531 18.9311 9.87667 18.6885C8.22235 18.446 6.69036 17.6765 5.50812 16.4942C4.32583 15.312 3.55631 13.78 3.31375 12.1256C3.0712 10.4714 3.36855 8.78291 4.16167 7.31103C4.95479 5.83911 6.2014 4.6622 7.71644 3.95496C9.23148 3.24772 10.9342 3.04787 12.5718 3.38506C12.8008 3.43087 13.0387 3.38382 13.2331 3.25425C13.4274 3.12468 13.5624 2.9232 13.6082 2.69416C13.654 2.4651 13.6069 2.22724 13.4774 2.03288C13.3478 1.83853 13.1463 1.7036 12.9173 1.65779C12.2852 1.54004 11.6427 1.48794 11 1.50234C9.12108 1.50234 7.28436 2.0595 5.72207 3.10337C4.15982 4.14725 2.94218 5.63092 2.22315 7.36683C1.50411 9.10274 1.31599 11.0129 1.68254 12.8557C2.0491 14.6985 2.95389 16.3912 4.28248 17.7198C5.61109 19.0484 7.3038 19.9532 9.14662 20.3198C10.9894 20.6863 12.8996 20.4982 14.6355 19.7792C16.3714 19.0601 17.855 17.8425 18.8989 16.2802C19.9428 14.718 20.5 12.8812 20.5 11.0023C20.5018 10.3642 20.4382 9.72749 20.31 9.10232C20.2893 8.9896 20.2464 8.88215 20.1837 8.78619C20.1211 8.69022 20.04 8.60769 19.9452 8.54339C19.8503 8.47909 19.7436 8.43428 19.6313 8.41165C19.5189 8.38897 19.4032 8.38889 19.2909 8.4114Z" fill="#0A79B8"/>
<path fill-rule="evenodd" clip-rule="evenodd" d="M15.2448 6.75535C12.9043 4.4149 9.0959 4.4149 6.75546 6.75535C4.41501 9.09579 4.41501 12.9042 6.75546 15.2447C9.0959 17.5851 12.9043 17.5851 15.2448 15.2447C17.5852 12.9042 17.5852 9.09579 15.2448 6.75535ZM10.7557 8.94297V7.30003H9.50568V9.59089L8.6005 10.1115V10.8867L9.50568 10.3777V11.1066L8.6005 11.6156V12.3908L9.50568 11.8818V14.7974C10.1235 14.8128 10.6856 14.7607 11.1921 14.6412C11.6986 14.5216 12.1296 14.3365 12.4852 14.0858C12.8408 13.8352 13.1156 13.5189 13.3096 13.1371C13.5035 12.7553 13.6005 12.3098 13.6005 11.8008C13.6005 11.6156 13.5754 11.4035 13.5251 11.1644L12.4906 11.4421C12.5121 11.5347 12.5247 11.6137 12.5283 11.6793C12.5319 11.7448 12.5337 11.8046 12.5337 11.8586C12.5337 12.1132 12.4816 12.3407 12.3774 12.5412C12.2733 12.7418 12.1386 12.9153 11.9733 13.0619C11.8081 13.2084 11.6177 13.3222 11.4022 13.4032C11.1867 13.4842 10.9712 13.5324 10.7557 13.5478V11.2223L12.4259 10.2735V9.49833L10.7557 10.4471V9.71816L12.4259 8.76942V7.99423L10.7557 8.94297Z" fill="#0A79B8"/>
</svg>
