<svg width="22" height="22" viewBox="0 0 22 22" fill="none" xmlns="http://www.w3.org/2000/svg">
<path d="M16.18 4.95645H17.0435V5.81997C17.0435 6.04902 17.1345 6.26866 17.2965 6.4306C17.4584 6.59254 17.6781 6.68353 17.9071 6.68353C18.1361 6.68353 18.3558 6.59254 18.5177 6.4306C18.6796 6.26866 18.7706 6.04902 18.7706 5.81997V4.95645H19.6341C19.8631 4.95645 20.0828 4.86547 20.2447 4.70354C20.4067 4.54159 20.4977 4.32195 20.4977 4.09293C20.4977 3.8639 20.4067 3.64426 20.2447 3.48232C20.0828 3.32038 19.8631 3.2294 19.6341 3.2294H18.7706V2.36587C18.7706 2.13685 18.6796 1.9172 18.5177 1.75526C18.3558 1.59332 18.1361 1.50234 17.9071 1.50234C17.6781 1.50234 17.4584 1.59332 17.2965 1.75526C17.1345 1.9172 17.0435 2.13685 17.0435 2.36587V3.2294H16.18C15.951 3.2294 15.7313 3.32038 15.5694 3.48232C15.4075 3.64426 15.3165 3.8639 15.3165 4.09293C15.3165 4.32195 15.4075 4.54159 15.5694 4.70354C15.7313 4.86547 15.951 4.95645 16.18 4.95645ZM19.2887 8.41056C19.1776 8.43323 19.072 8.47758 18.978 8.54104C18.884 8.60454 18.8034 8.68591 18.7409 8.78054C18.6783 8.87516 18.635 8.98115 18.6134 9.09253C18.5919 9.2039 18.5925 9.31843 18.6152 9.42955C18.9523 11.067 18.7525 12.7695 18.0453 14.2843C17.3382 15.7992 16.1614 17.0456 14.6897 17.8386C13.2179 18.6317 11.5297 18.929 9.87566 18.6865C8.22153 18.4439 6.68973 17.6745 5.50763 16.4924C4.32549 15.3103 3.55606 13.7785 3.31353 12.1243C3.07101 10.4703 3.36832 8.78203 4.16134 7.31033C4.95437 5.83858 6.20083 4.66182 7.71569 3.95467C9.23054 3.24751 10.933 3.04768 12.5704 3.38484C12.7995 3.43064 13.0373 3.38359 13.2317 3.25403C13.426 3.12448 13.5609 2.92303 13.6067 2.69401C13.6525 2.46499 13.6054 2.22715 13.4759 2.03282C13.3463 1.83849 13.1449 1.70358 12.9159 1.65777C12.2839 1.54003 11.6415 1.48794 10.9988 1.50234C9.12016 1.50234 7.28366 2.05944 5.72155 3.10318C4.15949 4.14692 2.942 5.63042 2.22306 7.36612C1.50411 9.10181 1.31601 11.0117 1.68252 12.8543C2.04904 14.6969 2.95371 16.3894 4.28215 17.7179C5.61059 19.0463 7.3031 19.951 9.14569 20.3175C10.9883 20.684 12.8982 20.4959 14.6339 19.7769C16.3696 19.058 17.8531 17.8405 18.8968 16.2785C19.9406 14.7163 20.4977 12.8798 20.4977 11.0011C20.4995 10.3631 20.4359 9.72649 20.3077 9.1014C20.287 8.98869 20.2441 8.88126 20.1815 8.7853C20.1188 8.68935 20.0378 8.60682 19.9429 8.54253C19.8481 8.47825 19.7414 8.43344 19.6291 8.41081C19.5168 8.38813 19.4011 8.38805 19.2887 8.41056Z" fill="#0A79B8"/>
<path d="M6.7555 6.75533C9.09594 4.41489 12.9044 4.41489 15.2448 6.75533C17.5853 9.09578 17.5853 12.9042 15.2448 15.2447C12.9044 17.5851 9.09594 17.5851 6.7555 15.2447C4.41506 12.9042 4.41506 9.09578 6.7555 6.75533ZM11.7923 14.0398H10.3027C10.1655 14.0398 10.0544 14.1649 10.0544 14.3192C10.0544 14.4735 10.1655 14.5987 10.3027 14.5987H11.7923C11.9294 14.5987 12.0406 14.4735 12.0406 14.3192C12.0406 14.1649 11.9294 14.0398 11.7923 14.0398ZM11.7076 12.922H10.3993C10.2622 12.922 10.0544 13.0971 10.0544 13.3132C10.0544 13.5293 10.2622 13.7044 10.3993 13.7044H11.7076C11.8447 13.7044 12.0406 13.5293 12.0406 13.3132C12.0406 13.0971 11.8447 12.922 11.7076 12.922ZM10.937 7.16524C10.7895 7.16855 10.6514 7.23092 10.56 7.33542L8.19377 10.0225C8.07302 10.1544 8.04607 10.3368 8.12433 10.4927C8.20638 10.6482 8.37996 10.7475 8.57078 10.748H10.059V12.0951C10.059 12.3424 10.281 12.5429 10.555 12.5429H11.5471C11.8211 12.5429 12.0432 12.3424 12.0432 12.0951V10.748H13.5314C13.7261 10.7477 13.9026 10.6447 13.9828 10.4845C14.063 10.3243 14.0319 10.1366 13.9034 10.0045L11.309 7.31751C11.215 7.22087 11.0795 7.1654 10.937 7.16524Z" fill="#0A79B8"/>
</svg>
