<svg width="22" height="22" viewBox="0 0 22 22" fill="none" xmlns="http://www.w3.org/2000/svg">
<path d="M9.8742 3.55509L15.3648 5.40264C15.7894 5.5454 16.0738 5.93849 16.0738 6.38228V10.5388C16.0738 10.9855 16.0312 11.4125 15.9529 11.82L14.0879 11.8199C12.7286 11.8199 11.5762 12.8193 11.3839 14.1649L10.8392 17.9746C10.3445 18.247 10.0036 18.3935 9.9474 18.4172C9.81668 18.4731 9.67654 18.5 9.53744 18.5C9.39835 18.5 9.25821 18.4731 9.12643 18.4183C8.87648 18.3128 3 15.7804 3 10.5388V6.38228C3 5.93953 3.28551 5.5454 3.70907 5.40264L9.19964 3.55509C9.41822 3.48164 9.65562 3.48164 9.8742 3.55509ZM18.3518 16.6861C18.7098 16.6861 19 16.9763 19 17.3343V17.3565C19 17.7145 18.7098 18.0047 18.3518 18.0047H12.3641C12.0061 18.0047 11.7159 17.7145 11.7159 17.3565V17.3343C11.7159 16.9763 12.0061 16.6861 12.3641 16.6861H18.3518ZM17.8662 14.8338C18.2242 14.8338 18.5144 15.124 18.5144 15.482V15.5042C18.5144 15.8622 18.2242 16.1524 17.8662 16.1524H12.8497C12.4917 16.1524 12.2015 15.8622 12.2015 15.5042V15.482C12.2015 15.124 12.4917 14.8338 12.8497 14.8338H17.8662ZM12.9918 8.13902C12.6524 8.04304 12.2903 8.14545 12.0418 8.40767L8.81943 11.819L7.55593 10.4752C7.17187 10.0698 6.54918 10.0698 6.16511 10.4752C5.78104 10.8805 5.78104 11.5377 6.16511 11.9431L8.12402 14.0106C8.51025 14.4104 9.12861 14.4104 9.51484 14.0106L13.4327 9.87559C13.6811 9.61337 13.7781 9.23118 13.6872 8.87298C13.5963 8.51478 13.3312 8.235 12.9918 8.13902ZM17.5032 12.9815C17.8612 12.9815 18.1514 13.2717 18.1514 13.6296V13.6519C18.1514 14.0099 17.8612 14.3001 17.5032 14.3001H13.3365C12.9785 14.3001 12.6883 14.0099 12.6883 13.6519V13.6296C12.6883 13.2717 12.9785 12.9815 13.3365 12.9815H17.5032Z" fill="#0A79B8"/>
</svg>
