<svg width="22" height="22" viewBox="0 0 22 22" fill="none" xmlns="http://www.w3.org/2000/svg">
<path d="M12.5 3H4.83333C3.82 3 3 3.82 3 4.83333V15.1667C3 16.18 3.82 17 4.83333 17H10.2667C9.70667 16.1133 9.33333 15.0667 9.33333 13.8667V12.24C9.23333 12.3 9.12 12.3333 9 12.3333H5.66667C5.3 12.3333 5 12.0333 5 11.6667C5 11.3 5.3 11 5.66667 11H9C9.12667 11 9.24 11.0333 9.34 11.0933C9.36667 10.5267 9.63333 10.0067 10.0533 9.66667H5.66667C5.3 9.66667 5 9.36667 5 9C5 8.63333 5.3 8.33333 5.66667 8.33333H11.6667C11.9467 8.33333 12.1867 8.50667 12.2867 8.75333L14.1867 8.10667C14.2333 8.08667 14.28 8.07333 14.3333 8.06667V4.83333C14.3333 3.82 13.5133 3 12.5 3ZM15.048 9.36867L18.548 10.5593C18.8187 10.6513 19 10.9047 19 11.1907V13.8693C19 17.2473 15.254 18.8787 15.0947 18.9467C15.0113 18.9827 14.922 19 14.8333 19C14.7447 19 14.6553 18.9827 14.5713 18.9473C14.412 18.8793 10.666 17.2473 10.666 13.8693V11.1907C10.666 10.9053 10.848 10.6513 11.118 10.5593L14.618 9.36867C14.7573 9.32133 14.9087 9.32133 15.048 9.36867ZM16.4298 12.4959L14.3756 14.6944L13.5702 13.8283C13.3254 13.5671 12.9284 13.5671 12.6836 13.8283C12.4388 14.0896 12.4388 14.5131 12.6836 14.7744L13.9323 16.1068C14.1785 16.3644 14.5727 16.3644 14.8189 16.1068L17.3164 13.4419C17.4747 13.273 17.5366 13.0267 17.4786 12.7958C17.4207 12.565 17.2517 12.3847 17.0353 12.3228C16.819 12.261 16.5882 12.327 16.4298 12.4959ZM8.33333 5.66667C8.7 5.66667 9 5.96667 9 6.33333C9 6.7 8.7 7 8.33333 7H5.66667C5.3 7 5 6.7 5 6.33333C5 5.96667 5.3 5.66667 5.66667 5.66667H8.33333Z" fill="#0A79B8"/>
</svg>
