<svg width="22" height="22" viewBox="0 0 22 22" fill="none" xmlns="http://www.w3.org/2000/svg">
<path fill-rule="evenodd" clip-rule="evenodd" d="M4 5.5C4 4.39543 4.89543 3.5 6 3.5H13.3237C14.4283 3.5 15.3237 4.39543 15.3237 5.5V7.64651C14.8979 7.55061 14.4548 7.5 14 7.5C12.5564 7.5 11.2319 8.0098 10.1967 8.85919H6.66221C6.30322 8.85919 6.01221 9.15021 6.01221 9.50919C6.01221 9.86818 6.30322 10.1592 6.66221 10.1592H9.01538C8.73496 10.5768 8.50563 11.0315 8.33632 11.5145H6.66221C6.30322 11.5145 6.01221 11.8055 6.01221 12.1645C6.01221 12.5234 6.30322 12.8145 6.66221 12.8145H8.03873C8.01315 13.0394 8 13.2682 8 13.5C8 15.0367 8.57771 16.4385 9.52779 17.5H6C4.89543 17.5 4 16.6046 4 15.5V5.5ZM6.00049 6.83368C6.00049 6.46784 6.2915 6.17126 6.65049 6.17126H9.33457C9.69356 6.17126 9.98457 6.46784 9.98457 6.83368C9.98457 7.19952 9.69356 7.49609 9.33457 7.49609H6.65049C6.2915 7.49609 6.00049 7.19952 6.00049 6.83368Z" fill="#0A79B8"/>
<path d="M14 8.5C16.7614 8.5 19 10.7386 19 13.5C19 16.2614 16.7614 18.5 14 18.5C11.2386 18.5 9 16.2614 9 13.5C9 10.7386 11.2386 8.5 14 8.5ZM10.8373 12.045L9.689 13.7428H10.5648C10.7116 15.4825 12.193 16.8553 13.9952 16.8553C14.8474 16.8553 15.6308 16.5487 16.2324 16.0418C16.3146 15.9774 16.3545 15.8739 16.3365 15.772C16.3185 15.67 16.2455 15.5859 16.1462 15.5525C16.0468 15.5192 15.9369 15.5419 15.8596 15.6118C15.3577 16.0347 14.7082 16.2894 13.9952 16.2894C12.5034 16.2894 11.282 15.1751 11.1384 13.7428H11.9857L10.8373 12.045ZM13.9952 10.0643C13.143 10.0643 12.3597 10.3709 11.758 10.8778C11.6759 10.9423 11.636 11.0457 11.654 11.1476C11.6719 11.2496 11.7449 11.3337 11.8442 11.3671C11.9436 11.4005 12.0535 11.3777 12.1309 11.3078C12.6327 10.8849 13.2823 10.6302 13.9952 10.6302C15.4871 10.6302 16.7084 11.7445 16.852 13.1769H16.0048L17.1531 14.8746L18.3014 13.1769H17.4256C17.2788 11.4371 15.7975 10.0643 13.9952 10.0643Z" fill="#0A79B8"/>
</svg>
