<svg width="22" height="22" viewBox="0 0 22 22" fill="none" xmlns="http://www.w3.org/2000/svg">
<path fill-rule="evenodd" clip-rule="evenodd" d="M16.9086 5.25165C17.1153 5.25165 17.3024 5.33541 17.4378 5.47084C17.5732 5.60627 17.657 5.79336 17.657 6.00001V8.72401H3.25165V6.00001C3.25165 5.79336 3.33541 5.60627 3.47084 5.47084C3.60627 5.33541 3.79336 5.25165 4.00001 5.25165H16.9086Z" stroke="#0A79B8" stroke-width="0.503268"/>
<path fill-rule="evenodd" clip-rule="evenodd" d="M15 10.6C17.2024 10.6 19 12.3975 19 14.6C19 16.8024 17.2025 18.6 15 18.6C12.7976 18.6 11 16.8025 11 14.6C11 12.3976 12.7975 10.6 15 10.6ZM14.7656 16.725H13.691C13.8815 17.2438 14.2423 17.9156 14.7656 18.0915V16.725ZM16.309 16.7234H15.2344V18.0915C15.7577 17.9156 16.1185 17.2422 16.309 16.7234ZM13.195 16.725H12.1816C12.5919 17.2679 13.1552 17.689 13.8068 17.9236C13.5324 17.5746 13.3329 17.1432 13.195 16.725ZM17.8184 16.7234H16.805C16.667 17.1417 16.4676 17.5747 16.1932 17.9236C16.8448 17.689 17.4081 17.2663 17.8184 16.7234ZM12.8787 14.8344H11.4767C11.5104 15.3454 11.6532 15.8271 11.8821 16.2563H13.0623C12.9563 15.8119 12.8937 15.3311 12.8787 14.8344ZM14.7656 14.8344H13.3476C13.3637 15.3362 13.4312 15.8182 13.5451 16.2563H14.7656V14.8344ZM16.6524 14.8328H15.2344V16.2563H16.4549C16.5688 15.8182 16.6363 15.3346 16.6524 14.8328ZM18.5233 14.8328H17.1213C17.1063 15.3296 17.0437 15.8119 16.9377 16.2563H18.1179C18.3468 15.8271 18.4896 15.3439 18.5233 14.8328ZM17.9086 8.2799L17.9086 10.4755C15.9652 9.04457 13.2077 9.20786 11.4502 10.9654C10.1081 12.3074 9.69565 14.2325 10.2127 15.933L4.30401 15.933C3.58383 15.933 3 15.3492 3 14.629V8.2799H17.9086ZM13.0623 12.9422H11.8821C11.6532 13.3714 11.5104 13.8546 11.4767 14.3656H12.8787C12.8937 13.8689 12.9563 13.3865 13.0623 12.9422ZM14.7656 12.9438H13.5451C13.4312 13.3818 13.3637 13.8638 13.3476 14.3656H14.7656V12.9438ZM18.1179 12.9438H16.9377C17.0437 13.3881 17.1063 13.8689 17.1213 14.3656H18.5233C18.4896 13.8546 18.3468 13.3729 18.1179 12.9438ZM16.4549 12.9438H15.2344V14.3656H16.6524C16.6363 13.8638 16.5688 13.3818 16.4549 12.9438ZM13.8068 11.2764C13.1552 11.511 12.5919 11.9321 12.1816 12.475H13.195C13.333 12.0567 13.5324 11.6253 13.8068 11.2764ZM14.7656 11.1085C14.2423 11.2844 13.8815 11.9563 13.691 12.475H14.7656V11.1085ZM16.1932 11.2764C16.4676 11.6254 16.6671 12.0568 16.805 12.475H17.8184C17.4081 11.9321 16.8448 11.511 16.1932 11.2764ZM15.2344 11.1085V12.475H16.309C16.1185 11.9563 15.7577 11.2844 15.2344 11.1085ZM9.3075 9.3732H4.72023V9.91985H9.3075V9.3732ZM16.6046 5C17.3248 5 17.9086 5.58383 17.9086 6.30401V6.63995H3V6.30401C3 5.58383 3.58383 5 4.30401 5H16.6046Z" fill="#0A79B8"/>
</svg>
