<svg width="22" height="22" viewBox="0 0 22 22" fill="none" xmlns="http://www.w3.org/2000/svg">
<path d="M15.5038 12.9307C17.3726 13.4531 18 14.141 18 14.3375C18 14.4371 17.7046 14.9521 16.3396 15.4712C14.9508 15.9992 13.0046 16.3021 11 16.3021C8.99544 16.3021 7.04926 15.9992 5.66045 15.4712C4.29549 14.9521 4 14.4371 4 14.3375C4 14.141 4.62749 13.4531 6.4963 12.9307C7.79449 13.9216 9.37258 14.4613 10.9999 14.4613C12.6273 14.4613 14.2057 13.9215 15.5038 12.9307ZM11.0001 2C13.9524 2 16.3544 4.45171 16.3544 7.46537C16.3544 10.479 13.9524 12.9307 11.0001 12.9307C8.04769 12.9307 5.64579 10.479 5.64579 7.46537C5.64579 4.45171 8.04769 2 11.0001 2ZM10.8724 4.17193H9.63471V6.16216L8.73846 6.61448V7.28794L9.63471 6.84567V7.47893L8.73846 7.9212V8.59466L9.63471 8.15239V10.6854C10.2464 10.6988 10.803 10.6536 11.3045 10.5497C11.806 10.4458 12.2327 10.285 12.5848 10.0672C12.9369 9.84944 13.209 9.5747 13.4011 9.24299C13.5931 8.91129 13.6891 8.5243 13.6891 8.08203C13.6891 7.9212 13.6642 7.73692 13.6145 7.52918L12.5902 7.77042C12.6115 7.85084 12.624 7.91952 12.6275 7.97648C12.6311 8.03344 12.6329 8.08538 12.6329 8.13228C12.6329 8.35342 12.5813 8.5511 12.4781 8.72533C12.375 8.89956 12.2416 9.05034 12.078 9.17766C11.9144 9.30498 11.7259 9.40382 11.5125 9.47418C11.2992 9.54454 11.0858 9.58643 10.8724 9.59983V7.57944L12.5262 6.75521V6.08174L10.8724 6.90598V6.27273L12.5262 5.44849V4.77503L10.8724 5.59926V4.17193ZM4.00007 16.3021V18.0353C4.00007 18.135 4.29556 18.65 5.66045 19.1691C7.04926 19.6971 8.99544 20 11 20C13.0046 20 14.9508 19.6971 16.3396 19.1691C17.7046 18.65 18 18.135 18 18.0353V16.3021C17.7323 16.4391 17.4337 16.5718 17.1003 16.6985C15.4537 17.3246 13.2873 17.6694 11 17.6694C8.71277 17.6694 6.54634 17.3246 4.89984 16.6987C4.56649 16.5718 4.26772 16.4391 4.00007 16.3021Z" fill="#0A79B8"/>
</svg>
