<svg width="22" height="22" viewBox="0 0 22 22" fill="none" xmlns="http://www.w3.org/2000/svg">
<path d="M17.7064 11.3922C18.2336 10.8602 19.0822 10.8602 19.6094 11.3922C20.1302 11.9308 20.1302 12.8043 19.6094 13.3363L18.2747 14.6998L15.064 17.9798C14.9933 18.052 14.9033 18.098 14.8069 18.1111L13.3346 18.3673C13.0067 18.4264 12.7302 18.1374 12.7817 17.8024L13.0324 16.2984C13.0453 16.1999 13.0967 16.1079 13.1674 16.0357L16.3717 12.7564L17.7064 11.3922ZM17.2499 6C18.105 6 18.7994 6.70933 18.8 7.58285V9.82446C18.7524 9.82184 18.7068 9.81067 18.6586 9.81067C17.9931 9.81067 17.3669 10.074 16.8886 10.5561L16.3717 11.0842L15.7282 11.7416L15.5533 11.9203L12.3529 15.1963C12.0976 15.4551 11.9317 15.79 11.8919 16.0994L11.8411 16.4035H3.55585C2.69435 16.4035 2 15.6942 2 14.8206V7.58285C2 6.70933 2.69435 6 3.55585 6H17.2499ZM6.60891 8.38316L4.71906 9.07599C4.57327 9.12952 4.475 9.27732 4.475 9.44335V11.002C4.475 12.9676 6.49768 13.9173 6.58371 13.9569C6.62907 13.9774 6.6773 13.9875 6.72518 13.9875C6.77306 13.9875 6.82129 13.9774 6.86629 13.9565C6.95232 13.9169 8.975 12.9676 8.975 11.002V9.44335C8.975 9.27694 8.87709 9.12952 8.73094 9.07599L6.84109 8.38316C6.76586 8.35561 6.68414 8.35561 6.60891 8.38316ZM12.4409 11.8053H10.9494C10.6298 11.8053 10.3707 12.07 10.3707 12.3964C10.3707 12.7229 10.6298 12.9875 10.9494 12.9875H12.4409C12.7605 12.9875 13.0196 12.7229 13.0196 12.3964C13.0196 12.07 12.7605 11.8053 12.4409 11.8053ZM14.785 9.41726H10.9507C10.6311 9.41726 10.372 9.68194 10.372 10.0084C10.372 10.3348 10.6311 10.5995 10.9507 10.5995H14.785C15.1045 10.5995 15.3636 10.3348 15.3636 10.0084C15.3636 9.68194 15.1045 9.41726 14.785 9.41726Z" fill="#0A79B8"/>
</svg>
