<svg width="22" height="22" viewBox="0 0 22 22" fill="none" xmlns="http://www.w3.org/2000/svg">
<path d="M16.1875 3C15.3798 3 14.725 3.67156 14.725 4.49997L14.7251 11.6276C16.9357 11.9866 18.625 13.9347 18.625 16.2842C18.625 18.8887 16.5492 21 13.9885 21C12.2729 21 10.775 20.0523 9.97307 18.6436L9.6729 18.8903C9.4948 19.0366 9.24162 19.0366 9.06353 18.8903L8.14851 18.1403L7.23445 18.8903C7.05653 19.036 6.80395 19.036 6.62603 18.8903L5.70911 18.1403L4.79124 18.8903C4.64487 19.0099 4.44468 19.033 4.27606 18.9497C4.10745 18.8665 4.00017 18.6916 4 18.4997V4.49997C4 3.67156 4.65478 3 5.4625 3H16.1875ZM13.9885 12.6C11.9879 12.6 10.3662 14.2495 10.3662 16.2842C10.3662 18.3189 11.9879 19.9684 13.9885 19.9684C15.989 19.9684 17.6108 18.3189 17.6108 16.2842C17.6108 14.2495 15.989 12.6 13.9885 12.6ZM15.6408 14.25L16.5464 15.0168L14.1318 18.0167L13.7687 18.4678L13.3185 18.1087L11.5375 16.6881L12.2585 15.7373L13.5886 16.7984L15.6408 14.25ZM9.57184 12.0001H6.22252C6.06889 12.0058 5.94691 12.2342 5.95006 12.5103C5.95321 12.7863 6.0803 13.0056 6.23392 12.9999H9.57184C9.72546 12.9999 9.85 12.7761 9.85 12.5C9.85 12.2239 9.72546 12.0001 9.57184 12.0001ZM6.43688 10L6.4269 10.0001C6.15806 10.0058 5.94459 10.2342 5.9501 10.5103C5.95562 10.7863 6.17803 11.0056 6.44687 10.9999H12.2882C12.5571 10.9999 12.775 10.7761 12.775 10.5C12.775 10.2239 12.5571 10.0001 12.2882 10.0001H6.44687L6.43688 10ZM16.1875 3.99998C16.4567 3.99998 16.675 4.18886 16.675 4.42185V10.3281C16.675 10.5611 16.4567 10.75 16.1875 10.75H15.7V4.42185C15.7 4.18886 15.9183 3.99998 16.1875 3.99998ZM6.43688 8L6.4269 8.0001C6.15806 8.00577 5.94459 8.23417 5.9501 8.51025C5.95562 8.78633 6.17803 9.00556 6.44687 8.99989H12.2882C12.5571 8.99989 12.775 8.77608 12.775 8.5C12.775 8.22392 12.5571 8.0001 12.2882 8.0001H6.44687L6.43688 8ZM12.3963 6.0001H6.32104C6.11188 6.00577 5.94579 6.23417 5.95008 6.51025C5.95437 6.78633 6.12741 7.00555 6.33658 6.99989H12.3963C12.6054 6.99989 12.775 6.77608 12.775 6.5C12.775 6.22392 12.6054 6.0001 12.3963 6.0001Z" fill="#0A79B8"/>
</svg>
