<svg width="22" height="22" viewBox="0 0 22 22" fill="none" xmlns="http://www.w3.org/2000/svg">
<path fill-rule="evenodd" clip-rule="evenodd" d="M17.5 5C18.6046 5 19.5 5.89543 19.5 7V15.75C19.5 16.8546 18.6046 17.75 17.5 17.75H4.5C3.39543 17.75 2.5 16.8546 2.5 15.75V7C2.5 5.89543 3.39543 5 4.5 5H17.5ZM7.15366 11.0517C6.85118 11.0539 6.59835 11.1329 6.39519 11.2932C6.19202 11.4535 6.08593 11.6815 6.07915 11.9794C6.07915 12.2119 6.14688 12.4061 6.28232 12.5663C6.41776 12.7266 6.61641 12.8892 6.87826 13.0539C7.09497 13.1916 7.25073 13.3203 7.3478 13.44C7.44486 13.5596 7.49001 13.6973 7.49001 13.853C7.48775 14.0178 7.44035 14.1465 7.3478 14.2391C7.25525 14.3294 7.13335 14.3768 6.9821 14.3768C6.88278 14.3768 6.78797 14.3677 6.70219 14.3452C6.61641 14.3248 6.5374 14.2887 6.46742 14.2413C6.37261 14.1781 6.29135 14.0923 6.22588 13.9862C6.15816 13.8847 6.09947 13.7379 6.04981 13.5528C6.03852 13.546 6.02272 13.5438 6.00015 13.5506C5.97757 13.5573 5.96177 13.5641 5.95274 13.5754L5.98209 13.8305C5.99563 13.9411 6.01143 14.0472 6.02949 14.1488C6.04755 14.2503 6.06561 14.3181 6.08367 14.3519C6.13785 14.3858 6.23491 14.4197 6.37487 14.4535C6.51483 14.4874 6.66833 14.5054 6.83312 14.5077C7.21461 14.5032 7.50807 14.4084 7.71575 14.2278C7.92343 14.0472 8.02952 13.8079 8.03178 13.5144C8.02952 13.3316 7.97986 13.1713 7.88279 13.0381C7.78573 12.905 7.65254 12.7831 7.48324 12.6724C7.38166 12.607 7.28459 12.546 7.1943 12.4919C7.10174 12.4354 7.00468 12.3677 6.90084 12.2909C6.79248 12.2119 6.70896 12.1239 6.65253 12.0291C6.59609 11.9343 6.56675 11.8259 6.56675 11.7018C6.569 11.5505 6.61641 11.4241 6.70896 11.3248C6.80151 11.2255 6.93244 11.1758 7.10174 11.1713C7.18527 11.1713 7.25976 11.1781 7.32522 11.1961C7.39295 11.2119 7.45615 11.2435 7.5171 11.2842C7.58934 11.327 7.64351 11.3948 7.67737 11.4851C7.71349 11.5754 7.73832 11.704 7.75412 11.8733C7.7609 11.8778 7.7767 11.8801 7.79927 11.8778C7.82185 11.8756 7.83765 11.8711 7.84442 11.862C7.85571 11.7085 7.86925 11.5731 7.88731 11.4557C7.90311 11.3383 7.92117 11.2322 7.93697 11.1329C7.83765 11.1239 7.72478 11.1103 7.60288 11.0878C7.47872 11.0652 7.32974 11.0539 7.15366 11.0517ZM10.4743 11.0494C10.244 11.0494 10.0454 11.0675 9.88057 11.0991C9.71578 11.1329 9.56228 11.1803 9.42006 11.2413C9.12661 11.3722 8.89635 11.5663 8.73157 11.8282C8.56678 12.09 8.48326 12.397 8.481 12.7537C8.48551 13.3564 8.64804 13.7989 8.96859 14.081C9.28914 14.3632 9.74513 14.5054 10.3388 14.5009C10.5826 14.4964 10.8151 14.4693 11.0386 14.4219C11.2621 14.3745 11.4269 14.3316 11.5307 14.2978C11.5352 14.2932 11.5397 14.2797 11.542 14.2594C11.5488 14.2436 11.5488 14.23 11.5465 14.2233C11.5081 14.2075 11.481 14.1894 11.4652 14.1736C11.4517 14.1578 11.4427 14.1307 11.4382 14.0923C11.4314 14.0314 11.4269 13.9524 11.4269 13.8553C11.4269 13.7582 11.4291 13.6567 11.4314 13.5528C11.4291 13.4016 11.4404 13.3045 11.4585 13.2594C11.4788 13.2142 11.5149 13.1871 11.5713 13.1758C11.5917 13.1668 11.6142 13.16 11.6345 13.1555C11.6549 13.1487 11.6797 13.1442 11.7068 13.1397C11.7158 13.1329 11.7181 13.1171 11.7203 13.0946C11.7203 13.072 11.7181 13.0562 11.7136 13.0494C11.6639 13.0517 11.5962 13.0562 11.5104 13.0585C11.4269 13.063 11.305 13.063 11.147 13.0652C10.998 13.0652 10.8558 13.0607 10.7158 13.0562C10.5781 13.0517 10.4607 13.0494 10.3704 13.0494C10.3614 13.0562 10.3591 13.072 10.3591 13.0946C10.3591 13.1171 10.3636 13.1352 10.3704 13.1442C10.4201 13.1465 10.4652 13.151 10.5059 13.1533C10.5465 13.1555 10.5894 13.1646 10.6345 13.1758C10.7135 13.1871 10.7655 13.212 10.7948 13.2548C10.8219 13.2977 10.84 13.3722 10.8445 13.4828C10.8512 13.5799 10.8535 13.6928 10.8512 13.8214C10.849 13.9524 10.8422 14.0585 10.8332 14.1397C10.8287 14.1939 10.8151 14.2368 10.7948 14.2684C10.7745 14.3 10.7451 14.3248 10.709 14.3406C10.6842 14.3519 10.6458 14.361 10.5939 14.3677C10.5442 14.3745 10.4878 14.379 10.4269 14.379C10.0363 14.3722 9.72932 14.2187 9.50585 13.9163C9.28237 13.6138 9.16724 13.2052 9.16272 12.6882C9.17175 12.1578 9.28237 11.774 9.49907 11.537C9.71578 11.3 9.98667 11.1826 10.314 11.1871C10.4743 11.1871 10.6187 11.2029 10.7429 11.2345C10.867 11.2661 10.9754 11.318 11.0702 11.388C11.1402 11.4331 11.1921 11.5031 11.226 11.5979C11.2621 11.6927 11.2869 11.8282 11.3005 12.002C11.3117 12.011 11.3321 12.0133 11.3591 12.011C11.3862 12.0088 11.4043 12.002 11.4133 11.9907C11.4133 11.8508 11.4246 11.7018 11.4427 11.5415C11.4607 11.3812 11.481 11.2571 11.5059 11.169C11.384 11.1555 11.235 11.1329 11.0589 11.1013C10.8828 11.072 10.6887 11.0539 10.4743 11.0494ZM15.0432 11.1329L14.4066 11.1487C14.3163 11.1487 14.2328 11.1465 14.156 11.1419C14.0793 11.1374 13.9777 11.1352 13.8558 11.1329C13.8513 11.1397 13.8468 11.1555 13.8468 11.1781C13.8468 11.2006 13.849 11.2187 13.8535 11.2255C13.9213 11.2322 13.98 11.2413 14.0228 11.2503C14.068 11.2593 14.1086 11.2706 14.1447 11.2842C14.1809 11.2954 14.208 11.309 14.2215 11.3271C14.235 11.3451 14.2418 11.3632 14.2418 11.3812C14.2418 11.4286 14.2215 11.4851 14.1831 11.5483C14.1447 11.6115 14.0973 11.686 14.0364 11.7695C13.8513 12.011 13.6684 12.2232 13.4879 12.4038C13.3073 12.5844 13.1538 12.7108 13.0273 12.7785C13.0228 12.7808 13.0183 12.7898 13.0161 12.8034C13.0138 12.8192 13.0115 12.8282 13.0115 12.8327C13.0251 12.8417 13.0386 12.8508 13.0522 12.8643C13.0657 12.8779 13.077 12.8914 13.0883 12.9072C13.1763 13.0336 13.2824 13.1758 13.3998 13.3339C13.5195 13.4919 13.6391 13.6454 13.7587 13.7944C13.8784 13.9433 13.9822 14.0652 14.0703 14.1601C14.1109 14.2029 14.1583 14.2458 14.2102 14.2865C14.2621 14.3294 14.3208 14.3632 14.384 14.3858C14.4337 14.4016 14.5195 14.4151 14.6391 14.4242C14.7587 14.4332 14.8874 14.4377 15.0206 14.4377C15.1538 14.4377 15.2667 14.4332 15.3547 14.4219C15.3637 14.4151 15.3682 14.3993 15.3705 14.3768C15.3728 14.3542 15.3705 14.3384 15.366 14.3316C15.3095 14.3294 15.2599 14.3248 15.2147 14.3203C15.1696 14.3136 15.1244 14.3023 15.0793 14.2842C15.0432 14.2707 15.0048 14.2549 14.9709 14.2323C14.9348 14.2097 14.8987 14.1804 14.8581 14.1443C14.7429 14.0336 14.5962 13.8779 14.4179 13.6725C14.2396 13.467 14.068 13.2616 13.9032 13.0517C13.7384 12.8417 13.621 12.6747 13.5533 12.5505V12.5347C13.6617 12.4174 13.7926 12.2706 13.9461 12.0991C14.0996 11.9253 14.2486 11.756 14.3953 11.5844C14.5217 11.4377 14.6278 11.3451 14.7159 11.3067C14.8039 11.2684 14.9123 11.239 15.0432 11.2232C15.0477 11.2142 15.0522 11.1961 15.0522 11.1758C15.0522 11.1532 15.05 11.1397 15.0432 11.1329ZM13.3389 11.1374C13.2689 11.1374 13.1763 11.1397 13.0612 11.1442C12.9461 11.1487 12.8242 11.151 12.6978 11.151C12.5307 11.151 12.3885 11.1487 12.2711 11.1442C12.1537 11.1397 12.0634 11.1374 12.0025 11.1374C11.9935 11.1442 11.9912 11.16 11.9912 11.1803C11.9912 11.2029 11.9957 11.2187 12.0025 11.2277C12.0386 11.23 12.0793 11.2368 12.1244 11.2435C12.1673 11.2503 12.2079 11.2593 12.2418 11.2706C12.296 11.2864 12.3343 11.318 12.3524 11.3677C12.3705 11.4173 12.384 11.4783 12.3863 11.5573C12.3874 11.6171 12.3879 11.6888 12.3882 11.7715L12.3888 12.3669L12.3908 12.6837C12.393 12.8372 12.393 12.9975 12.393 13.1623C12.393 13.3271 12.393 13.4806 12.3908 13.6228C12.3885 13.765 12.3885 13.8801 12.3863 13.9682C12.3817 14.072 12.3682 14.1533 12.3434 14.2075C12.3185 14.2616 12.2756 14.2955 12.2124 14.309C12.1786 14.3158 12.147 14.3226 12.1131 14.3271C12.0793 14.3316 12.0341 14.3384 11.9732 14.3452C11.9686 14.3519 11.9641 14.3677 11.9641 14.388C11.9641 14.4084 11.9664 14.4242 11.9732 14.4309C12.0206 14.4309 12.1154 14.4287 12.2598 14.4219C12.4043 14.4151 12.5443 14.4129 12.6797 14.4084C12.8152 14.4084 12.9438 14.4106 13.068 14.4174C13.1921 14.4219 13.2937 14.4264 13.375 14.4309C13.384 14.4242 13.3885 14.4084 13.393 14.388C13.3976 14.3655 13.3953 14.3497 13.3908 14.3406C13.3524 14.3361 13.3118 14.3316 13.2689 14.3248C13.226 14.3203 13.1876 14.3113 13.1515 14.3023C13.0883 14.291 13.0431 14.2616 13.0183 14.2187C12.9935 14.1736 12.9799 14.1014 12.9777 13.9998C12.9732 13.8192 12.9687 13.616 12.9687 13.3971C12.9754 13.1781 12.9732 12.9569 12.9732 12.7379C12.9754 12.6408 12.9754 12.5189 12.9777 12.3722C12.9777 12.2255 12.9799 12.0788 12.9799 11.9343C12.9799 11.7898 12.9822 11.6724 12.9845 11.5821C12.9845 11.4896 12.9935 11.4196 13.0115 11.3654C13.0296 11.3135 13.0657 11.2796 13.1244 11.2638C13.1515 11.2548 13.1854 11.248 13.2215 11.2435C13.2599 11.2368 13.2982 11.2322 13.3389 11.2277C13.3434 11.2187 13.3479 11.2006 13.3479 11.1803C13.3479 11.1577 13.3456 11.1442 13.3389 11.1374ZM18.9688 9.01324C18.9642 9.01099 14.2192 8.10352 11.2079 8.19382C8.19657 8.28411 6.3681 8.8462 5.14912 9.82815C3.93014 10.8101 4.01366 12.1352 4.20554 12.6476C4.37032 13.0878 4.44707 13.1984 4.6525 13.4693C4.8692 13.7582 5.07291 13.9186 5.14572 13.9712L5.172 13.989C5.09536 13.8843 3.37997 11.5014 6.43073 10.3099L6.64124 10.2322C10.0499 9.04485 16.1041 10.2774 16.1041 10.2774L18.9688 9.01324Z" fill="#0A79B8"/>
</svg>
