<svg width="22" height="22" viewBox="0 0 22 22" fill="none" xmlns="http://www.w3.org/2000/svg">
<path d="M11.4688 3.96125V3.46875C11.4688 3.20966 11.2591 3 11 3C10.7409 3 10.5312 3.20966 10.5312 3.46875V3.96125C6.35575 4.20597 3 7.70166 3 11.9375C3 12.1439 3.13503 12.3262 3.33278 12.3861C3.52963 12.4456 3.74431 12.3692 3.85875 12.1975C4.19566 11.6926 4.768 11.4028 5.375 11.4028C5.982 11.4028 6.52306 11.6926 6.86 12.1975C7.03394 12.4584 7.46609 12.4584 7.64003 12.1975C7.97694 11.6926 8.51803 11.4028 9.12503 11.4028C9.69066 11.4028 10.192 11.6627 10.5313 12.1055V17.125C10.5313 17.6418 10.1106 18.0625 9.59378 18.0625C9.07697 18.0625 8.65628 17.6418 8.65628 17.125V16.6562C8.65628 16.3972 8.44663 16.1875 8.18753 16.1875C7.92844 16.1875 7.71878 16.3972 7.71878 16.6562V17.125C7.71878 18.1591 8.55969 19 9.59378 19C10.6279 19 11.4688 18.1591 11.4688 17.125V12.1056C11.8081 11.6627 12.3094 11.4028 12.875 11.4028C13.482 11.4028 14.0231 11.6926 14.36 12.1975C14.534 12.4585 14.9661 12.4585 15.1401 12.1975C15.477 11.6926 16.0493 11.4028 16.6563 11.4028C17.2633 11.4028 17.8044 11.6926 18.1413 12.1975C18.2587 12.373 18.4747 12.4451 18.6673 12.3861C18.865 12.3262 19 12.1439 19 11.9375C19 7.70166 15.6442 4.20597 11.4688 3.96125Z" fill="#0A79B8" stroke="#0A79B8" stroke-width="0.51"/>
</svg>
