<svg width="22" height="22" viewBox="0 0 22 22" fill="none" xmlns="http://www.w3.org/2000/svg">
<path d="M20 11C20 15.9706 15.9706 20 11 20C6.02944 20 2 15.9706 2 11C2 10.645 2.28782 10.3572 2.64286 10.3572C2.9979 10.3572 3.28571 10.645 3.28571 11C3.28042 14.5422 5.68458 17.6342 9.11879 18.502C12.553 19.3698 16.1374 17.791 17.8155 14.6716C19.4935 11.5521 18.8353 7.69113 16.2184 5.30389C13.6015 2.91666 9.69649 2.61477 6.74382 4.57145H7.14286C7.4979 4.57145 7.78571 4.85927 7.78571 5.21431C7.78571 5.56935 7.4979 5.85716 7.14286 5.85716H5.21429C5.04376 5.85726 4.88019 5.78956 4.75961 5.66898C4.63903 5.5484 4.57133 5.38483 4.57143 5.21431V3.28574C4.57143 2.9307 4.85925 2.64288 5.21429 2.64288C5.56933 2.64288 5.85714 2.9307 5.85714 3.28574V3.61612C8.60725 1.69933 12.1949 1.47024 15.1665 3.02168C18.138 4.57312 20.0008 7.64783 20 11ZM16.7857 11C16.7857 14.1954 14.1954 16.7857 11 16.7857C7.80464 16.7857 5.21429 14.1954 5.21429 11C5.21429 7.80466 7.80464 5.21431 11 5.21431C14.1939 5.21779 16.7822 7.8061 16.7857 11ZM13.2852 11.7509L11.6429 10.656V7.78573C11.6429 7.43069 11.355 7.14288 11 7.14288C10.645 7.14288 10.3571 7.43069 10.3571 7.78573V11C10.3572 11.2149 10.4646 11.4156 10.6434 11.5349L12.572 12.8206C12.8673 13.0133 13.2626 12.9322 13.4582 12.6389C13.6538 12.3455 13.5766 11.9493 13.2852 11.7509Z" fill="#0A79B8"/>
</svg>
