<svg width="22" height="22" viewBox="0 0 22 22" fill="none" xmlns="http://www.w3.org/2000/svg">
<path fill-rule="evenodd" clip-rule="evenodd" d="M14.5 8.0256C17.5376 8.0256 20 10.4335 20 13.4038C20 16.3741 17.5376 18.782 14.5 18.782C13.0152 18.782 11.6678 18.2067 10.6783 17.2716L7.8235 17.2605V18.4212C7.82333 18.573 7.7448 18.7108 7.62271 18.7733C7.50062 18.8358 7.35754 18.8116 7.25689 18.7114L5.2089 16.6879C5.13525 16.6146 5.09297 16.5089 5.09285 16.3978C5.09537 16.2828 5.14291 16.175 5.22256 16.1037L7.27054 14.2583C7.37107 14.1641 7.51016 14.143 7.62894 14.2041C7.74748 14.2681 7.82313 14.4035 7.8235 14.5523V15.713L9.53513 15.7207C9.19208 15.0191 9 14.2334 9 13.4038C9 10.4335 11.4624 8.0256 14.5 8.0256ZM15.0156 9.79759H13.9844V10.8684C13.1303 10.8684 12.4375 11.5876 12.4375 12.4748C12.4375 13.3617 13.1303 14.0812 13.9844 14.0812H15.0156C15.3007 14.0812 15.5312 14.3207 15.5312 14.6168C15.5303 14.9127 15.2996 15.1522 15.0146 15.1522H13.9844C13.6994 15.1522 13.4688 14.9127 13.4688 14.6168H12.4375C12.4375 15.0563 12.6076 15.4547 12.8832 15.7448C12.9781 15.769 13.0574 15.8395 13.103 15.9339C13.3516 16.1169 13.6561 16.2232 13.9844 16.2232V17.294H15.0156V16.2232C15.8695 16.2221 16.562 15.5037 16.562 14.6168L16.5562 14.4706C16.485 13.6522 15.8222 13.0104 15.0156 13.0104H13.9844C13.6994 13.0104 13.4688 12.7709 13.4688 12.4748C13.4688 12.1789 13.6994 11.9394 13.9844 11.9394H15.0156C15.3007 11.9394 15.5312 12.1789 15.5312 12.4748H16.5625C16.5625 11.5879 15.8697 10.8684 15.0156 10.8684V9.79759ZM14.8454 3.09624L16.8934 5.11968C16.9671 5.19302 17.0094 5.29872 17.0095 5.40984C17.007 5.52484 16.9594 5.6326 16.8798 5.70388L14.8318 7.54935C14.7313 7.64353 14.5922 7.66455 14.4734 7.60351C14.3549 7.53952 14.2792 7.40413 14.2788 7.25531V6.09464L11.724 6.11324C11.8913 6.50697 12.0101 6.92624 12.0731 7.36358C10.686 7.8447 9.52861 8.81518 8.80639 10.0681L8.54539 9.46872L8.15938 9.63747C7.94685 9.73161 7.71682 9.77978 7.48438 9.7788C6.97234 9.77848 6.48815 9.54569 6.16813 9.14599H7.48438V8.30224H5.81164C5.79196 8.1623 5.79196 8.0203 5.81164 7.88036H7.48438V7.03661H6.16813C6.48815 6.63691 6.97234 6.40412 7.48438 6.4038C7.71469 6.40371 7.94247 6.45185 8.15305 6.54513L8.53906 6.71388L8.88289 5.93974L8.49687 5.77099C7.23308 5.22165 5.76205 5.78419 5.18727 7.03661H4.53125V7.88036H4.96367C4.95312 7.94997 4.95312 8.01958 4.95312 8.0913C4.95312 8.16302 4.96367 8.23263 4.96367 8.30224H4.53125V9.14599H5.18727C5.76205 10.3984 7.23308 10.961 8.49687 10.4116L8.6587 10.3402C8.24108 11.1589 8.00403 12.085 8.00005 13.0662C7.69696 13.124 7.38321 13.1538 7.0625 13.1538C4.26656 13.1538 2 10.8872 2 8.0913C2 5.29536 4.26656 3.0288 7.0625 3.0288C8.49129 3.0288 9.78184 3.6207 10.7023 4.57268L14.2788 4.54708V3.38641C14.279 3.23455 14.3575 3.09685 14.4796 3.03432C14.6017 2.9718 14.7448 2.99601 14.8454 3.09624Z" fill="#0A79B8"/>
</svg>
