<svg width="22" height="22" viewBox="0 0 22 22" fill="none" xmlns="http://www.w3.org/2000/svg">
<path d="M16.5 10.2C18.7091 10.2 20.5 11.9909 20.5 14.2C20.5 16.4091 18.7091 18.2 16.5 18.2C14.2909 18.2 12.5 16.4091 12.5 14.2C12.5 11.9909 14.2909 10.2 16.5 10.2ZM17.772 12.3818L16.5 13.6538L15.228 12.3818L14.6818 12.928L15.9538 14.2L14.6818 15.472L15.228 16.0182L16.5 14.7462L17.772 16.0182L18.3182 15.472L17.0462 14.2L18.3182 12.928L17.772 12.3818ZM16.5 6C17.6046 6 18.5 6.89543 18.5 8L18.5005 9.53445C18.0826 9.35177 17.6348 9.22459 17.1666 9.16222L17.1666 8.26662C17.1666 7.71434 16.7189 7.26662 16.1666 7.26662H15.1666C15.1666 8.18063 15.8466 8.94434 16.752 9.12582C16.6692 9.12028 16.5848 9.11817 16.5 9.11817C14.7942 9.11817 13.288 9.97234 12.3856 11.2763C12.46 11.0126 12.5 10.7289 12.5 10.4336C12.5 9.0345 11.6042 7.90012 10.5 7.90012C9.3958 7.90012 8.5 9.03469 8.5 10.4337C8.5 11.8315 9.3958 12.9672 10.5 12.9672C11.0123 12.9672 11.4798 12.7227 11.8337 12.321C11.6179 12.8783 11.5 13.4845 11.5 14.1182C11.5 14.373 11.5191 14.6234 11.5559 14.8681L4.5 14.8673C3.39543 14.8673 2.5 13.9719 2.5 12.8673V8C2.5 6.89543 3.39543 6 4.5 6H16.5ZM3.8334 11.7002V12.6003C3.8334 13.1526 4.28112 13.6003 4.8334 13.6003H5.8334C5.8334 12.5514 4.9376 11.7002 3.8334 11.7002ZM5.8334 7.26662H4.8334C4.28112 7.26662 3.8334 7.71434 3.8334 8.26662V9.16674C4.9376 9.16674 5.8334 8.31568 5.8334 7.26662Z" fill="#0A79B8"/>
</svg>
