<svg width="22" height="22" viewBox="0 0 22 22" fill="none" xmlns="http://www.w3.org/2000/svg">
<path d="M19.3385 13.8362C19.338 15.5836 17.8691 17 16.0575 17C15.1532 17 14.3346 16.6467 13.7409 16.0762L16.0634 13.8362H19.3385ZM15.7811 10.2927L15.7815 13.4586L13.4644 15.6985C12.8684 15.1258 12.5 14.333 12.5 13.4574C12.5 11.7095 13.9688 10.2927 15.7811 10.2927ZM16.5 6C17.6046 6 18.5 6.89543 18.5 8L18.5005 9.87629C17.7854 9.39744 16.9253 9.11817 16 9.11817C14.5722 9.11817 13.2996 9.78318 12.4752 10.8204C12.4921 10.6944 12.5 10.5651 12.5 10.4336C12.5 9.0345 11.6042 7.90012 10.5 7.90012C9.3958 7.90012 8.5 9.03469 8.5 10.4337C8.5 11.8315 9.3958 12.9672 10.5 12.9672C10.9221 12.9672 11.3138 12.8012 11.6366 12.5181C11.5471 12.8693 11.5 13.2383 11.5 13.6182C11.5 14.0516 11.5613 14.4707 11.6756 14.8673L4.5 14.8673C3.39543 14.8673 2.5 13.9719 2.5 12.8673V8C2.5 6.89543 3.39543 6 4.5 6H16.5ZM3.8334 11.7002V12.6003C3.8334 13.1526 4.28112 13.6003 4.8334 13.6003H5.8334C5.8334 12.5514 4.9376 11.7002 3.8334 11.7002ZM16.2195 10.2927C18.0309 10.2934 19.5 11.71 19.5 13.4574L16.2195 13.4584V10.2927ZM5.8334 7.26662H4.8334C4.28112 7.26662 3.8334 7.71434 3.8334 8.26662V9.16674C4.9376 9.16674 5.8334 8.31568 5.8334 7.26662ZM16.1666 7.26662H15.1666C15.1666 8.31568 16.0624 9.16674 17.1666 9.16674V8.26662C17.1666 7.71434 16.7189 7.26662 16.1666 7.26662Z" fill="#0A79B8"/>
</svg>
