<svg width="22" height="22" viewBox="0 0 22 22" fill="none" xmlns="http://www.w3.org/2000/svg">
<path d="M3.00602 8.23658C2.95604 7.29087 3.21857 6.35673 3.74983 5.57349L3.88821 5.3809L3.89965 5.37035L3.99572 5.26292L4.09637 5.15323L4.10781 5.14192C4.29995 4.95421 4.51269 4.78911 4.74219 4.64813L4.80701 4.60903L4.87182 4.57275L5.02431 4.48907C5.08607 4.46117 5.15317 4.428 5.21493 4.40011C5.25992 4.38352 5.30491 4.36166 5.34989 4.34508C5.43453 4.31115 5.5245 4.27798 5.61448 4.25009C5.64498 4.23576 5.677 4.22445 5.70979 4.21692L5.7462 4.20297L5.78604 4.18902C6.19625 4.07217 6.61791 3.99151 7.04414 3.95457L7 3.9595V3.11698C7 2.77917 7.28595 2.50603 7.6396 2.50603C7.99325 2.50603 8.28 2.77917 8.28 3.11698V5.77991C8.28 6.11772 7.99325 6.39163 7.6396 6.39163C7.28595 6.39163 7 6.11772 7 5.77991L7.00004 5.16426C6.58017 5.20432 6.1679 5.30387 5.77689 5.46156C4.76785 5.89414 4.28662 6.71793 4.24102 8.02342L4.23743 8.23356V8.5615H17.7631V8.22527C17.7891 7.62066 17.6617 7.01907 17.3918 6.47553C17.1326 6.01039 16.7178 5.64928 16.2168 5.45327C15.8978 5.3224 15.5637 5.23109 15.2222 5.18127L15 5.15554L15 5.77684C15 6.11319 14.7136 6.38563 14.36 6.38563C14.0064 6.38563 13.72 6.11319 13.72 5.77684L13.72 5.1098L8.28622 5.11026V3.89878L13.72 3.89851L13.72 3.1134C13.7168 2.77704 14.0016 2.50233 14.3552 2.50001C14.7088 2.49776 14.9976 2.76791 15 3.10426L15.0005 3.95481C15.3111 3.98401 15.6191 4.03564 15.9223 4.1094L16.2237 4.19053C16.2481 4.19505 16.2664 4.20108 16.2999 4.21239C16.3335 4.2237 16.3617 4.23501 16.3953 4.24556C16.4845 4.27346 16.5676 4.30663 16.6537 4.34055C16.7033 4.35714 16.749 4.379 16.7879 4.39558C16.855 4.42348 16.9237 4.45665 16.9786 4.48454C17.035 4.51244 17.0891 4.54334 17.1364 4.56822C17.1837 4.5931 17.2203 4.62099 17.2599 4.64361C17.4326 4.74991 17.5967 4.86977 17.75 5.00162L17.8996 5.1374L17.9065 5.14871L18.0111 5.25444L18.1093 5.36582L18.1147 5.37638C18.6897 6.1342 18.999 7.05453 19 7.99745L18.9938 8.23356V8.5615H19V15.1298C19 17.9941 17.3214 19.4412 13.9948 19.4412H7.99762C4.67859 19.4412 3 17.9941 3 15.1298V8.5615H3.00602V8.23658ZM14.6586 14.5674C14.2465 14.5674 13.9185 14.8899 13.9185 15.2873C13.9261 15.6847 14.2542 16.0071 14.6586 16.0071C15.0629 16.0071 15.391 15.6847 15.391 15.2873C15.391 14.8899 15.0629 14.5674 14.6586 14.5674ZM11.0038 14.5599C10.5918 14.5674 10.2637 14.8899 10.2637 15.2873C10.2637 15.6847 10.5994 16.0071 11.0038 16.0071C11.4082 16.0071 11.7363 15.6847 11.7363 15.2798C11.7287 14.8899 11.4082 14.5674 11.0038 14.5599ZM7.34144 14.5599C6.92942 14.5599 6.60134 14.8899 6.60897 15.2873C6.60897 15.6847 6.93705 16.0071 7.34144 16.0071C7.74583 16.0071 8.07392 15.6772 8.07392 15.2798C8.07392 14.8824 7.74583 14.5599 7.34144 14.5599ZM14.6586 11.4932C14.2465 11.4932 13.9261 11.8157 13.9261 12.2131C13.9261 12.6104 14.2542 12.9329 14.6586 12.9329C15.0629 12.9329 15.391 12.6104 15.391 12.2131C15.391 11.8157 15.0629 11.4932 14.6586 11.4932ZM11.0038 11.4857C10.5918 11.4932 10.2637 11.8157 10.2637 12.2131C10.2637 12.6104 10.5994 12.9329 11.0038 12.9329C11.4082 12.9329 11.7363 12.6104 11.7363 12.2056C11.7363 11.8157 11.4082 11.4932 11.0038 11.4857ZM7.34907 11.4857C6.93705 11.4857 6.60897 11.8157 6.60897 12.2131C6.60897 12.6104 6.93705 12.9329 7.34144 12.9329C7.75346 12.9329 8.08155 12.603 8.07392 12.2056C8.07392 11.8082 7.74583 11.4857 7.34907 11.4857Z" fill="#0A79B8"/>
</svg>
