<svg width="22" height="22" viewBox="0 0 22 22" fill="none" xmlns="http://www.w3.org/2000/svg">
<path d="M10.1618 3.00012L10.1809 3.00063C10.1985 3.00159 10.2159 3.00365 10.2331 3.00678C10.2444 3.00888 10.2559 3.01143 10.2672 3.01447C10.2821 3.01849 10.2968 3.02332 10.3112 3.02894C10.3153 3.03049 10.3195 3.03222 10.3237 3.03403L14.2536 4.71824C14.4084 4.78457 14.5088 4.93685 14.5088 5.1053V6.7895C14.5088 7.0221 14.3202 7.21056 14.0877 7.21056C13.9487 7.21056 12.9929 7.42239 11.2203 7.84606L10.9616 7.90821C10.738 7.96222 10.5801 8.16181 10.579 8.39184L10.5789 18.1579H11.8421C12.0746 18.1579 12.2632 18.3464 12.2632 18.579C12.2632 18.8115 12.0746 19 11.8421 19L10.1691 18.9999C10.1654 19 10.1616 19 10.1579 19H3.42105C3.18846 19 3 18.8115 3 18.5789V4.82459C3 4.62517 3.13994 4.45302 3.33512 4.41245L10.072 3.00895C10.0814 3.0071 10.0841 3.00662 10.0867 3.00617L10.1467 3.00016L10.1618 3.00012ZM4.82456 14.2281C4.59197 14.2281 4.40351 14.4165 4.40351 14.6491V15.4912C4.40351 15.7238 4.59197 15.9123 4.82456 15.9123C5.05715 15.9123 5.24561 15.7238 5.24561 15.4912V14.6491C5.24561 14.4165 5.05715 14.2281 4.82456 14.2281ZM6.64912 14.2281C6.41653 14.2281 6.22807 14.4165 6.22807 14.6491V15.4912C6.22807 15.7238 6.41653 15.9123 6.64912 15.9123C6.88172 15.9123 7.07018 15.7238 7.07018 15.4912V14.6491C7.07018 14.4165 6.88172 14.2281 6.64912 14.2281ZM8.47368 14.2281C8.24109 14.2281 8.05263 14.4165 8.05263 14.6491V15.4912C8.05263 15.7238 8.24109 15.9123 8.47368 15.9123C8.70628 15.9123 8.89474 15.7238 8.89474 15.4912V14.6491C8.89474 14.4165 8.70628 14.2281 8.47368 14.2281ZM4.82456 11.5147C4.59197 11.5147 4.40351 11.7031 4.40351 11.9357V12.7778C4.40351 13.0104 4.59197 13.1989 4.82456 13.1989C5.05715 13.1989 5.24561 13.0104 5.24561 12.7778V11.9357C5.24561 11.7031 5.05715 11.5147 4.82456 11.5147ZM6.64912 11.4211C6.41653 11.4211 6.22807 11.6095 6.22807 11.8421V12.6842C6.22807 12.9168 6.41653 13.1053 6.64912 13.1053C6.88172 13.1053 7.07018 12.9168 7.07018 12.6842V11.8421C7.07018 11.6095 6.88172 11.4211 6.64912 11.4211ZM8.47368 11.3275C8.24109 11.3275 8.05263 11.5159 8.05263 11.7485V12.5906C8.05263 12.8232 8.24109 13.0117 8.47368 13.0117C8.70628 13.0117 8.89474 12.8232 8.89474 12.5906V11.7485C8.89474 11.5159 8.70628 11.3275 8.47368 11.3275ZM4.82456 8.80115C4.59197 8.80115 4.40351 8.98961 4.40351 9.2222V10.0643C4.40351 10.2969 4.59197 10.4854 4.82456 10.4854C5.05715 10.4854 5.24561 10.2969 5.24561 10.0643V9.2222C5.24561 8.98961 5.05715 8.80115 4.82456 8.80115ZM6.64912 8.61406C6.41653 8.61406 6.22807 8.80252 6.22807 9.03511V9.87721C6.22807 10.1098 6.41653 10.2983 6.64912 10.2983C6.88172 10.2983 7.07018 10.1098 7.07018 9.87721V9.03511C7.07018 8.80252 6.88172 8.61406 6.64912 8.61406ZM8.47368 8.42697C8.24109 8.42697 8.05263 8.61543 8.05263 8.84802V9.69013C8.05263 9.92272 8.24109 10.1112 8.47368 10.1112C8.70628 10.1112 8.89474 9.92272 8.89474 9.69013V8.84802C8.89474 8.61543 8.70628 8.42697 8.47368 8.42697ZM4.82456 6.08775C4.59197 6.08775 4.40351 6.27621 4.40351 6.5088V7.3509C4.40351 7.58349 4.59197 7.77195 4.82456 7.77195C5.05715 7.77195 5.24561 7.58349 5.24561 7.3509V6.5088C5.24561 6.27621 5.05715 6.08775 4.82456 6.08775ZM6.64912 5.80705C6.41653 5.80705 6.22807 5.99551 6.22807 6.2281V7.0702C6.22807 7.30279 6.41653 7.49125 6.64912 7.49125C6.88172 7.49125 7.07018 7.30279 7.07018 7.0702V6.2281C7.07018 5.99551 6.88172 5.80705 6.64912 5.80705ZM8.47368 5.52635C8.24109 5.52635 8.05263 5.71481 8.05263 5.9474V6.7895C8.05263 7.02209 8.24109 7.21055 8.47368 7.21055C8.70628 7.21055 8.89474 7.02209 8.89474 6.7895V5.9474C8.89474 5.71481 8.70628 5.52635 8.47368 5.52635Z" fill="#0A79B8"/>
<path d="M15.9122 7.56293L11.7645 8.34063C11.5652 8.37791 11.421 8.55184 11.421 8.75442V18.579C11.421 18.8115 11.6096 19 11.8421 19H15.9122V7.56293ZM13.4536 16.0526C13.4536 16.2852 13.265 16.4737 13.0326 16.4737C12.8001 16.4737 12.6115 16.2852 12.6115 16.0526V15.2105C12.6115 14.978 12.8001 14.7895 13.0326 14.7895C13.265 14.7895 13.4536 14.978 13.4536 15.2105V16.0526ZM13.4536 13.5263C13.4536 13.7589 13.265 13.9474 13.0326 13.9474C12.8001 13.9474 12.6115 13.7589 12.6115 13.5263V12.6842C12.6115 12.4516 12.8001 12.2632 13.0326 12.2632C13.265 12.2632 13.4536 12.4516 13.4536 12.6842V13.5263ZM13.4536 11C13.4536 11.2326 13.265 11.4211 13.0326 11.4211C12.8001 11.4211 12.6115 11.2326 12.6115 11V10.1579C12.6115 9.92533 12.8001 9.73687 13.0326 9.73687C13.265 9.73687 13.4536 9.92533 13.4536 10.1579V11ZM15.0701 16.0526C15.0701 16.2852 14.8815 16.4737 14.6491 16.4737C14.4166 16.4737 14.228 16.2852 14.228 16.0526V15.2105C14.228 14.978 14.4166 14.7895 14.6491 14.7895C14.8815 14.7895 15.0701 14.978 15.0701 15.2105V16.0526ZM15.0701 13.386C15.0701 13.6186 14.8815 13.807 14.6491 13.807C14.4166 13.807 14.228 13.6186 14.228 13.386V12.5439C14.228 12.3113 14.4166 12.1228 14.6491 12.1228C14.8815 12.1228 15.0701 12.3113 15.0701 12.5439V13.386ZM14.6491 11.1404C14.4166 11.1404 14.228 10.9519 14.228 10.7193V9.87722C14.228 9.64463 14.4166 9.45617 14.6491 9.45617C14.8815 9.45617 15.0701 9.64463 15.0701 9.87722V10.7193C15.0701 10.9519 14.8815 11.1404 14.6491 11.1404ZM18.7672 8.65806L16.7544 7.652V19H18.5789C18.8114 19 19 18.8115 19 18.579V9.03471C19 8.87517 18.9098 8.72934 18.7672 8.65806Z" fill="#0A79B8"/>
</svg>
