<svg width="22" height="22" viewBox="0 0 22 22" fill="none" xmlns="http://www.w3.org/2000/svg">
<path d="M6.69383 12.2468L4.97165 14.1594L4.2804 13.4684C3.98744 13.1754 3.51291 13.1754 3.21978 13.4684C2.92666 13.7614 2.92682 14.2359 3.21978 14.529L4.46978 15.7791C4.6104 15.9219 4.80196 16 4.97196 16C4.97879 16 4.98466 16 4.9915 15.9995C5.19756 15.9941 5.39181 15.9048 5.52962 15.7519L7.77961 13.2519C8.05695 12.9438 8.03155 12.4697 7.72395 12.1922C7.44382 11.9156 6.97195 11.9406 6.69383 12.2468ZM6.69383 7.24802L4.97165 9.15929L4.2804 8.46835C3.98744 8.17537 3.51291 8.17537 3.21978 8.46835C2.92666 8.76132 2.92682 9.23586 3.21978 9.52898L4.46978 10.779C4.6104 10.9218 4.80196 10.9999 4.97196 10.9999C4.97879 10.9999 4.98466 10.9999 4.9915 10.9995C5.19756 10.9941 5.39181 10.9047 5.52962 10.7519L7.77961 8.25186C8.05695 7.94376 8.03155 7.46966 7.72395 7.19216C7.44382 6.91583 6.97195 6.9402 6.69383 7.24802ZM11.0001 9.99993H18C18.5522 9.99993 19 9.55211 19 8.99992C19 8.44772 18.5522 7.9999 18 7.9999H11.0001C10.4469 7.9999 10.0001 8.44772 10.0001 8.99992C10.0001 9.55211 10.4469 9.99993 11.0001 9.99993ZM18 13H11.0001C10.4469 13 10.0001 13.4468 10.0001 14C10.0001 14.5531 10.4479 15 11.0001 15H18C18.5522 15 19 14.5522 19 14C19 13.4478 18.5531 13 18 13Z" fill="#0A79B8"/>
</svg>
