<svg width="22" height="22" viewBox="0 0 22 22" fill="none" xmlns="http://www.w3.org/2000/svg">
<g clip-path="url(#clip0_5167_13034)">
<path fill-rule="evenodd" clip-rule="evenodd" d="M15.4636 3C16.5883 3 17.5 3.91171 17.5 5.03636V18.9403L15.3429 17.3346L13.0911 19L11.0073 17.2499L8.63224 18.9979L6.75352 17.2732L4.5 18.9403V5.03636C4.5 3.91171 5.41171 3 6.53636 3H15.4636ZM13.0725 8.64883H10.5031C10.2328 8.64883 9.99762 8.8165 9.91338 9.06265L9.3623 10.7215C9.31315 10.8606 9.32368 11.014 9.38687 11.146H8.67783C8.42159 11.146 8.18992 11.3208 8.11621 11.567L7.60374 13.2259C7.55108 13.4078 7.58268 13.604 7.695 13.7574C7.80732 13.9108 7.98283 14 8.17237 14H11.5491C11.7386 14 11.9141 13.9108 12.0265 13.7574C12.1388 13.604 12.1704 13.4078 12.1142 13.2223L11.6052 11.567C11.5982 11.5456 11.5912 11.5242 11.5807 11.5028H12.1388L12.5424 12.812L12.7917 12.0415C12.8268 11.9344 12.9286 11.8595 13.0444 11.8595H14.3326C14.4765 11.8595 14.5959 11.9808 14.5959 12.1271C14.5959 12.2734 14.4765 12.3946 14.3326 12.3946H13.2339L13.0023 13.1046C12.9672 13.2152 12.8619 13.2865 12.753 13.2865C12.725 13.2865 12.6969 13.2829 12.6723 13.2722C12.6688 13.2722 12.6653 13.2687 12.6618 13.2651C12.6934 13.5255 12.6372 13.7824 12.4968 14H15.4067C15.5962 14 15.7682 13.9108 15.8805 13.7574C15.9964 13.604 16.028 13.4114 15.9753 13.2223L15.4664 11.567C15.3891 11.3173 15.1575 11.146 14.9012 11.146H14.1887C14.2519 11.014 14.2624 10.8606 14.2133 10.7215L13.6622 9.06265C13.5779 8.8165 13.3427 8.64883 13.0725 8.64883ZM10.4715 11.8595C10.6154 11.8595 10.7347 11.9808 10.7347 12.1271C10.7347 12.2734 10.6154 12.3946 10.4715 12.3946H9.37283L9.14116 13.1046C9.10606 13.2152 9.00075 13.2865 8.89194 13.2865C8.86386 13.2865 8.83578 13.2829 8.81121 13.2722C8.67081 13.2259 8.59709 13.076 8.64272 12.9333L8.93055 12.0415C8.96565 11.9344 9.06745 11.8595 9.18328 11.8595H10.4715ZM12.2265 9.36232C12.3704 9.36232 12.4898 9.48361 12.4898 9.62988C12.4898 9.77614 12.3704 9.89744 12.2265 9.89744H11.1279L10.8962 10.6074C10.8611 10.7179 10.7558 10.7893 10.647 10.7893C10.6189 10.7893 10.5908 10.7857 10.5663 10.775C10.4259 10.7287 10.3521 10.5788 10.3978 10.4361L10.6856 9.54426C10.7207 9.43724 10.8225 9.36232 10.9383 9.36232H12.2265ZM8.2291 6C6.998 6 6 7.00796 6 8.25133C6 9.49471 6.998 10.5027 8.2291 10.5027C8.45096 10.5027 8.66525 10.4699 8.87084 10.406C9.15966 9.63364 9.18411 9.09097 9.52632 8.63085C9.78162 8.28757 10.0794 8.04155 10.4279 7.87931C10.2524 6.81297 9.33473 6 8.2291 6ZM7.40341 7.78231C7.65649 7.22534 8.30421 6.97518 8.86068 7.21947L9.03065 7.29452L8.87926 7.63878L8.70929 7.56374C8.61657 7.52226 8.51627 7.50085 8.41486 7.50089C8.1894 7.50103 7.9762 7.60455 7.83529 7.78231H8.41486V8.15753H7.67833C7.66966 8.21976 7.66966 8.28291 7.67833 8.34514H8.41486V8.72036H7.83529C7.9762 8.89811 8.1894 9.00164 8.41486 9.00178C8.51721 9.00221 8.61849 8.98079 8.71207 8.93893L8.88204 8.86388L9.03065 9.20815L8.86068 9.2832C8.30421 9.52749 7.65649 9.27733 7.40341 8.72036H7.11455V8.34514H7.30495L7.30031 8.25133C7.30031 8.21944 7.30031 8.18848 7.30495 8.15753H7.11455V7.78231H7.40341Z" fill="#0A79B8"/>
</g>
<defs>
<clipPath id="clip0_5167_13034">
<rect width="22" height="22" fill="white"/>
</clipPath>
</defs>
</svg>
