<svg width="22" height="22" viewBox="0 0 22 22" fill="none" xmlns="http://www.w3.org/2000/svg">
<g clip-path="url(#clip0_5167_13002)">
<path fill-rule="evenodd" clip-rule="evenodd" d="M10.0365 3C13.9227 3 17.073 6.15035 17.073 10.0365C17.073 11.6236 16.5476 13.088 15.6612 14.2652L18.8336 17.4219C19.1762 17.7627 19.1777 18.3167 18.8369 18.6594L18.6665 18.8289C18.3252 19.1683 17.7738 19.1683 17.4325 18.8289L14.2552 15.6686C13.0798 16.5505 11.6192 17.073 10.0365 17.073C6.15035 17.073 3 13.9227 3 10.0365C3 9.37075 3.09246 8.72658 3.26524 8.11615C3.77401 8.56903 4.41561 8.87517 5.12417 8.96932C5.04969 9.31235 5.01043 9.66984 5.01043 10.0365C5.01043 12.8123 7.26068 15.0626 10.0365 15.0626C12.8123 15.0626 15.0626 12.8123 15.0626 10.0365C15.0626 7.26068 12.8123 5.01043 10.0365 5.01043C9.70479 5.01043 9.38058 5.04257 9.06682 5.10389C8.98777 4.39342 8.69424 3.74595 8.25265 3.2287C8.82127 3.07938 9.41962 3 10.0365 3Z" fill="#0A79B8"/>
<path d="M5.58984 3C6.97056 3 8.08984 4.11929 8.08984 5.5C8.08984 6.88071 6.97056 8 5.58984 8C4.20913 8 3.08984 6.88071 3.08984 5.5C3.08984 4.11929 4.20913 3 5.58984 3ZM5.58984 3.54688C4.51116 3.54688 3.63672 4.42132 3.63672 5.5C3.63672 6.57868 4.51116 7.45312 5.58984 7.45312C6.66852 7.45312 7.54297 6.57868 7.54297 5.5C7.54297 4.42132 6.66852 3.54688 5.58984 3.54688Z" fill="#0A79B8"/>
<path d="M6.48054 4.42163L6.96885 4.82815L5.66689 6.41848L5.47111 6.65762L5.22836 6.46724L4.26807 5.71414L4.65681 5.21008L5.37403 5.77263L6.48054 4.42163Z" fill="#0A79B8"/>
<path fill-rule="evenodd" clip-rule="evenodd" d="M10.1446 7C10.4117 7 10.6281 7.21648 10.6281 7.48352V14.3333L12.0118 14.333L12.0128 10.1502C12.0128 9.88314 12.2292 9.66667 12.4963 9.66667H12.9139C13.1809 9.66667 13.3974 9.88314 13.3974 10.1502L13.3968 14.333L14.0897 14.3333V15.1705H5.63184V14.3333H6.4743V11.4835C6.4743 11.2165 6.69077 11 6.95781 11H7.3754C7.64243 11 7.85891 11.2165 7.85891 11.4835V14.3333H9.24353V7.48352C9.24353 7.21648 9.46 7 9.72704 7H10.1446Z" fill="#0A79B8"/>
</g>
<defs>
<clipPath id="clip0_5167_13002">
<rect width="22" height="22" fill="white"/>
</clipPath>
</defs>
</svg>
