<svg width="22" height="22" viewBox="0 0 22 22" fill="none" xmlns="http://www.w3.org/2000/svg">
<g clip-path="url(#clip0_5167_12309)">
<path d="M7.88889 9.27273V5.51787C7.88889 4.13239 8.99758 3.00794 10.3636 3.00794C11.7297 3.00794 12.8384 4.13239 12.8384 5.51787V9.27273C14.0362 8.45951 14.8182 7.08407 14.8182 5.51787C14.8182 3.01798 12.8285 1 10.3636 1C7.89879 1 5.90909 3.01798 5.90909 5.51787C5.90909 7.08407 6.69111 8.45951 7.88889 9.27273ZM12.9832 11.5414C12.7125 11.4077 12.4225 11.3409 12.1228 11.3409H11.5331V5.61364C11.5331 4.82136 10.8854 4.18182 10.083 4.18182C9.28066 4.18182 8.63297 4.82136 8.63297 5.61364V15.8655L5.30748 15.1782C4.94979 15.1018 4.57278 15.2164 4.31176 15.4741C3.89608 15.8941 3.89608 16.5623 4.31176 16.9823L8.18828 20.81C8.55563 21.1632 9.04865 21.3636 9.56101 21.3636H15.458C16.4247 21.3636 17.2367 20.6668 17.372 19.7218L17.9811 15.455C18.0971 14.6436 17.6717 13.8418 16.9274 13.4791L12.9832 11.5414Z" fill="#0A79B8"/>
</g>
<defs>
<clipPath id="clip0_5167_12309">
<rect width="22" height="22" fill="white"/>
</clipPath>
</defs>
</svg>
