<svg width="22" height="22" viewBox="0 0 22 22" fill="none" xmlns="http://www.w3.org/2000/svg">
<path d="M16.9846 5C18.0977 5 19 5.90233 19 7.01541V15.7338C19 16.8469 18.0977 17.7492 16.9846 17.7492L9.53972 17.7498C9.89924 17.3283 10.1221 16.7855 10.1375 16.1885C10.141 16.0502 10.1331 15.9119 10.1139 15.7749L9.76374 13.2837C9.58978 12.0461 8.53081 11.1255 7.28096 11.1255H3.97593C3.69255 11.1255 3.42014 11.1725 3.1661 11.2592L3.16589 5H16.9846ZM8.50876 15.9512C8.83733 15.9512 9.10368 16.2176 9.10368 16.5461V16.6639C9.10368 16.9925 8.83733 17.2588 8.50876 17.2588H2.59492C2.26636 17.2588 2 16.9925 2 16.6639V16.5461C2 16.2176 2.26636 15.9512 2.59492 15.9512H8.50876ZM8.03518 14.1143C8.36375 14.1143 8.6301 14.3807 8.6301 14.7093V14.827C8.6301 15.1556 8.36375 15.422 8.03518 15.422H3.0685C2.73994 15.422 2.47358 15.1556 2.47358 14.827V14.7093C2.47358 14.3807 2.73994 14.1143 3.0685 14.1143H8.03518ZM7.68118 12.2775C8.00975 12.2775 8.2761 12.5438 8.2761 12.8724V12.9902C8.2761 13.3187 8.00975 13.5851 7.68118 13.5851H3.54327C3.2147 13.5851 2.94834 13.3187 2.94834 12.9902V12.8724C2.94834 12.5438 3.2147 12.2775 3.54327 12.2775H7.68118ZM15.8572 10.6617C15.2633 10.6617 14.7776 11.1711 14.7776 11.7939C14.7776 12.4167 15.2633 12.9262 15.8572 12.9262C16.451 12.9262 16.9368 12.4167 16.9368 11.7939C16.9368 11.1711 16.451 10.6617 15.8572 10.6617Z" fill="#0A79B8"/>
</svg>
