<svg width="22" height="22" viewBox="0 0 22 22" fill="none" xmlns="http://www.w3.org/2000/svg">
<path d="M7.5 8.46471C10.5376 8.46471 13 10.963 13 14.0449C13 17.1267 10.5376 19.625 7.5 19.625C4.46243 19.625 2 17.1267 2 14.0449C2 10.963 4.46243 8.46471 7.5 8.46471ZM18.0766 5C19.1389 5 20 5.86113 20 6.92338V15.6725C20 16.7347 19.1389 17.5959 18.0766 17.5959L12.9781 17.596C13.625 16.571 14 15.3523 14 14.0449C14 10.4027 11.0899 7.45013 7.5 7.45013C6.21084 7.45013 5.00934 7.8309 3.99879 8.48763L4 5H18.0766ZM8.92799 10.625C8.77881 10.6259 8.65866 10.7354 8.66001 10.8694L8.66 11.1822L6.36763 11.1823V11.665L8.66 11.6648L8.66001 11.9306C8.66001 12.0646 8.78084 12.1732 8.93001 12.1732C9.07919 12.1732 9.20001 12.0646 9.20001 11.9306L9.2 11.6831L9.29373 11.6933C9.43779 11.7132 9.57876 11.7495 9.71335 11.8017C9.92469 11.8798 10.0997 12.0237 10.209 12.209C10.3229 12.4256 10.3766 12.6653 10.3657 12.9062V13.0401H4.65954V12.9095L4.66106 12.8257C4.68029 12.3056 4.88331 11.9774 5.309 11.805C5.47396 11.7422 5.64789 11.7025 5.82502 11.6865L5.825 11.9318C5.825 12.0664 5.94563 12.1756 6.09483 12.1756C6.24403 12.1756 6.365 12.0664 6.365 11.9318V10.8708C6.365 10.7362 6.24403 10.6274 6.09483 10.6274C5.94563 10.6274 5.825 10.7362 5.825 10.8708V11.2065L5.84362 11.2046C5.6638 11.2193 5.48592 11.2514 5.31286 11.298L5.28069 11.3091C5.26686 11.3121 5.25335 11.3166 5.24048 11.3223C5.20252 11.3334 5.16457 11.3466 5.12886 11.3601C5.10988 11.3668 5.0909 11.3755 5.07193 11.3821C5.04587 11.3932 5.01756 11.4064 4.99151 11.4175L4.92717 11.4509L4.89983 11.4653L4.87249 11.4809C4.77566 11.5371 4.68592 11.6028 4.60486 11.6776L4.55757 11.7259L4.51704 11.7687L4.45383 11.8496C4.22971 12.1617 4.11896 12.5339 4.14004 12.9107V13.0401L4.1375 15.6572L4.14232 15.8164C4.20651 16.852 4.91233 17.375 6.24587 17.375H8.77591L8.97167 17.3711C10.2452 17.3188 10.8875 16.7441 10.8875 15.6572V13.0401L10.8849 12.9095L10.8875 12.8154C10.8871 12.4397 10.7566 12.073 10.514 11.7711L10.4703 11.7225L10.4262 11.6803L10.3602 11.6217C10.2955 11.5692 10.2263 11.5214 10.1534 11.4791C10.1367 11.4701 10.1212 11.459 10.1013 11.4491C10.0813 11.4391 10.0585 11.4268 10.0347 11.4157C10.0115 11.4046 9.98259 11.3914 9.95428 11.3803C9.93788 11.3737 9.91858 11.365 9.89767 11.3583C9.86132 11.3448 9.82626 11.3316 9.78862 11.3205C9.77447 11.3163 9.76257 11.3118 9.74841 11.3073C9.73426 11.3028 9.72654 11.3004 9.71625 11.2986L9.58908 11.2662C9.46119 11.2369 9.33124 11.2163 9.20023 11.2047L9.20001 10.8658C9.199 10.7317 9.07716 10.6241 8.92799 10.625ZM9.05595 15.4331C9.22656 15.4331 9.36497 15.5616 9.36497 15.7199C9.36497 15.8783 9.22656 16.0067 9.05595 16.0067C8.88535 16.0067 8.74694 15.8783 8.74372 15.7199C8.74372 15.5616 8.88214 15.4331 9.05595 15.4331ZM7.51411 15.4301C7.68471 15.4331 7.8199 15.5616 7.82312 15.7169C7.82312 15.8783 7.68471 16.0067 7.51411 16.0067C7.34351 16.0067 7.20188 15.8783 7.20188 15.7199C7.20188 15.5616 7.34029 15.4331 7.51411 15.4301ZM5.96905 15.4301C6.13965 15.4301 6.27806 15.5586 6.27806 15.7169C6.27806 15.8753 6.13965 16.0067 5.96905 16.0067C5.79844 16.0067 5.66003 15.8783 5.66003 15.7199C5.65681 15.5616 5.79523 15.4301 5.96905 15.4301ZM9.05595 14.2082C9.22656 14.2082 9.36497 14.3367 9.36497 14.495C9.36497 14.6534 9.22656 14.7818 9.05595 14.7818C8.88535 14.7818 8.74694 14.6534 8.74694 14.495C8.74694 14.3367 8.88214 14.2082 9.05595 14.2082ZM7.51411 14.2053C7.68471 14.2082 7.82312 14.3367 7.82312 14.4921C7.82312 14.6534 7.68471 14.7818 7.51411 14.7818C7.34351 14.7818 7.20188 14.6534 7.20188 14.495C7.20188 14.3367 7.34029 14.2082 7.51411 14.2053ZM5.97226 14.2053C6.13965 14.2053 6.27806 14.3337 6.27806 14.4921C6.28128 14.6504 6.14286 14.7818 5.96905 14.7818C5.79844 14.7818 5.66003 14.6534 5.66003 14.495C5.66003 14.3367 5.79844 14.2053 5.97226 14.2053ZM16.8242 10.5936C16.2242 10.5936 15.7333 11.0969 15.7333 11.7122C15.7333 12.3275 16.2242 12.8308 16.8242 12.8308C17.4243 12.8308 17.9152 12.3275 17.9152 11.7122C17.9152 11.0969 17.4243 10.5936 16.8242 10.5936Z" fill="#0A79B8"/>
</svg>
