<svg width="22" height="22" viewBox="0 0 22 22" fill="none" xmlns="http://www.w3.org/2000/svg">
<path d="M6.52442 4.01481L6.6287 4.02182C7.00381 4.07271 7.29294 4.39426 7.29294 4.78333V5.33812C7.29294 6.06896 7.8854 6.66142 8.61624 6.66142H16.193C17.7433 6.66142 19.0001 7.91817 19.0001 9.46844V15.4151C19.0001 16.9654 17.7433 18.2221 16.193 18.2221L9.89682 18.2218L9.94169 18.1764C11.5356 16.4293 11.4824 13.7236 9.7823 12.0405C8.21904 10.493 5.78247 10.3239 4.02832 11.5331L4.02929 6.52453C4.02929 5.13928 5.14722 4.01481 6.52442 4.01481ZM16.0286 11.7953C15.4671 11.7953 15.0078 12.2573 15.0078 12.822C15.0078 13.3867 15.4671 13.8487 16.0286 13.8487C16.59 13.8487 17.0493 13.3867 17.0493 12.822C17.0493 12.2573 16.59 11.7953 16.0286 11.7953ZM10.08 4.01481C10.5967 4.01481 11.0156 4.43372 11.0156 4.95048V6.04443H8.02149V5.36789C8.02149 4.62363 8.56038 4.01481 9.21915 4.01481H10.08ZM15.195 3C16.7453 3 18.002 4.25674 18.002 5.80702V6.04443H12.0137V5.80702C12.0137 4.25674 13.2704 3 14.8207 3H15.195Z" fill="#0A79B8"/>
<path d="M10.1814 15.2812C10.1814 13.2646 8.55716 11.6238 6.56084 11.6238C4.56452 11.6238 2.94028 13.2646 2.94028 15.2812C2.94028 17.2978 4.56452 18.9385 6.56084 18.9385C8.55716 18.9385 10.1814 17.2978 10.1814 15.2812ZM7.1467 16.8591C7.15088 17.1661 6.90196 17.4109 6.58978 17.4068C6.43409 17.4048 6.29193 17.3409 6.18836 17.239C6.0848 17.1372 6.01983 16.9974 6.01775 16.8443L6.00393 15.829L4.97158 15.8154C4.81589 15.8133 4.67373 15.7494 4.57015 15.6476C4.4666 15.5457 4.40163 15.4059 4.39955 15.2528C4.39537 14.9458 4.64429 14.7009 4.95647 14.7051L5.98882 14.7186L5.97501 13.7033C5.97083 13.3963 6.21975 13.1515 6.53193 13.1556C6.84411 13.1597 7.09979 13.4112 7.10397 13.7182L7.11778 14.7335L8.15013 14.7471C8.46231 14.7512 8.71799 15.0026 8.72217 15.3097C8.72634 15.6167 8.47742 15.8615 8.16524 15.8574L7.13289 15.8438L7.1467 16.8591Z" fill="#0A79B8"/>
</svg>
