<svg width="22" height="22" viewBox="0 0 22 22" fill="none" xmlns="http://www.w3.org/2000/svg">
<path d="M14.6562 10.9375C17.2969 10.9375 19.4375 13.0781 19.4375 15.7188C19.4375 18.3594 17.2969 20.5 14.6562 20.5C12.0156 20.5 9.875 18.3594 9.875 15.7188C9.875 13.0781 12.0156 10.9375 14.6562 10.9375ZM16.1641 16.3722C15.6029 16.3722 15.148 16.8146 15.148 17.3603C15.148 17.906 15.6029 18.3484 16.1641 18.3484C16.7252 18.3484 17.1801 17.906 17.1801 17.3603C17.1801 16.8146 16.7252 16.3722 16.1641 16.3722ZM16.3129 13.5526L12.2488 17.5051L12.9672 18.2037L17.0312 14.2512L16.3129 13.5526ZM14.6375 3.5C14.84 3.5 14.975 3.63881 14.975 3.84703V4.54108C14.975 4.74929 14.84 4.8881 14.6375 4.8881H14.3V9.05242H16.6625C16.865 9.05242 17 9.19123 17 9.39945V10.0935C17 10.1894 16.9713 10.2706 16.9206 10.3303C16.2238 10.0368 15.4589 9.875 14.6562 9.875C12.8949 9.875 11.3156 10.6542 10.2442 11.8868L8.89375 11.8826V13.2707L9.34874 13.27C9.00454 14.0148 8.8125 14.8444 8.8125 15.7188C8.8125 16.2965 8.89634 16.8546 9.0525 17.3817L4.5125 17.381C4.31 17.381 4.175 17.2422 4.175 17.034V10.4405H3.8375C3.635 10.4405 3.5 10.3017 3.5 10.0935V9.39945C3.5 9.19123 3.635 9.05242 3.8375 9.05242H6.2V4.8881H5.8625C5.66 4.8881 5.525 4.74929 5.525 4.54108V3.84703C5.525 3.63881 5.66 3.5 5.8625 3.5H14.6375ZM7.3 14.0076H5.95V15.3957H7.3V14.0076ZM13.116 13.4078C12.5549 13.4078 12.1 13.8502 12.1 14.3959C12.1 14.9417 12.5549 15.3841 13.116 15.3841C13.6771 15.3841 14.132 14.9417 14.132 14.3959C14.132 13.8502 13.6771 13.4078 13.116 13.4078ZM7.3 11.8826H5.95V13.2707H7.3V11.8826ZM12.3687 7.63261H11.0188V9.02072H12.3687V7.63261ZM9.425 7.63261H8.075V9.02072H9.425V7.63261ZM12.3687 5.50761H11.0188V6.89572H12.3687V5.50761ZM9.425 5.50761H8.075V6.89572H9.425V5.50761Z" fill="#0A79B8"/>
</svg>
