<svg width="22" height="22" viewBox="0 0 22 22" fill="none" xmlns="http://www.w3.org/2000/svg">
<path fill-rule="evenodd" clip-rule="evenodd" d="M14.8571 7.81439C14.8571 7.23581 15.3262 6.76677 15.9048 6.76677H16.381C16.9595 6.76677 17.4286 7.23581 17.4286 7.81439V17.7482H19.3016C19.6873 17.7482 20 18.0609 20 18.4467V18.5016C20 18.8873 19.6873 19.2 19.3016 19.2H2.69841C2.31269 19.2 2 18.8873 2 18.5016V18.4467C2 18.0609 2.31269 17.7482 2.69841 17.7482H4.57143V11.1724C4.57143 10.5938 5.04046 10.1248 5.61905 10.1248H6.09524C6.67382 10.1248 7.14286 10.5938 7.14286 11.1724V17.7482L9.714 17.748L9.71429 4.04762C9.71429 3.46903 10.1833 3 10.7619 3H11.2381C11.8167 3 12.2857 3.46903 12.2857 4.04762L12.285 17.748L14.8571 17.7482V7.81439Z" fill="#0A79B8"/>
</svg>
