<svg width="22" height="22" viewBox="0 0 22 22" fill="none" xmlns="http://www.w3.org/2000/svg">
<g clip-path="url(#clip0_5167_12941)">
<path fill-rule="evenodd" clip-rule="evenodd" d="M15.4636 3C16.5883 3 17.5 3.91171 17.5 5.03636V18.9403L15.3429 17.3346L13.0911 19L11.0073 17.2499L8.63224 18.9979L6.75352 17.2732L4.5 18.9403V5.03636C4.5 3.91171 5.41171 3 6.53636 3H15.4636ZM11.1323 5H10.8677C10.5463 5 10.2857 5.26058 10.2857 5.58201L10.285 13.193L8.85714 13.1935V9.54024C8.85714 9.2188 8.59657 8.95823 8.27513 8.95823H8.01058C7.68915 8.95823 7.42857 9.2188 7.42857 9.54024V13.1935H6.38801C6.17372 13.1935 6 13.3672 6 13.5815V13.612C6 13.8263 6.17372 14 6.38801 14H15.612C15.8263 14 16 13.8263 16 13.612V13.5815C16 13.3672 15.8263 13.1935 15.612 13.1935H14.5714V7.67466C14.5714 7.35323 14.3109 7.09265 13.9894 7.09265H13.7249C13.4034 7.09265 13.1429 7.35323 13.1429 7.67466V13.1935L11.714 13.193L11.7143 5.58201C11.7143 5.26058 11.4537 5 11.1323 5Z" fill="#0A79B8"/>
</g>
<defs>
<clipPath id="clip0_5167_12941">
<rect width="22" height="22" fill="white"/>
</clipPath>
</defs>
</svg>
