<svg width="22" height="22" viewBox="0 0 22 22" fill="none" xmlns="http://www.w3.org/2000/svg">
<path d="M7.5 8.46471C10.5376 8.46471 13 10.963 13 14.0449C13 17.1267 10.5376 19.625 7.5 19.625C4.46243 19.625 2 17.1267 2 14.0449C2 10.963 4.46243 8.46471 7.5 8.46471ZM18.0766 5C19.1389 5 20 5.86113 20 6.92338V15.6725C20 16.7347 19.1389 17.5959 18.0766 17.5959L12.9781 17.596C13.625 16.571 14 15.3523 14 14.0449C14 10.4027 11.0899 7.45013 7.5 7.45013C6.21084 7.45013 5.00934 7.8309 3.99879 8.48763L4 5H18.0766ZM7.69533 10.9625H7.6239C7.35686 10.9625 7.14038 11.179 7.14038 11.446V16.1187H6.10192V14.2585C6.10192 13.9915 5.88545 13.775 5.61841 13.775H5.54698C5.27994 13.775 5.06346 13.9915 5.06346 14.2585V16.1187H4.025V16.5875H10.775V16.1187L10.255 16.1185L10.2558 13.321C10.2558 13.054 10.0393 12.8375 9.77225 12.8375H9.70082C9.43378 12.8375 9.21731 13.054 9.21731 13.321L9.217 16.1185L8.17885 16.1187V11.446C8.17885 11.179 7.96237 10.9625 7.69533 10.9625ZM16.8242 10.5936C16.2242 10.5936 15.7333 11.0969 15.7333 11.7122C15.7333 12.3275 16.2242 12.8308 16.8242 12.8308C17.4243 12.8308 17.9152 12.3275 17.9152 11.7122C17.9152 11.0969 17.4243 10.5936 16.8242 10.5936Z" fill="#0A79B8"/>
</svg>
