<svg width="22" height="22" viewBox="0 0 22 22" fill="none" xmlns="http://www.w3.org/2000/svg">
<path d="M17.8363 4C19.0314 4 20.0002 4.96877 20.0002 6.16381V14.755C20.0002 15.9501 19.0314 16.9188 17.8363 16.9188L12.9782 16.919C13.6251 15.8676 14.0002 14.6178 14.0002 13.2768C14.0002 9.54122 11.09 6.51296 7.50015 6.51296C6.21103 6.51296 5.00956 6.90346 3.99902 7.577L4.00015 4H17.8363ZM16.8244 9.73699C16.2243 9.73699 15.7335 10.2532 15.7335 10.8843C15.7335 11.5154 16.2243 12.0316 16.8244 12.0316C17.4244 12.0316 17.9153 11.5154 17.9153 10.8843C17.9153 10.2532 17.4244 9.73699 16.8244 9.73699Z" fill="#0A79B8"/>
<path fill-rule="evenodd" clip-rule="evenodd" d="M7.5 7.5535C10.5376 7.5535 13 10.1159 13 13.2767C13 16.4376 10.5376 19 7.5 19C4.46243 19 2 16.4376 2 13.2767C2 10.1159 4.46243 7.5535 7.5 7.5535ZM7.65962 10.1153C7.37285 10.1153 7.14038 10.3478 7.14038 10.6346V15.4038H6.10192V13.5192C6.10192 13.2324 5.86946 13 5.58269 13C5.29593 13 5.06346 13.2324 5.06346 13.5192V15.4038H4.025V15.8846H10.775V15.4038L10.255 15.4033L10.2558 12.5576C10.2558 12.2709 10.0233 12.0384 9.73654 12.0384C9.44978 12.0384 9.21731 12.2709 9.21731 12.5576L9.217 15.4033L8.17885 15.4038V10.6346C8.17885 10.3478 7.94638 10.1153 7.65962 10.1153Z" fill="#0A79B8"/>
</svg>
