<svg width="22" height="22" viewBox="0 0 22 22" fill="none" xmlns="http://www.w3.org/2000/svg">
<g clip-path="url(#clip0_5167_12600)">
<path fill-rule="evenodd" clip-rule="evenodd" d="M16.5 2C16.5 3.23233 17.5125 4.24066 18.75 4.24066V8.75934C18.75 17.722 10.875 20 10.875 20L10.8544 19.9938C10.4119 19.858 3 17.4544 3 8.75934V4.24066C4.2375 4.24066 5.25 3.23233 5.25 2H16.5ZM12.6 10.625H9.225C8.08725 10.625 7.1625 11.5498 7.1625 12.6875V13.8125C7.1625 14.123 7.4145 14.375 7.725 14.375H14.1C14.4105 14.375 14.6625 14.123 14.6625 13.8125V12.6875C14.6625 11.5498 13.7378 10.625 12.6 10.625ZM10.9125 5.375C9.672 5.375 8.6625 6.3845 8.6625 7.625C8.6625 8.8655 9.672 9.875 10.9125 9.875C12.153 9.875 13.1625 8.8655 13.1625 7.625C13.1625 6.3845 12.153 5.375 10.9125 5.375Z" fill="#0A79B8"/>
</g>
<defs>
<clipPath id="clip0_5167_12600">
<rect width="22" height="22" fill="white"/>
</clipPath>
</defs>
</svg>
