<svg width="22" height="22" viewBox="0 0 22 22" fill="none" xmlns="http://www.w3.org/2000/svg">
<path d="M7.23622 7.58227L12.8446 11.9646C12.957 12.0493 13.0151 12.1883 12.9966 12.3282C12.9781 12.4681 12.886 12.5871 12.7555 12.6395C12.7319 12.649 12.3381 12.6564 11.7084 12.6613L11.7068 19.3463C11.7068 19.4312 11.6383 19.5 11.5537 19.5H2.44133C2.35679 19.5 2.28828 19.4312 2.28828 19.3463L2.28696 12.5944C1.56578 12.5726 1.10764 12.5454 1.08183 12.5121C0.95001 12.3416 0.980713 12.0961 1.15041 11.9637L6.7588 7.58227C6.89921 7.47258 7.09581 7.47258 7.23622 7.58227ZM18.0759 4.5C19.1382 4.5 19.9993 5.36113 19.9993 6.42338V15.8722C19.9993 16.9345 19.1382 17.7956 18.0759 17.7956L13 17.795V14C13 13.7545 13.1769 13.5504 13.4101 13.5081L13.5 13.5C13.7761 13.5 14 13.2761 14 13V11.5146C14 11.1917 13.844 10.8886 13.5812 10.7009L7.56165 6.40118C7.22357 6.15969 6.7714 6.1524 6.42571 6.38286L3.11 8.593L3.11043 4.5H18.0759ZM6.85517 11H5.60517V12.9933L4.7 13.4464V14.1209L5.60517 13.6779V14.3121L4.7 14.7551V15.4296L5.60517 14.9867V17.5236C6.22299 17.537 6.78513 17.4917 7.29159 17.3877C7.79806 17.2837 8.2291 17.1226 8.5847 16.9045C8.9403 16.6863 9.21509 16.4112 9.40905 16.079C9.60302 15.7467 9.7 15.3591 9.7 14.9162C9.7 14.7551 9.67486 14.5705 9.62457 14.3625L8.59009 14.6041C8.61164 14.6846 8.62421 14.7534 8.6278 14.8105C8.63139 14.8675 8.63319 14.9195 8.63319 14.9665C8.63319 15.188 8.58111 15.386 8.47694 15.5605C8.37277 15.735 8.23807 15.886 8.07284 16.0135C7.90761 16.141 7.71724 16.24 7.50172 16.3105C7.28621 16.381 7.07069 16.4229 6.85517 16.4363V14.4128L8.52543 13.5873V12.9128L6.85517 13.7383V13.1041L8.52543 12.2785V11.604L6.85517 12.4296V11ZM16.6471 10.4043C16.0137 10.4043 15.4956 10.9356 15.4956 11.5851C15.4956 12.2346 16.0137 12.7659 16.6471 12.7659C17.2805 12.7659 17.7986 12.2346 17.7986 11.5851C17.7986 10.9356 17.2805 10.4043 16.6471 10.4043Z" fill="#0A79B8"/>
</svg>
